<svg width="652" height="133" viewBox="0 0 652 133" fill="none" xmlns="http://www.w3.org/2000/svg">
<path d="M17.2191 91.3221C11.8777 91.3221 7.66076 90.1038 4.56834 87.6674C1.52278 85.1841 0 81.834 0 77.617C0 77.1953 0.0468547 76.5159 0.140564 75.5789L0.281129 74.5949C0.327984 74.2669 0.445121 74.0092 0.63254 73.8218C0.866814 73.6344 1.12452 73.5407 1.40564 73.5407H12.0183C12.3462 73.5407 12.5805 73.6344 12.7211 73.8218C12.9085 74.0092 12.9788 74.2669 12.9319 74.5949L12.8616 75.0166C12.7211 76.3285 13.2365 77.4999 14.4079 78.5307C15.6261 79.5147 17.3597 80.0066 19.6087 80.0066C21.4361 80.0066 22.748 79.5849 23.5445 78.7416C24.3411 77.8982 24.7393 77.0314 24.7393 76.1411C24.7393 75.204 24.2942 74.5012 23.404 74.0326C22.5606 73.5641 21.0612 73.0018 18.9059 72.3459L17.0083 71.7133C13.0256 70.4482 9.67552 68.7849 6.95794 66.7233C4.28721 64.6148 2.95185 61.6161 2.95185 57.7272C2.95185 54.4473 3.81867 51.5423 5.5523 49.0122C7.33278 46.482 9.72237 44.5141 12.7211 43.1085C15.7666 41.7028 19.0933 41 22.7012 41C25.981 41 28.9094 41.5857 31.4864 42.7571C34.1103 43.9284 36.1485 45.6152 37.601 47.8174C39.0535 49.9727 39.7797 52.456 39.7797 55.2673C39.7797 55.689 39.7329 56.3684 39.6392 57.3055L39.5689 57.938C39.522 58.266 39.3815 58.5237 39.1472 58.7111C38.9598 58.8985 38.7021 58.9922 38.3741 58.9922H27.8318C27.5038 58.9922 27.2461 58.8985 27.0587 58.7111C26.9181 58.5237 26.8712 58.266 26.9181 57.938V57.8677C27.0587 56.9775 26.8947 56.1107 26.4261 55.2673C26.0044 54.4239 25.3016 53.7211 24.3177 53.1588C23.3806 52.5966 22.2092 52.3154 20.8035 52.3154C19.2573 52.3154 18.0157 52.6668 17.0786 53.3697C16.1415 54.0256 15.6729 54.9393 15.6729 56.1107C15.6729 57.1883 16.282 58.102 17.5003 58.8517C18.7654 59.5545 21.1315 60.4916 24.5988 61.663C24.9736 61.8035 26.4027 62.2955 28.886 63.1389C31.4162 63.9354 33.5246 65.3176 35.2114 67.2855C36.8982 69.2066 37.7416 71.5493 37.7416 74.3138C37.7416 74.6886 37.6947 75.2977 37.601 76.1411C36.9919 80.8734 34.8366 84.5984 31.135 87.316C27.4335 89.9867 22.7949 91.3221 17.2191 91.3221Z" fill="#D93333"/>
<path d="M72.1787 90.7598C71.5228 90.7598 71.1714 90.4553 71.1245 89.8461L70.3514 84.4344C70.3046 84.2001 70.164 84.083 69.9297 84.083H55.6624C55.475 84.083 55.311 84.2001 55.1704 84.4344L52.9917 89.8461C52.8043 90.4553 52.3826 90.7598 51.7266 90.7598H40.13C39.3335 90.7598 39.0758 90.3615 39.3569 89.565L59.5279 42.4056C59.7622 41.8434 60.1839 41.5623 60.793 41.5623H75.2712C75.8334 41.5623 76.1848 41.8434 76.3254 42.4056L84.8998 89.565V89.8461C84.8998 90.4553 84.5484 90.7598 83.8456 90.7598H72.1787ZM59.5279 73.4704C59.4811 73.7984 59.5748 73.9624 59.8091 73.9624H68.1727C68.4538 73.9624 68.5944 73.7984 68.5944 73.4704L66.2048 57.938C66.1579 57.7506 66.0642 57.6569 65.9236 57.6569C65.8299 57.6569 65.7362 57.7506 65.6425 57.938L59.5279 73.4704Z" fill="#D93333"/>
<path d="M105.972 91.3221C100.865 91.3221 96.8123 89.9633 93.8136 87.2457C90.8149 84.5281 89.3155 80.85 89.3155 76.2114C89.3155 75.6491 89.3624 74.8057 89.4561 73.6812L93.3216 42.6165C93.3685 42.2885 93.4856 42.0308 93.673 41.8434C93.8604 41.656 94.1181 41.5623 94.4461 41.5623H105.199C105.527 41.5623 105.762 41.656 105.902 41.8434C106.09 42.0308 106.16 42.2885 106.113 42.6165L102.318 73.6812C102.271 73.9155 102.247 74.2903 102.247 74.8057C102.247 76.3988 102.693 77.6639 103.583 78.601C104.52 79.5381 105.785 80.0066 107.378 80.0066C109.112 80.0066 110.588 79.4444 111.806 78.3199C113.024 77.1485 113.75 75.6023 113.985 73.6812L117.78 42.6165C117.827 42.2885 117.944 42.0308 118.131 41.8434C118.366 41.656 118.623 41.5623 118.904 41.5623H129.728C130.009 41.5623 130.22 41.656 130.36 41.8434C130.548 42.0308 130.618 42.2885 130.571 42.6165L126.776 73.6812C126.354 77.1953 125.183 80.2878 123.262 82.9585C121.388 85.6292 118.951 87.6908 115.952 89.1433C113.001 90.5958 109.674 91.3221 105.972 91.3221Z" fill="#D93333"/>
<path d="M147.766 91.3221C142.612 91.3221 138.536 89.9399 135.537 87.1754C132.538 84.3641 131.039 80.6157 131.039 75.9303C131.039 74.712 131.086 73.7984 131.18 73.1893L132.937 58.9922C133.358 55.4313 134.506 52.292 136.38 49.5744C138.301 46.8568 140.761 44.7484 143.76 43.249C146.806 41.7497 150.203 41 153.951 41C159.152 41 163.252 42.3119 166.25 44.9358C169.296 47.5597 170.819 51.0972 170.819 55.5484C170.819 56.017 170.772 56.8135 170.678 57.938C170.678 58.1254 170.561 58.2894 170.327 58.43C170.139 58.5706 169.905 58.6643 169.624 58.7111L158.73 59.4139H158.519C157.957 59.4139 157.723 59.1562 157.817 58.6408C157.863 58.4066 157.887 58.0552 157.887 57.5866C157.887 55.9467 157.418 54.6582 156.481 53.7211C155.544 52.784 154.256 52.3154 152.616 52.3154C150.788 52.3154 149.242 52.9011 147.977 54.0725C146.759 55.197 146.033 56.7198 145.798 58.6408L143.971 73.7515C143.924 73.9858 143.901 74.3372 143.901 74.8057C143.901 76.3988 144.369 77.6639 145.306 78.601C146.29 79.5381 147.579 80.0066 149.172 80.0066C150.999 80.0066 152.522 79.4444 153.74 78.3199C154.958 77.1485 155.685 75.6257 155.919 73.7515C155.966 73.5172 156.083 73.3298 156.27 73.1893C156.458 73.0018 156.715 72.9316 157.043 72.9784L167.797 73.5407C168.453 73.6344 168.757 73.8687 168.71 74.2435C168.289 77.617 167.141 80.5923 165.266 83.1693C163.392 85.7463 160.932 87.7611 157.887 89.2136C154.888 90.6192 151.515 91.3221 147.766 91.3221Z" fill="#D93333"/>
<path d="M182.607 90.6192C182.326 90.6192 182.092 90.5255 181.905 90.3381C181.764 90.1507 181.717 89.893 181.764 89.565L183.662 74.1029C183.662 73.8218 183.638 73.6344 183.591 73.5407L173.541 42.8273C173.494 42.7336 173.471 42.5931 173.471 42.4056C173.471 41.8434 173.775 41.5623 174.384 41.5623H186.122C186.731 41.5623 187.106 41.8434 187.246 42.4056L191.604 59.0625C191.697 59.2499 191.791 59.3437 191.885 59.3437C192.025 59.3437 192.119 59.2499 192.166 59.0625L200.6 42.4056C200.881 41.8434 201.326 41.5623 201.935 41.5623H213.743C214.305 41.5623 214.586 41.7731 214.586 42.1948C214.586 42.3822 214.516 42.5931 214.375 42.8273L196.594 73.5407C196.453 73.8218 196.383 74.0092 196.383 74.1029L194.485 89.565C194.438 89.893 194.298 90.1507 194.063 90.3381C193.876 90.5255 193.642 90.6192 193.361 90.6192H182.607Z" fill="#D93333"/>
<path d="M247.187 65.1068C247 65.1537 246.906 65.2474 246.906 65.3879C246.906 65.4816 246.976 65.5753 247.117 65.6691C250.209 67.5901 251.755 70.5185 251.755 74.4543C251.755 74.9229 251.708 75.6726 251.615 76.7034C251.006 81.5294 248.921 85.0904 245.36 87.3863C241.846 89.6353 237.465 90.7598 232.217 90.7598H213.873C213.545 90.7598 213.288 90.6661 213.1 90.4787C212.96 90.2913 212.913 90.0336 212.96 89.7056L218.793 42.6165C218.84 42.2885 218.957 42.0308 219.144 41.8434C219.332 41.656 219.589 41.5623 219.917 41.5623H237.629C242.923 41.5623 246.906 42.4525 249.577 44.233C252.247 45.9666 253.583 48.8482 253.583 52.8777C253.583 54.0022 253.536 54.869 253.442 55.4781C252.88 59.9762 250.795 63.1858 247.187 65.1068ZM230.741 52.8777C230.507 52.8777 230.343 53.0183 230.249 53.2994L229.406 60.187C229.406 60.4682 229.523 60.6087 229.757 60.6087H235.309C237.09 60.6087 238.449 60.2339 239.386 59.4842C240.323 58.6877 240.791 57.5397 240.791 56.0404C240.791 55.0096 240.393 54.2365 239.596 53.7211C238.847 53.1588 237.722 52.8777 236.223 52.8777H230.741ZM233.622 79.4444C236.809 79.4444 238.589 78.0622 238.964 75.2977C239.245 72.6739 237.816 71.3619 234.677 71.3619H228.422C228.14 71.3619 228 71.5025 228 71.7836L227.086 79.0227C227.086 79.3038 227.203 79.4444 227.438 79.4444H233.622Z" fill="#D93333"/>
<path d="M323.515 90.6192C323.234 90.6192 323 90.5255 322.812 90.3381C322.672 90.1507 322.625 89.893 322.672 89.565L324.569 74.1029C324.569 73.8218 324.546 73.6344 324.499 73.5407L314.449 42.8273C314.402 42.7336 314.378 42.5931 314.378 42.4056C314.378 41.8434 314.683 41.5623 315.292 41.5623H327.029C327.638 41.5623 328.013 41.8434 328.154 42.4056L332.511 59.0625C332.605 59.2499 332.699 59.3437 332.792 59.3437C332.933 59.3437 333.027 59.2499 333.073 59.0625L341.507 42.4056C341.788 41.8434 342.234 41.5623 342.843 41.5623H354.65C355.212 41.5623 355.494 41.7731 355.494 42.1948C355.494 42.3822 355.423 42.5931 355.283 42.8273L337.501 73.5407C337.361 73.8218 337.29 74.0092 337.29 74.1029L335.393 89.565C335.346 89.893 335.205 90.1507 334.971 90.3381C334.784 90.5255 334.549 90.6192 334.268 90.6192H323.515Z" fill="#D93333"/>
<path d="M368.905 91.3221C363.563 91.3221 359.346 90.1038 356.254 87.6674C353.208 85.1841 351.686 81.834 351.686 77.617C351.686 77.1953 351.733 76.5159 351.826 75.5789L351.967 74.5949C352.014 74.2669 352.131 74.0092 352.318 73.8218C352.552 73.6344 352.81 73.5407 353.091 73.5407H363.704C364.032 73.5407 364.266 73.6344 364.407 73.8218C364.594 74.0092 364.664 74.2669 364.618 74.5949L364.547 75.0166C364.407 76.3285 364.922 77.4999 366.093 78.5307C367.312 79.5147 369.045 80.0066 371.294 80.0066C373.122 80.0066 374.434 79.5849 375.23 78.7416C376.027 77.8982 376.425 77.0314 376.425 76.1411C376.425 75.204 375.98 74.5012 375.09 74.0326C374.246 73.5641 372.747 73.0018 370.592 72.3459L368.694 71.7133C364.711 70.4482 361.361 68.7849 358.644 66.7233C355.973 64.6148 354.637 61.6161 354.637 57.7272C354.637 54.4473 355.504 51.5423 357.238 49.0122C359.018 46.482 361.408 44.5141 364.407 43.1085C367.452 41.7028 370.779 41 374.387 41C377.667 41 380.595 41.5857 383.172 42.7571C385.796 43.9284 387.834 45.6152 389.287 47.8174C390.739 49.9727 391.465 52.456 391.465 55.2673C391.465 55.689 391.419 56.3684 391.325 57.3055L391.255 57.938C391.208 58.266 391.067 58.5237 390.833 58.7111C390.645 58.8985 390.388 58.9922 390.06 58.9922H379.517C379.189 58.9922 378.932 58.8985 378.744 58.7111C378.604 58.5237 378.557 58.266 378.604 57.938V57.8677C378.744 56.9775 378.58 56.1107 378.112 55.2673C377.69 54.4239 376.987 53.7211 376.003 53.1588C375.066 52.5966 373.895 52.3154 372.489 52.3154C370.943 52.3154 369.701 52.6668 368.764 53.3697C367.827 54.0256 367.359 54.9393 367.359 56.1107C367.359 57.1883 367.968 58.102 369.186 58.8517C370.451 59.5545 372.817 60.4916 376.284 61.663C376.659 61.8035 378.088 62.2955 380.572 63.1389C383.102 63.9354 385.21 65.3176 386.897 67.2855C388.584 69.2066 389.427 71.5493 389.427 74.3138C389.427 74.6886 389.38 75.2977 389.287 76.1411C388.677 80.8734 386.522 84.5984 382.821 87.316C379.119 89.9867 374.481 91.3221 368.905 91.3221Z" fill="#D93333"/>
<path d="M279.516 90.7833C272.687 90.7833 267.23 89.5665 263.147 87.1329C259.134 84.6994 257.127 81.4252 257.127 77.3103C257.127 76.2484 257.198 75.4298 257.339 74.8546L260.401 59.0587C261.035 55.9172 262.619 53.1518 265.153 50.7625C267.758 48.3732 271.103 46.5148 275.186 45.1874C279.269 43.86 283.811 43.1964 288.809 43.1964C295.709 43.1964 301.165 44.4131 305.178 46.8467C309.262 49.2802 311.303 52.5323 311.303 56.603C311.303 57.6649 311.233 58.4835 311.092 59.0587L308.03 74.8546C307.466 77.9961 305.882 80.7836 303.277 83.2171C300.672 85.6064 297.328 87.4648 293.245 88.7922C289.161 90.1196 284.585 90.7833 279.516 90.7833ZM280.572 85.2746C285.289 85.2746 289.232 84.3454 292.4 82.4871C295.638 80.6287 297.575 78.1731 298.208 75.1201L301.271 58.9923C301.412 58.1959 301.482 57.6207 301.482 57.2667C301.482 54.6561 300.25 52.5766 297.786 51.0279C295.322 49.4793 291.977 48.705 287.753 48.705C283.177 48.705 279.269 49.6563 276.031 51.5589C272.792 53.4172 270.891 55.895 270.328 58.9923L267.16 75.1201C267.019 75.9165 266.949 76.4917 266.949 76.8457C266.949 79.412 268.181 81.4694 270.645 83.018C273.109 84.5224 276.418 85.2746 280.572 85.2746Z" fill="#D93333"/>
<path fill-rule="evenodd" clip-rule="evenodd" d="M262.015 89.0153L262.008 89.0109C257.448 86.2457 254.931 82.313 254.931 77.3102C254.931 76.2134 254.999 75.2096 255.192 74.3897L258.247 58.6325L258.248 58.6244C258.98 54.9983 260.812 51.8368 263.647 49.1643L263.658 49.154L263.669 49.1439C266.55 46.5014 270.188 44.5028 274.507 43.0987C278.842 41.6894 283.617 41 288.809 41C295.93 41 301.829 42.2497 306.31 44.9643C310.921 47.715 313.5 51.6188 313.5 56.603C313.5 57.6998 313.432 58.7036 313.239 59.5236L310.189 75.2581C309.529 78.9138 307.681 82.1086 304.777 84.8221L304.769 84.8289L304.762 84.8357C301.881 87.4782 298.243 89.4767 293.924 90.8809C289.586 92.2911 284.775 92.9796 279.516 92.9796C272.454 92.9796 266.563 91.7256 262.023 89.0196L262.015 89.0153ZM308.03 74.8546L311.092 59.0586C311.233 58.4834 311.303 57.6649 311.303 56.603C311.303 52.5323 309.262 49.2802 305.178 46.8466C301.165 44.4131 295.709 43.1963 288.809 43.1963C283.811 43.1963 279.27 43.86 275.186 45.1874C271.103 46.5148 267.758 48.3731 265.154 50.7624C262.619 53.1517 261.035 55.9171 260.401 59.0586L257.339 74.8546C257.198 75.4298 257.127 76.2483 257.127 77.3102C257.127 81.4251 259.134 84.6994 263.147 87.1329C267.23 89.5665 272.687 90.7832 279.516 90.7832C284.585 90.7832 289.161 90.1195 293.245 88.7922C297.328 87.4648 300.672 85.6064 303.277 83.2171C305.882 80.7836 307.466 77.996 308.03 74.8546ZM291.298 80.5873L291.307 80.5821C294.111 78.9729 295.57 77.0002 296.054 74.6909L299.11 58.5965C299.248 57.8164 299.286 57.4105 299.286 57.2666C299.286 55.5091 298.529 54.0891 296.617 52.8875C294.627 51.6369 291.74 50.9013 287.753 50.9013C283.483 50.9013 279.978 51.7873 277.143 53.4526L277.134 53.4583L277.124 53.4639C274.331 55.0663 272.915 57.0449 272.489 59.3852L272.486 59.4004L269.319 75.5225C269.183 76.2983 269.145 76.7022 269.145 76.8456C269.145 78.5406 269.885 79.9421 271.802 81.1508C273.801 82.3674 276.662 83.0782 280.572 83.0782C285.007 83.0782 288.54 82.2046 291.289 80.5926L291.298 80.5873ZM270.645 83.018C268.181 81.4694 266.949 79.4119 266.949 76.8456C266.949 76.4917 267.019 75.9165 267.16 75.12L270.328 58.9923C270.891 55.895 272.792 53.4172 276.031 51.5589C279.27 49.6563 283.177 48.705 287.753 48.705C291.977 48.705 295.322 49.4793 297.786 51.0279C300.25 52.5765 301.482 54.6561 301.482 57.2666C301.482 57.6206 301.412 58.1958 301.271 58.9923L298.208 75.12C297.575 78.173 295.638 80.6287 292.4 82.4871C289.232 84.3454 285.289 85.2746 280.572 85.2746C276.418 85.2746 273.109 84.5224 270.645 83.018Z" fill="#D93333"/>
</svg>
