<svg width="179" height="236" viewBox="0 0 179 236" fill="none" xmlns="http://www.w3.org/2000/svg">
<rect width="178.529" height="236" fill="#C4C4C4"/>
<path d="M61.02 113.018C61.7453 113.018 62.3853 113.167 62.94 113.466C63.5053 113.764 63.9373 114.186 64.236 114.73C64.5453 115.263 64.7 115.882 64.7 116.586C64.7 117.279 64.54 117.892 64.22 118.426C63.9107 118.959 63.468 119.37 62.892 119.658C62.316 119.946 61.6493 120.09 60.892 120.09H58.94C58.8867 120.09 58.86 120.116 58.86 120.17V124.026C58.86 124.079 58.8387 124.127 58.796 124.17C58.764 124.202 58.7213 124.218 58.668 124.218H56.396C56.3427 124.218 56.2947 124.202 56.252 124.17C56.22 124.127 56.204 124.079 56.204 124.026V113.21C56.204 113.156 56.22 113.114 56.252 113.082C56.2947 113.039 56.3427 113.018 56.396 113.018H61.02ZM60.588 117.978C61.0253 117.978 61.3773 117.855 61.644 117.61C61.9213 117.364 62.06 117.044 62.06 116.65C62.06 116.244 61.9213 115.919 61.644 115.674C61.3773 115.418 61.0253 115.29 60.588 115.29H58.94C58.8867 115.29 58.86 115.316 58.86 115.37V117.898C58.86 117.951 58.8867 117.978 58.94 117.978H60.588ZM71.8145 124.218C71.7078 124.218 71.6332 124.17 71.5905 124.074L69.7025 119.818C69.6812 119.775 69.6492 119.754 69.6065 119.754H68.5505C68.4972 119.754 68.4705 119.78 68.4705 119.834V124.026C68.4705 124.079 68.4492 124.127 68.4065 124.17C68.3745 124.202 68.3318 124.218 68.2785 124.218H66.0065C65.9532 124.218 65.9052 124.202 65.8625 124.17C65.8305 124.127 65.8145 124.079 65.8145 124.026V113.21C65.8145 113.156 65.8305 113.114 65.8625 113.082C65.9052 113.039 65.9532 113.018 66.0065 113.018H70.7585C71.4625 113.018 72.0812 113.162 72.6145 113.45C73.1478 113.738 73.5585 114.148 73.8465 114.682C74.1452 115.204 74.2945 115.807 74.2945 116.49C74.2945 117.204 74.1185 117.823 73.7665 118.346C73.4145 118.868 72.9238 119.247 72.2945 119.482C72.2412 119.503 72.2252 119.54 72.2465 119.594L74.3585 123.994C74.3798 124.036 74.3905 124.068 74.3905 124.09C74.3905 124.175 74.3318 124.218 74.2145 124.218H71.8145ZM68.5505 115.29C68.4972 115.29 68.4705 115.316 68.4705 115.37V117.642C68.4705 117.695 68.4972 117.722 68.5505 117.722H70.3265C70.7212 117.722 71.0412 117.615 71.2865 117.402C71.5318 117.178 71.6545 116.884 71.6545 116.522C71.6545 116.148 71.5318 115.85 71.2865 115.626C71.0412 115.402 70.7212 115.29 70.3265 115.29H68.5505ZM79.8186 124.394C78.9546 124.394 78.192 124.223 77.5306 123.882C76.88 123.53 76.3733 123.039 76.0106 122.41C75.648 121.78 75.4666 121.05 75.4666 120.218V117.018C75.4666 116.207 75.648 115.492 76.0106 114.874C76.3733 114.244 76.88 113.759 77.5306 113.418C78.192 113.066 78.9546 112.89 79.8186 112.89C80.6826 112.89 81.4453 113.066 82.1066 113.418C82.768 113.759 83.28 114.244 83.6426 114.874C84.0053 115.492 84.1866 116.207 84.1866 117.018V120.218C84.1866 121.05 84.0053 121.78 83.6426 122.41C83.28 123.039 82.768 123.53 82.1066 123.882C81.4453 124.223 80.6826 124.394 79.8186 124.394ZM79.8186 122.122C80.3306 122.122 80.7413 121.956 81.0506 121.626C81.3706 121.295 81.5306 120.852 81.5306 120.298V116.986C81.5306 116.442 81.3706 116.004 81.0506 115.674C80.7413 115.332 80.3306 115.162 79.8186 115.162C79.3173 115.162 78.9066 115.332 78.5866 115.674C78.2773 116.004 78.1226 116.442 78.1226 116.986V120.298C78.1226 120.852 78.2773 121.295 78.5866 121.626C78.9066 121.956 79.3173 122.122 79.8186 122.122ZM85.7721 124.218C85.7188 124.218 85.6708 124.202 85.6281 124.17C85.5961 124.127 85.5801 124.079 85.5801 124.026V113.21C85.5801 113.156 85.5961 113.114 85.6281 113.082C85.6708 113.039 85.7188 113.018 85.7721 113.018H89.8521C90.6841 113.018 91.4201 113.162 92.0601 113.45C92.7001 113.738 93.1961 114.148 93.5481 114.682C93.9001 115.215 94.0761 115.828 94.0761 116.522V120.714C94.0761 121.407 93.9001 122.02 93.5481 122.554C93.1961 123.087 92.7001 123.498 92.0601 123.786C91.4201 124.074 90.6841 124.218 89.8521 124.218H85.7721ZM88.2361 121.866C88.2361 121.919 88.2628 121.946 88.3161 121.946H89.9641C90.3908 121.946 90.7375 121.796 91.0041 121.498C91.2708 121.188 91.4095 120.778 91.4201 120.266V116.97C91.4201 116.458 91.2815 116.052 91.0041 115.754C90.7375 115.444 90.3855 115.29 89.9481 115.29H88.3161C88.2628 115.29 88.2361 115.316 88.2361 115.37V121.866ZM99.6788 124.346C98.8361 124.346 98.0894 124.186 97.4388 123.866C96.7988 123.535 96.2974 123.071 95.9348 122.474C95.5828 121.876 95.4068 121.188 95.4068 120.41V113.21C95.4068 113.156 95.4228 113.114 95.4548 113.082C95.4974 113.039 95.5454 113.018 95.5988 113.018H97.8708C97.9241 113.018 97.9668 113.039 97.9988 113.082C98.0414 113.114 98.0628 113.156 98.0628 113.21V120.41C98.0628 120.911 98.2068 121.316 98.4948 121.626C98.7934 121.924 99.1881 122.074 99.6788 122.074C100.159 122.074 100.543 121.924 100.831 121.626C101.129 121.316 101.279 120.911 101.279 120.41V113.21C101.279 113.156 101.295 113.114 101.327 113.082C101.369 113.039 101.417 113.018 101.471 113.018H103.743C103.796 113.018 103.839 113.039 103.871 113.082C103.913 113.114 103.935 113.156 103.935 113.21V120.41C103.935 121.188 103.759 121.876 103.407 122.474C103.055 123.071 102.553 123.535 101.903 123.866C101.263 124.186 100.521 124.346 99.6788 124.346ZM109.505 124.346C108.651 124.346 107.899 124.18 107.249 123.85C106.609 123.519 106.107 123.05 105.745 122.442C105.393 121.834 105.217 121.13 105.217 120.33V116.874C105.217 116.084 105.393 115.391 105.745 114.794C106.107 114.186 106.609 113.716 107.249 113.386C107.899 113.055 108.651 112.89 109.505 112.89C110.358 112.89 111.105 113.05 111.745 113.37C112.395 113.679 112.897 114.122 113.249 114.698C113.611 115.263 113.793 115.919 113.793 116.666C113.793 116.719 113.771 116.762 113.729 116.794C113.697 116.826 113.654 116.842 113.601 116.842L111.329 116.986C111.201 116.986 111.137 116.927 111.137 116.81C111.137 116.308 110.987 115.908 110.689 115.61C110.39 115.311 109.995 115.162 109.505 115.162C109.014 115.162 108.619 115.316 108.321 115.626C108.022 115.924 107.873 116.319 107.873 116.81V120.442C107.873 120.932 108.022 121.327 108.321 121.626C108.619 121.924 109.014 122.074 109.505 122.074C109.995 122.074 110.39 121.924 110.689 121.626C110.987 121.327 111.137 120.932 111.137 120.442C111.137 120.324 111.201 120.266 111.329 120.266L113.601 120.378C113.654 120.378 113.697 120.394 113.729 120.426C113.771 120.458 113.793 120.495 113.793 120.538C113.793 121.295 113.611 121.962 113.249 122.538C112.897 123.114 112.395 123.562 111.745 123.882C111.105 124.191 110.358 124.346 109.505 124.346ZM123.114 113.018C123.167 113.018 123.21 113.039 123.242 113.082C123.284 113.114 123.306 113.156 123.306 113.21V115.114C123.306 115.167 123.284 115.215 123.242 115.258C123.21 115.29 123.167 115.306 123.114 115.306H120.314C120.26 115.306 120.234 115.332 120.234 115.386V124.026C120.234 124.079 120.212 124.127 120.17 124.17C120.138 124.202 120.095 124.218 120.042 124.218H117.77C117.716 124.218 117.668 124.202 117.626 124.17C117.594 124.127 117.578 124.079 117.578 124.026V115.386C117.578 115.332 117.551 115.306 117.498 115.306H114.794C114.74 115.306 114.692 115.29 114.65 115.258C114.618 115.215 114.602 115.167 114.602 115.114V113.21C114.602 113.156 114.618 113.114 114.65 113.082C114.692 113.039 114.74 113.018 114.794 113.018H123.114ZM67.8503 143.218C67.7969 143.218 67.7489 143.202 67.7063 143.17C67.6743 143.127 67.6583 143.079 67.6583 143.026V132.21C67.6583 132.156 67.6743 132.114 67.7063 132.082C67.7489 132.039 67.7969 132.018 67.8503 132.018H70.1223C70.1756 132.018 70.2183 132.039 70.2503 132.082C70.2929 132.114 70.3143 132.156 70.3143 132.21V143.026C70.3143 143.079 70.2929 143.127 70.2503 143.17C70.2183 143.202 70.1756 143.218 70.1223 143.218H67.8503ZM79.0766 132.146C79.1193 132.06 79.194 132.018 79.3006 132.018H81.5566C81.61 132.018 81.6526 132.039 81.6846 132.082C81.7273 132.114 81.7486 132.156 81.7486 132.21V143.026C81.7486 143.079 81.7273 143.127 81.6846 143.17C81.6526 143.202 81.61 143.218 81.5566 143.218H79.2846C79.2313 143.218 79.1833 143.202 79.1406 143.17C79.1086 143.127 79.0926 143.079 79.0926 143.026V136.594C79.0926 136.551 79.082 136.53 79.0606 136.53C79.0393 136.53 79.018 136.546 78.9966 136.578L77.6206 138.786C77.578 138.871 77.5033 138.914 77.3966 138.914H76.2606C76.154 138.914 76.0793 138.871 76.0366 138.786L74.6446 136.562C74.6233 136.53 74.602 136.514 74.5806 136.514C74.5593 136.514 74.5486 136.535 74.5486 136.578V143.026C74.5486 143.079 74.5273 143.127 74.4846 143.17C74.4526 143.202 74.41 143.218 74.3566 143.218H72.0846C72.0313 143.218 71.9833 143.202 71.9406 143.17C71.9086 143.127 71.8926 143.079 71.8926 143.026V132.21C71.8926 132.156 71.9086 132.114 71.9406 132.082C71.9833 132.039 72.0313 132.018 72.0846 132.018H74.3406C74.4366 132.018 74.5113 132.06 74.5646 132.146L76.7886 135.634C76.8206 135.698 76.8526 135.698 76.8846 135.634L79.0766 132.146ZM90.6265 143.218C90.5092 143.218 90.4345 143.164 90.4025 143.058L89.9865 141.634C89.9652 141.591 89.9385 141.57 89.9065 141.57H86.2585C86.2265 141.57 86.1998 141.591 86.1785 141.634L85.7625 143.058C85.7305 143.164 85.6558 143.218 85.5385 143.218H83.0905C83.0265 143.218 82.9785 143.202 82.9465 143.17C82.9145 143.127 82.9092 143.068 82.9305 142.994L86.3545 132.178C86.3865 132.071 86.4558 132.018 86.5625 132.018H89.5865C89.6932 132.018 89.7625 132.071 89.7945 132.178L93.2345 142.994C93.2452 143.015 93.2505 143.042 93.2505 143.074C93.2505 143.17 93.1918 143.218 93.0745 143.218H90.6265ZM86.8185 139.426C86.8078 139.49 86.8292 139.522 86.8825 139.522H89.2665C89.3305 139.522 89.3518 139.49 89.3305 139.426L88.1145 135.314C88.1038 135.271 88.0878 135.255 88.0665 135.266C88.0452 135.266 88.0292 135.282 88.0185 135.314L86.8185 139.426ZM98.1296 143.346C97.2763 143.346 96.5243 143.175 95.8736 142.834C95.2336 142.492 94.7323 142.012 94.3696 141.394C94.0176 140.775 93.8416 140.06 93.8416 139.25V135.97C93.8416 135.159 94.0176 134.45 94.3696 133.842C94.7323 133.223 95.2336 132.743 95.8736 132.402C96.5243 132.06 97.2763 131.89 98.1296 131.89C98.9723 131.89 99.719 132.055 100.37 132.386C101.02 132.706 101.522 133.148 101.874 133.714C102.236 134.279 102.418 134.903 102.418 135.586V135.666C102.418 135.719 102.396 135.767 102.354 135.81C102.322 135.842 102.279 135.858 102.226 135.858H99.9536C99.9003 135.858 99.8523 135.842 99.8096 135.81C99.7776 135.767 99.7616 135.719 99.7616 135.666C99.7616 135.25 99.6123 134.898 99.3136 134.61C99.0256 134.311 98.631 134.162 98.1296 134.162C97.639 134.162 97.2443 134.322 96.9456 134.642C96.647 134.962 96.4976 135.378 96.4976 135.89V139.33C96.4976 139.842 96.663 140.258 96.9936 140.578C97.3243 140.898 97.7403 141.058 98.2416 141.058C98.711 141.058 99.0896 140.935 99.3776 140.69C99.6656 140.434 99.8096 140.082 99.8096 139.634V139.186C99.8096 139.132 99.783 139.106 99.7296 139.106H98.1296C98.0763 139.106 98.0283 139.09 97.9856 139.058C97.9536 139.015 97.9376 138.967 97.9376 138.914V137.154C97.9376 137.1 97.9536 137.058 97.9856 137.026C98.0283 136.983 98.0763 136.962 98.1296 136.962H102.226C102.279 136.962 102.322 136.983 102.354 137.026C102.396 137.058 102.418 137.1 102.418 137.154V139.33C102.418 140.13 102.236 140.834 101.874 141.442C101.522 142.05 101.02 142.519 100.37 142.85C99.7296 143.18 98.983 143.346 98.1296 143.346ZM111.767 134.098C111.767 134.151 111.745 134.199 111.703 134.242C111.671 134.274 111.628 134.29 111.575 134.29H106.551C106.497 134.29 106.471 134.316 106.471 134.37V136.338C106.471 136.391 106.497 136.418 106.551 136.418H109.767C109.82 136.418 109.863 136.439 109.895 136.482C109.937 136.514 109.959 136.556 109.959 136.61V138.482C109.959 138.535 109.937 138.583 109.895 138.626C109.863 138.658 109.82 138.674 109.767 138.674H106.551C106.497 138.674 106.471 138.7 106.471 138.754V140.866C106.471 140.919 106.497 140.946 106.551 140.946H111.575C111.628 140.946 111.671 140.967 111.703 141.01C111.745 141.042 111.767 141.084 111.767 141.138V143.026C111.767 143.079 111.745 143.127 111.703 143.17C111.671 143.202 111.628 143.218 111.575 143.218H104.007C103.953 143.218 103.905 143.202 103.863 143.17C103.831 143.127 103.815 143.079 103.815 143.026V132.21C103.815 132.156 103.831 132.114 103.863 132.082C103.905 132.039 103.953 132.018 104.007 132.018H111.575C111.628 132.018 111.671 132.039 111.703 132.082C111.745 132.114 111.767 132.156 111.767 132.21V134.098Z" fill="#696969"/>
</svg>
