<svg width="964" height="484" viewBox="0 0 964 484" fill="none" xmlns="http://www.w3.org/2000/svg">
<rect width="964" height="484" fill="white"/>
<rect width="964" height="484" fill="#C4C4C4"/>
<path d="M439.061 226C438.955 226 438.859 225.968 438.773 225.904C438.709 225.819 438.677 225.723 438.677 225.616V203.984C438.677 203.877 438.709 203.792 438.773 203.728C438.859 203.643 438.955 203.6 439.061 203.6H443.605C443.712 203.6 443.797 203.643 443.861 203.728C443.947 203.792 443.989 203.877 443.989 203.984V225.616C443.989 225.723 443.947 225.819 443.861 225.904C443.797 225.968 443.712 226 443.605 226H439.061ZM461.514 203.856C461.599 203.685 461.749 203.6 461.962 203.6H466.474C466.581 203.6 466.666 203.643 466.73 203.728C466.815 203.792 466.858 203.877 466.858 203.984V225.616C466.858 225.723 466.815 225.819 466.73 225.904C466.666 225.968 466.581 226 466.474 226H461.93C461.823 226 461.727 225.968 461.642 225.904C461.578 225.819 461.546 225.723 461.546 225.616V212.752C461.546 212.667 461.525 212.624 461.482 212.624C461.439 212.624 461.397 212.656 461.354 212.72L458.602 217.136C458.517 217.307 458.367 217.392 458.154 217.392H455.882C455.669 217.392 455.519 217.307 455.434 217.136L452.65 212.688C452.607 212.624 452.565 212.592 452.522 212.592C452.479 212.592 452.458 212.635 452.458 212.72V225.616C452.458 225.723 452.415 225.819 452.33 225.904C452.266 225.968 452.181 226 452.074 226H447.53C447.423 226 447.327 225.968 447.242 225.904C447.178 225.819 447.146 225.723 447.146 225.616V203.984C447.146 203.877 447.178 203.792 447.242 203.728C447.327 203.643 447.423 203.6 447.53 203.6H452.042C452.234 203.6 452.383 203.685 452.49 203.856L456.938 210.832C457.002 210.96 457.066 210.96 457.13 210.832L461.514 203.856ZM484.614 226C484.379 226 484.23 225.893 484.166 225.68L483.334 222.832C483.291 222.747 483.238 222.704 483.174 222.704H475.878C475.814 222.704 475.761 222.747 475.718 222.832L474.886 225.68C474.822 225.893 474.673 226 474.438 226H469.542C469.414 226 469.318 225.968 469.254 225.904C469.19 225.819 469.179 225.701 469.222 225.552L476.07 203.92C476.134 203.707 476.273 203.6 476.486 203.6H482.534C482.747 203.6 482.886 203.707 482.95 203.92L489.83 225.552C489.851 225.595 489.862 225.648 489.862 225.712C489.862 225.904 489.745 226 489.51 226H484.614ZM476.998 218.416C476.977 218.544 477.019 218.608 477.126 218.608H481.894C482.022 218.608 482.065 218.544 482.022 218.416L479.59 210.192C479.569 210.107 479.537 210.075 479.494 210.096C479.451 210.096 479.419 210.128 479.398 210.192L476.998 218.416ZM499.62 226.256C497.913 226.256 496.409 225.915 495.108 225.232C493.828 224.549 492.825 223.589 492.1 222.352C491.396 221.115 491.044 219.685 491.044 218.064V211.504C491.044 209.883 491.396 208.464 492.1 207.248C492.825 206.011 493.828 205.051 495.108 204.368C496.409 203.685 497.913 203.344 499.62 203.344C501.305 203.344 502.799 203.675 504.1 204.336C505.401 204.976 506.404 205.861 507.108 206.992C507.833 208.123 508.196 209.371 508.196 210.736V210.896C508.196 211.003 508.153 211.099 508.068 211.184C508.004 211.248 507.919 211.28 507.812 211.28H503.268C503.161 211.28 503.065 211.248 502.98 211.184C502.916 211.099 502.884 211.003 502.884 210.896C502.884 210.064 502.585 209.36 501.988 208.784C501.412 208.187 500.623 207.888 499.62 207.888C498.639 207.888 497.849 208.208 497.252 208.848C496.655 209.488 496.356 210.32 496.356 211.344V218.224C496.356 219.248 496.687 220.08 497.348 220.72C498.009 221.36 498.841 221.68 499.844 221.68C500.783 221.68 501.54 221.435 502.116 220.944C502.692 220.432 502.98 219.728 502.98 218.832V217.936C502.98 217.829 502.927 217.776 502.82 217.776H499.62C499.513 217.776 499.417 217.744 499.332 217.68C499.268 217.595 499.236 217.499 499.236 217.392V213.872C499.236 213.765 499.268 213.68 499.332 213.616C499.417 213.531 499.513 213.488 499.62 213.488H507.812C507.919 213.488 508.004 213.531 508.068 213.616C508.153 213.68 508.196 213.765 508.196 213.872V218.224C508.196 219.824 507.833 221.232 507.108 222.448C506.404 223.664 505.401 224.603 504.1 225.264C502.82 225.925 501.327 226.256 499.62 226.256ZM526.894 207.76C526.894 207.867 526.851 207.963 526.766 208.048C526.702 208.112 526.617 208.144 526.51 208.144H516.462C516.355 208.144 516.302 208.197 516.302 208.304V212.24C516.302 212.347 516.355 212.4 516.462 212.4H522.894C523.001 212.4 523.086 212.443 523.15 212.528C523.235 212.592 523.278 212.677 523.278 212.784V216.528C523.278 216.635 523.235 216.731 523.15 216.816C523.086 216.88 523.001 216.912 522.894 216.912H516.462C516.355 216.912 516.302 216.965 516.302 217.072V221.296C516.302 221.403 516.355 221.456 516.462 221.456H526.51C526.617 221.456 526.702 221.499 526.766 221.584C526.851 221.648 526.894 221.733 526.894 221.84V225.616C526.894 225.723 526.851 225.819 526.766 225.904C526.702 225.968 526.617 226 526.51 226H511.374C511.267 226 511.171 225.968 511.086 225.904C511.022 225.819 510.99 225.723 510.99 225.616V203.984C510.99 203.877 511.022 203.792 511.086 203.728C511.171 203.643 511.267 203.6 511.374 203.6H526.51C526.617 203.6 526.702 203.643 526.766 203.728C526.851 203.792 526.894 203.877 526.894 203.984V207.76ZM388.412 253.696C388.519 253.696 388.604 253.739 388.668 253.824C388.753 253.888 388.796 253.973 388.796 254.08V258.016C388.796 258.123 388.753 258.219 388.668 258.304C388.604 258.368 388.519 258.4 388.412 258.4H387.036C386.929 258.4 386.876 258.453 386.876 258.56V263.616C386.876 263.723 386.833 263.819 386.748 263.904C386.684 263.968 386.599 264 386.492 264H381.948C381.841 264 381.745 263.968 381.66 263.904C381.596 263.819 381.564 263.723 381.564 263.616V258.56C381.564 258.453 381.511 258.4 381.404 258.4H371.42C371.313 258.4 371.217 258.368 371.132 258.304C371.068 258.219 371.036 258.123 371.036 258.016V254.912C371.036 254.784 371.068 254.624 371.132 254.432L376.636 241.888C376.721 241.696 376.871 241.6 377.084 241.6H381.948C382.097 241.6 382.193 241.643 382.236 241.728C382.3 241.792 382.3 241.899 382.236 242.048L377.212 253.504C377.191 253.547 377.191 253.589 377.212 253.632C377.233 253.675 377.265 253.696 377.308 253.696H381.404C381.511 253.696 381.564 253.643 381.564 253.536V249.952C381.564 249.845 381.596 249.76 381.66 249.696C381.745 249.611 381.841 249.568 381.948 249.568H386.492C386.599 249.568 386.684 249.611 386.748 249.696C386.833 249.76 386.876 249.845 386.876 249.952V253.536C386.876 253.643 386.929 253.696 387.036 253.696H388.412ZM390.975 264C390.655 264 390.549 263.851 390.655 263.552L397.471 246.336C397.493 246.293 397.482 246.251 397.439 246.208C397.418 246.165 397.386 246.144 397.343 246.144H392.287C392.181 246.144 392.127 246.197 392.127 246.304V247.808C392.127 247.915 392.085 248.011 391.999 248.096C391.935 248.16 391.85 248.192 391.743 248.192H388.191C388.085 248.192 387.989 248.16 387.903 248.096C387.839 248.011 387.807 247.915 387.807 247.808L387.839 241.984C387.839 241.877 387.871 241.792 387.935 241.728C388.021 241.643 388.117 241.6 388.223 241.6H402.719C402.826 241.6 402.911 241.643 402.975 241.728C403.061 241.792 403.103 241.877 403.103 241.984V245.888C403.103 246.016 403.071 246.176 403.007 246.368L396.255 263.712C396.191 263.904 396.042 264 395.807 264H390.975ZM419.388 253.312C419.858 254.272 420.092 255.413 420.092 256.736C420.092 257.973 419.879 259.051 419.452 259.968C418.898 261.269 417.991 262.304 416.732 263.072C415.474 263.819 414.002 264.192 412.316 264.192C410.652 264.192 409.191 263.808 407.932 263.04C406.674 262.272 405.756 261.216 405.18 259.872C404.775 258.933 404.572 257.877 404.572 256.704V247.2C404.572 246.048 404.882 245.035 405.5 244.16C406.14 243.264 407.026 242.571 408.156 242.08C409.308 241.589 410.631 241.344 412.124 241.344C413.575 241.344 414.855 241.589 415.964 242.08C417.095 242.549 417.97 243.232 418.588 244.128C419.207 245.003 419.516 246.005 419.516 247.136V248.224C419.516 248.331 419.474 248.427 419.388 248.512C419.324 248.576 419.239 248.608 419.132 248.608H414.588C414.482 248.608 414.386 248.576 414.3 248.512C414.236 248.427 414.204 248.331 414.204 248.224V247.904C414.204 247.328 414.002 246.848 413.596 246.464C413.212 246.08 412.711 245.888 412.092 245.888C411.452 245.888 410.919 246.091 410.492 246.496C410.087 246.88 409.884 247.371 409.884 247.968V250.464C409.884 250.528 409.906 250.571 409.948 250.592C409.991 250.613 410.034 250.603 410.076 250.56C410.908 249.92 411.986 249.6 413.308 249.6C414.61 249.6 415.794 249.92 416.86 250.56C417.948 251.2 418.791 252.117 419.388 253.312ZM414.3 258.56C414.62 258.069 414.78 257.493 414.78 256.832C414.78 256.149 414.61 255.541 414.268 255.008C413.82 254.368 413.18 254.048 412.348 254.048C411.431 254.048 410.77 254.379 410.364 255.04C410.066 255.509 409.916 256.107 409.916 256.832C409.916 257.493 410.055 258.069 410.332 258.56C410.738 259.285 411.399 259.648 412.316 259.648C413.191 259.648 413.852 259.285 414.3 258.56ZM437.818 252.064C438.159 253.216 438.33 254.453 438.33 255.776C438.33 257.291 438.106 258.635 437.658 259.808C437.167 261.131 436.378 262.208 435.29 263.04C434.223 263.851 432.922 264.256 431.386 264.256C429.85 264.256 428.687 263.755 427.898 262.752C427.855 262.688 427.813 262.667 427.77 262.688C427.727 262.709 427.706 262.752 427.706 262.816V269.472C427.706 269.579 427.663 269.664 427.578 269.728C427.514 269.813 427.429 269.856 427.322 269.856H422.778C422.671 269.856 422.575 269.813 422.49 269.728C422.426 269.664 422.394 269.579 422.394 269.472V247.84C422.394 247.733 422.426 247.648 422.49 247.584C422.575 247.499 422.671 247.456 422.778 247.456H427.322C427.429 247.456 427.514 247.499 427.578 247.584C427.663 247.648 427.706 247.733 427.706 247.84V248.896C427.706 248.96 427.727 249.003 427.77 249.024C427.813 249.024 427.855 249.003 427.898 248.96C428.751 247.787 429.978 247.2 431.578 247.2C433.029 247.2 434.309 247.637 435.418 248.512C436.527 249.365 437.327 250.549 437.818 252.064ZM432.154 258.56C432.581 257.835 432.794 256.875 432.794 255.68C432.794 254.528 432.602 253.621 432.218 252.96C431.77 252.149 431.098 251.744 430.202 251.744C429.349 251.744 428.698 252.149 428.25 252.96C427.887 253.685 427.706 254.603 427.706 255.712C427.706 256.907 427.909 257.867 428.314 258.592C428.762 259.339 429.391 259.712 430.202 259.712C431.077 259.712 431.727 259.328 432.154 258.56ZM440.193 264C440.044 264 439.948 263.957 439.905 263.872C439.862 263.765 439.884 263.648 439.969 263.52L445.089 255.808C445.132 255.744 445.132 255.68 445.089 255.616L439.969 247.936C439.926 247.872 439.905 247.797 439.905 247.712C439.905 247.541 440.001 247.456 440.193 247.456H445.089C445.281 247.456 445.43 247.541 445.537 247.712L447.969 251.52C448.012 251.584 448.054 251.616 448.097 251.616C448.14 251.616 448.172 251.584 448.193 251.52L450.625 247.712C450.732 247.541 450.881 247.456 451.073 247.456H456.289C456.438 247.456 456.534 247.509 456.577 247.616C456.62 247.701 456.598 247.808 456.513 247.936L451.393 255.616C451.372 255.68 451.372 255.744 451.393 255.808L456.513 263.52C456.556 263.584 456.577 263.659 456.577 263.744C456.577 263.915 456.481 264 456.289 264H451.393C451.201 264 451.052 263.915 450.945 263.744L448.513 259.936C448.492 259.872 448.46 259.84 448.417 259.84C448.374 259.84 448.332 259.872 448.289 259.936L445.857 263.744C445.75 263.915 445.601 264 445.409 264H440.193ZM480.282 251.616C480.73 252.811 480.954 254.155 480.954 255.648C480.954 256.971 480.783 258.208 480.442 259.36C479.973 260.875 479.173 262.069 478.042 262.944C476.933 263.819 475.653 264.256 474.202 264.256C472.581 264.256 471.343 263.659 470.49 262.464C470.447 262.4 470.405 262.379 470.362 262.4C470.319 262.421 470.298 262.464 470.298 262.528V263.616C470.298 263.723 470.255 263.819 470.17 263.904C470.106 263.968 470.021 264 469.914 264H465.37C465.263 264 465.167 263.968 465.082 263.904C465.018 263.819 464.986 263.723 464.986 263.616V241.984C464.986 241.877 465.018 241.792 465.082 241.728C465.167 241.643 465.263 241.6 465.37 241.6H469.914C470.021 241.6 470.106 241.643 470.17 241.728C470.255 241.792 470.298 241.877 470.298 241.984V248.672C470.298 248.736 470.319 248.779 470.362 248.8C470.405 248.8 470.447 248.779 470.49 248.736C471.279 247.712 472.453 247.2 474.01 247.2C475.546 247.2 476.847 247.605 477.914 248.416C479.002 249.227 479.791 250.293 480.282 251.616ZM474.842 258.496C475.226 257.792 475.418 256.875 475.418 255.744C475.418 254.571 475.205 253.621 474.778 252.896C474.351 252.128 473.701 251.744 472.826 251.744C472.015 251.744 471.386 252.117 470.938 252.864C470.533 253.547 470.33 254.507 470.33 255.744C470.33 256.875 470.511 257.781 470.874 258.464C471.322 259.296 471.973 259.712 472.826 259.712C473.722 259.712 474.394 259.307 474.842 258.496ZM482.551 270.368C482.487 270.368 482.434 270.325 482.391 270.24C482.348 270.176 482.327 270.091 482.327 269.984V266.4C482.327 266.144 482.444 266.016 482.679 266.016C484.044 266.016 485.026 265.888 485.623 265.632C486.22 265.376 486.583 264.864 486.711 264.096C486.732 264.053 486.732 263.989 486.711 263.904L481.559 247.872C481.538 247.829 481.527 247.776 481.527 247.712C481.527 247.52 481.644 247.424 481.879 247.424H486.711C486.924 247.424 487.063 247.531 487.127 247.744L489.335 257.216C489.356 257.301 489.388 257.344 489.431 257.344C489.474 257.344 489.506 257.301 489.527 257.216L491.735 247.744C491.799 247.531 491.938 247.424 492.151 247.424H496.887C497.015 247.424 497.111 247.467 497.175 247.552C497.239 247.616 497.25 247.723 497.207 247.872L491.799 264.32C491.266 265.92 490.7 267.125 490.103 267.936C489.527 268.768 488.674 269.376 487.543 269.76C486.434 270.165 484.844 270.368 482.775 270.368H482.551ZM519.47 245.728C519.875 246.667 520.078 247.712 520.078 248.864V258.4C520.078 259.552 519.758 260.576 519.118 261.472C518.499 262.347 517.614 263.029 516.462 263.52C515.331 264.011 514.019 264.256 512.526 264.256C511.075 264.256 509.785 264.011 508.654 263.52C507.545 263.029 506.681 262.347 506.062 261.472C505.443 260.597 505.134 259.584 505.134 258.432V257.376C505.134 257.269 505.166 257.184 505.23 257.12C505.315 257.035 505.411 256.992 505.518 256.992H510.062C510.169 256.992 510.254 257.035 510.318 257.12C510.403 257.184 510.446 257.269 510.446 257.376V257.664C510.446 258.24 510.638 258.72 511.022 259.104C511.427 259.488 511.939 259.68 512.558 259.68C513.198 259.68 513.721 259.488 514.126 259.104C514.553 258.72 514.766 258.229 514.766 257.632V255.168C514.766 255.104 514.745 255.061 514.702 255.04C514.659 255.019 514.617 255.029 514.574 255.072C513.742 255.691 512.675 256 511.374 256C510.073 256 508.878 255.68 507.79 255.04C506.702 254.4 505.859 253.483 505.262 252.288C504.814 251.371 504.59 250.229 504.59 248.864C504.59 247.648 504.793 246.571 505.198 245.632C505.774 244.331 506.681 243.307 507.918 242.56C509.177 241.792 510.649 241.408 512.334 241.408C513.998 241.408 515.459 241.792 516.718 242.56C517.977 243.328 518.894 244.384 519.47 245.728ZM514.286 250.56C514.585 250.091 514.734 249.493 514.734 248.768C514.734 248.107 514.595 247.531 514.318 247.04C513.913 246.315 513.262 245.952 512.366 245.952C511.47 245.952 510.809 246.304 510.382 247.008C510.062 247.477 509.902 248.064 509.902 248.768C509.902 249.493 510.062 250.101 510.382 250.592C510.83 251.232 511.47 251.552 512.302 251.552C513.219 251.552 513.881 251.221 514.286 250.56ZM537.076 253.312C537.545 254.272 537.78 255.413 537.78 256.736C537.78 257.973 537.567 259.051 537.14 259.968C536.585 261.269 535.679 262.304 534.42 263.072C533.161 263.819 531.689 264.192 530.004 264.192C528.34 264.192 526.879 263.808 525.62 263.04C524.361 262.272 523.444 261.216 522.868 259.872C522.463 258.933 522.26 257.877 522.26 256.704V247.2C522.26 246.048 522.569 245.035 523.188 244.16C523.828 243.264 524.713 242.571 525.844 242.08C526.996 241.589 528.319 241.344 529.812 241.344C531.263 241.344 532.543 241.589 533.652 242.08C534.783 242.549 535.657 243.232 536.276 244.128C536.895 245.003 537.204 246.005 537.204 247.136V248.224C537.204 248.331 537.161 248.427 537.076 248.512C537.012 248.576 536.927 248.608 536.82 248.608H532.276C532.169 248.608 532.073 248.576 531.988 248.512C531.924 248.427 531.892 248.331 531.892 248.224V247.904C531.892 247.328 531.689 246.848 531.284 246.464C530.9 246.08 530.399 245.888 529.78 245.888C529.14 245.888 528.607 246.091 528.18 246.496C527.775 246.88 527.572 247.371 527.572 247.968V250.464C527.572 250.528 527.593 250.571 527.636 250.592C527.679 250.613 527.721 250.603 527.764 250.56C528.596 249.92 529.673 249.6 530.996 249.6C532.297 249.6 533.481 249.92 534.548 250.56C535.636 251.2 536.479 252.117 537.076 253.312ZM531.988 258.56C532.308 258.069 532.468 257.493 532.468 256.832C532.468 256.149 532.297 255.541 531.956 255.008C531.508 254.368 530.868 254.048 530.036 254.048C529.119 254.048 528.457 254.379 528.052 255.04C527.753 255.509 527.604 256.107 527.604 256.832C527.604 257.493 527.743 258.069 528.02 258.56C528.425 259.285 529.087 259.648 530.004 259.648C530.879 259.648 531.54 259.285 531.988 258.56ZM556.849 253.696C556.956 253.696 557.041 253.739 557.105 253.824C557.191 253.888 557.233 253.973 557.233 254.08V258.016C557.233 258.123 557.191 258.219 557.105 258.304C557.041 258.368 556.956 258.4 556.849 258.4H555.473C555.367 258.4 555.313 258.453 555.313 258.56V263.616C555.313 263.723 555.271 263.819 555.185 263.904C555.121 263.968 555.036 264 554.929 264H550.385C550.279 264 550.183 263.968 550.097 263.904C550.033 263.819 550.001 263.723 550.001 263.616V258.56C550.001 258.453 549.948 258.4 549.841 258.4H539.857C539.751 258.4 539.655 258.368 539.569 258.304C539.505 258.219 539.473 258.123 539.473 258.016V254.912C539.473 254.784 539.505 254.624 539.569 254.432L545.073 241.888C545.159 241.696 545.308 241.6 545.521 241.6H550.385C550.535 241.6 550.631 241.643 550.673 241.728C550.737 241.792 550.737 241.899 550.673 242.048L545.649 253.504C545.628 253.547 545.628 253.589 545.649 253.632C545.671 253.675 545.703 253.696 545.745 253.696H549.841C549.948 253.696 550.001 253.643 550.001 253.536V249.952C550.001 249.845 550.033 249.76 550.097 249.696C550.183 249.611 550.279 249.568 550.385 249.568H554.929C555.036 249.568 555.121 249.611 555.185 249.696C555.271 249.76 555.313 249.845 555.313 249.952V253.536C555.313 253.643 555.367 253.696 555.473 253.696H556.849ZM575.474 252.064C575.815 253.216 575.986 254.453 575.986 255.776C575.986 257.291 575.762 258.635 575.314 259.808C574.823 261.131 574.034 262.208 572.946 263.04C571.879 263.851 570.578 264.256 569.042 264.256C567.506 264.256 566.343 263.755 565.554 262.752C565.511 262.688 565.469 262.667 565.426 262.688C565.383 262.709 565.362 262.752 565.362 262.816V269.472C565.362 269.579 565.319 269.664 565.234 269.728C565.17 269.813 565.085 269.856 564.978 269.856H560.434C560.327 269.856 560.231 269.813 560.146 269.728C560.082 269.664 560.05 269.579 560.05 269.472V247.84C560.05 247.733 560.082 247.648 560.146 247.584C560.231 247.499 560.327 247.456 560.434 247.456H564.978C565.085 247.456 565.17 247.499 565.234 247.584C565.319 247.648 565.362 247.733 565.362 247.84V248.896C565.362 248.96 565.383 249.003 565.426 249.024C565.469 249.024 565.511 249.003 565.554 248.96C566.407 247.787 567.634 247.2 569.234 247.2C570.685 247.2 571.965 247.637 573.074 248.512C574.183 249.365 574.983 250.549 575.474 252.064ZM569.81 258.56C570.237 257.835 570.45 256.875 570.45 255.68C570.45 254.528 570.258 253.621 569.874 252.96C569.426 252.149 568.754 251.744 567.858 251.744C567.005 251.744 566.354 252.149 565.906 252.96C565.543 253.685 565.362 254.603 565.362 255.712C565.362 256.907 565.565 257.867 565.97 258.592C566.418 259.339 567.047 259.712 567.858 259.712C568.733 259.712 569.383 259.328 569.81 258.56ZM577.849 264C577.7 264 577.604 263.957 577.561 263.872C577.518 263.765 577.54 263.648 577.625 263.52L582.745 255.808C582.788 255.744 582.788 255.68 582.745 255.616L577.625 247.936C577.582 247.872 577.561 247.797 577.561 247.712C577.561 247.541 577.657 247.456 577.849 247.456H582.745C582.937 247.456 583.086 247.541 583.193 247.712L585.625 251.52C585.668 251.584 585.71 251.616 585.753 251.616C585.796 251.616 585.828 251.584 585.849 251.52L588.281 247.712C588.388 247.541 588.537 247.456 588.729 247.456H593.945C594.094 247.456 594.19 247.509 594.233 247.616C594.276 247.701 594.254 247.808 594.169 247.936L589.049 255.616C589.028 255.68 589.028 255.744 589.049 255.808L594.169 263.52C594.212 263.584 594.233 263.659 594.233 263.744C594.233 263.915 594.137 264 593.945 264H589.049C588.857 264 588.708 263.915 588.601 263.744L586.169 259.936C586.148 259.872 586.116 259.84 586.073 259.84C586.03 259.84 585.988 259.872 585.945 259.936L583.513 263.744C583.406 263.915 583.257 264 583.065 264H577.849Z" fill="#7E7E7E"/>
</svg>
