<svg width="1440" height="590" viewBox="0 0 1440 590" fill="none" xmlns="http://www.w3.org/2000/svg">
<rect width="1440" height="590" fill="white"/>
<rect width="1440" height="590" fill="#B0B0B0"/>
<path d="M676.561 289C676.455 289 676.359 288.968 676.273 288.904C676.209 288.819 676.177 288.723 676.177 288.616V266.984C676.177 266.877 676.209 266.792 676.273 266.728C676.359 266.643 676.455 266.6 676.561 266.6H681.105C681.212 266.6 681.297 266.643 681.361 266.728C681.447 266.792 681.489 266.877 681.489 266.984V288.616C681.489 288.723 681.447 288.819 681.361 288.904C681.297 288.968 681.212 289 681.105 289H676.561ZM699.014 266.856C699.099 266.685 699.249 266.6 699.462 266.6H703.974C704.081 266.6 704.166 266.643 704.23 266.728C704.315 266.792 704.358 266.877 704.358 266.984V288.616C704.358 288.723 704.315 288.819 704.23 288.904C704.166 288.968 704.081 289 703.974 289H699.43C699.323 289 699.227 288.968 699.142 288.904C699.078 288.819 699.046 288.723 699.046 288.616V275.752C699.046 275.667 699.025 275.624 698.982 275.624C698.939 275.624 698.897 275.656 698.854 275.72L696.102 280.136C696.017 280.307 695.867 280.392 695.654 280.392H693.382C693.169 280.392 693.019 280.307 692.934 280.136L690.15 275.688C690.107 275.624 690.065 275.592 690.022 275.592C689.979 275.592 689.958 275.635 689.958 275.72V288.616C689.958 288.723 689.915 288.819 689.83 288.904C689.766 288.968 689.681 289 689.574 289H685.03C684.923 289 684.827 288.968 684.742 288.904C684.678 288.819 684.646 288.723 684.646 288.616V266.984C684.646 266.877 684.678 266.792 684.742 266.728C684.827 266.643 684.923 266.6 685.03 266.6H689.542C689.734 266.6 689.883 266.685 689.99 266.856L694.438 273.832C694.502 273.96 694.566 273.96 694.63 273.832L699.014 266.856ZM722.114 289C721.879 289 721.73 288.893 721.666 288.68L720.834 285.832C720.791 285.747 720.738 285.704 720.674 285.704H713.378C713.314 285.704 713.261 285.747 713.218 285.832L712.386 288.68C712.322 288.893 712.173 289 711.938 289H707.042C706.914 289 706.818 288.968 706.754 288.904C706.69 288.819 706.679 288.701 706.722 288.552L713.57 266.92C713.634 266.707 713.773 266.6 713.986 266.6H720.034C720.247 266.6 720.386 266.707 720.45 266.92L727.33 288.552C727.351 288.595 727.362 288.648 727.362 288.712C727.362 288.904 727.245 289 727.01 289H722.114ZM714.498 281.416C714.477 281.544 714.519 281.608 714.626 281.608H719.394C719.522 281.608 719.565 281.544 719.522 281.416L717.09 273.192C717.069 273.107 717.037 273.075 716.994 273.096C716.951 273.096 716.919 273.128 716.898 273.192L714.498 281.416ZM737.12 289.256C735.413 289.256 733.909 288.915 732.608 288.232C731.328 287.549 730.325 286.589 729.6 285.352C728.896 284.115 728.544 282.685 728.544 281.064V274.504C728.544 272.883 728.896 271.464 729.6 270.248C730.325 269.011 731.328 268.051 732.608 267.368C733.909 266.685 735.413 266.344 737.12 266.344C738.805 266.344 740.299 266.675 741.6 267.336C742.901 267.976 743.904 268.861 744.608 269.992C745.333 271.123 745.696 272.371 745.696 273.736V273.896C745.696 274.003 745.653 274.099 745.568 274.184C745.504 274.248 745.419 274.28 745.312 274.28H740.768C740.661 274.28 740.565 274.248 740.48 274.184C740.416 274.099 740.384 274.003 740.384 273.896C740.384 273.064 740.085 272.36 739.488 271.784C738.912 271.187 738.123 270.888 737.12 270.888C736.139 270.888 735.349 271.208 734.752 271.848C734.155 272.488 733.856 273.32 733.856 274.344V281.224C733.856 282.248 734.187 283.08 734.848 283.72C735.509 284.36 736.341 284.68 737.344 284.68C738.283 284.68 739.04 284.435 739.616 283.944C740.192 283.432 740.48 282.728 740.48 281.832V280.936C740.48 280.829 740.427 280.776 740.32 280.776H737.12C737.013 280.776 736.917 280.744 736.832 280.68C736.768 280.595 736.736 280.499 736.736 280.392V276.872C736.736 276.765 736.768 276.68 736.832 276.616C736.917 276.531 737.013 276.488 737.12 276.488H745.312C745.419 276.488 745.504 276.531 745.568 276.616C745.653 276.68 745.696 276.765 745.696 276.872V281.224C745.696 282.824 745.333 284.232 744.608 285.448C743.904 286.664 742.901 287.603 741.6 288.264C740.32 288.925 738.827 289.256 737.12 289.256ZM764.394 270.76C764.394 270.867 764.351 270.963 764.266 271.048C764.202 271.112 764.117 271.144 764.01 271.144H753.962C753.855 271.144 753.802 271.197 753.802 271.304V275.24C753.802 275.347 753.855 275.4 753.962 275.4H760.394C760.501 275.4 760.586 275.443 760.65 275.528C760.735 275.592 760.778 275.677 760.778 275.784V279.528C760.778 279.635 760.735 279.731 760.65 279.816C760.586 279.88 760.501 279.912 760.394 279.912H753.962C753.855 279.912 753.802 279.965 753.802 280.072V284.296C753.802 284.403 753.855 284.456 753.962 284.456H764.01C764.117 284.456 764.202 284.499 764.266 284.584C764.351 284.648 764.394 284.733 764.394 284.84V288.616C764.394 288.723 764.351 288.819 764.266 288.904C764.202 288.968 764.117 289 764.01 289H748.874C748.767 289 748.671 288.968 748.586 288.904C748.522 288.819 748.49 288.723 748.49 288.616V266.984C748.49 266.877 748.522 266.792 748.586 266.728C748.671 266.643 748.767 266.6 748.874 266.6H764.01C764.117 266.6 764.202 266.643 764.266 266.728C764.351 266.792 764.394 266.877 764.394 266.984V270.76ZM603.543 304.696C603.713 304.632 603.873 304.6 604.023 304.6H608.695C608.801 304.6 608.887 304.643 608.951 304.728C609.036 304.792 609.079 304.877 609.079 304.984V326.616C609.079 326.723 609.036 326.819 608.951 326.904C608.887 326.968 608.801 327 608.695 327H604.151C604.044 327 603.948 326.968 603.863 326.904C603.799 326.819 603.766 326.723 603.766 326.616V309.688C603.766 309.645 603.745 309.603 603.703 309.56C603.66 309.517 603.617 309.507 603.575 309.528L600.439 310.264L600.311 310.296C600.119 310.296 600.023 310.179 600.023 309.944L599.959 306.584C599.959 306.371 600.055 306.221 600.247 306.136L603.543 304.696ZM628.678 316.696C628.784 316.696 628.87 316.739 628.934 316.824C629.019 316.888 629.062 316.973 629.062 317.08V321.016C629.062 321.123 629.019 321.219 628.934 321.304C628.87 321.368 628.784 321.4 628.678 321.4H627.302C627.195 321.4 627.142 321.453 627.142 321.56V326.616C627.142 326.723 627.099 326.819 627.014 326.904C626.95 326.968 626.864 327 626.758 327H622.214C622.107 327 622.011 326.968 621.926 326.904C621.862 326.819 621.83 326.723 621.83 326.616V321.56C621.83 321.453 621.776 321.4 621.67 321.4H611.686C611.579 321.4 611.483 321.368 611.398 321.304C611.334 321.219 611.302 321.123 611.302 321.016V317.912C611.302 317.784 611.334 317.624 611.398 317.432L616.902 304.888C616.987 304.696 617.136 304.6 617.35 304.6H622.214C622.363 304.6 622.459 304.643 622.502 304.728C622.566 304.792 622.566 304.899 622.502 305.048L617.478 316.504C617.456 316.547 617.456 316.589 617.478 316.632C617.499 316.675 617.531 316.696 617.574 316.696H621.67C621.776 316.696 621.83 316.643 621.83 316.536V312.952C621.83 312.845 621.862 312.76 621.926 312.696C622.011 312.611 622.107 312.568 622.214 312.568H626.758C626.864 312.568 626.95 312.611 627.014 312.696C627.099 312.76 627.142 312.845 627.142 312.952V316.536C627.142 316.643 627.195 316.696 627.302 316.696H628.678ZM648.646 316.696C648.753 316.696 648.838 316.739 648.902 316.824C648.988 316.888 649.03 316.973 649.03 317.08V321.016C649.03 321.123 648.988 321.219 648.902 321.304C648.838 321.368 648.753 321.4 648.646 321.4H647.27C647.164 321.4 647.11 321.453 647.11 321.56V326.616C647.11 326.723 647.068 326.819 646.982 326.904C646.918 326.968 646.833 327 646.726 327H642.182C642.076 327 641.98 326.968 641.894 326.904C641.83 326.819 641.798 326.723 641.798 326.616V321.56C641.798 321.453 641.745 321.4 641.638 321.4H631.654C631.548 321.4 631.452 321.368 631.366 321.304C631.302 321.219 631.27 321.123 631.27 321.016V317.912C631.27 317.784 631.302 317.624 631.366 317.432L636.87 304.888C636.956 304.696 637.105 304.6 637.318 304.6H642.182C642.332 304.6 642.428 304.643 642.47 304.728C642.534 304.792 642.534 304.899 642.47 305.048L637.446 316.504C637.425 316.547 637.425 316.589 637.446 316.632C637.468 316.675 637.5 316.696 637.542 316.696H641.638C641.745 316.696 641.798 316.643 641.798 316.536V312.952C641.798 312.845 641.83 312.76 641.894 312.696C641.98 312.611 642.076 312.568 642.182 312.568H646.726C646.833 312.568 646.918 312.611 646.982 312.696C647.068 312.76 647.11 312.845 647.11 312.952V316.536C647.11 316.643 647.164 316.696 647.27 316.696H648.646ZM659.495 327.384C657.042 327.384 655.111 326.701 653.703 325.336C652.295 323.949 651.591 322.072 651.591 319.704V311.896C651.591 309.549 652.295 307.704 653.703 306.36C655.111 305.016 657.042 304.344 659.495 304.344C661.948 304.344 663.89 305.027 665.319 306.392C666.748 307.736 667.463 309.571 667.463 311.896V319.704C667.463 322.072 666.748 323.949 665.319 325.336C663.89 326.701 661.948 327.384 659.495 327.384ZM659.495 322.808C660.306 322.808 660.946 322.563 661.415 322.072C661.906 321.56 662.151 320.867 662.151 319.992V311.704C662.151 310.829 661.906 310.147 661.415 309.656C660.946 309.144 660.306 308.888 659.495 308.888C658.706 308.888 658.076 309.144 657.607 309.656C657.138 310.147 656.903 310.829 656.903 311.704V319.992C656.903 320.867 657.127 321.56 657.575 322.072C658.044 322.563 658.684 322.808 659.495 322.808ZM685.552 315.064C685.894 316.216 686.064 317.453 686.064 318.776C686.064 320.291 685.84 321.635 685.392 322.808C684.902 324.131 684.112 325.208 683.024 326.04C681.958 326.851 680.656 327.256 679.12 327.256C677.584 327.256 676.422 326.755 675.632 325.752C675.59 325.688 675.547 325.667 675.504 325.688C675.462 325.709 675.44 325.752 675.44 325.816V332.472C675.44 332.579 675.398 332.664 675.312 332.728C675.248 332.813 675.163 332.856 675.056 332.856H670.512C670.406 332.856 670.31 332.813 670.224 332.728C670.16 332.664 670.128 332.579 670.128 332.472V310.84C670.128 310.733 670.16 310.648 670.224 310.584C670.31 310.499 670.406 310.456 670.512 310.456H675.056C675.163 310.456 675.248 310.499 675.312 310.584C675.398 310.648 675.44 310.733 675.44 310.84V311.896C675.44 311.96 675.462 312.003 675.504 312.024C675.547 312.024 675.59 312.003 675.632 311.96C676.486 310.787 677.712 310.2 679.312 310.2C680.763 310.2 682.043 310.637 683.152 311.512C684.262 312.365 685.062 313.549 685.552 315.064ZM679.888 321.56C680.315 320.835 680.528 319.875 680.528 318.68C680.528 317.528 680.336 316.621 679.952 315.96C679.504 315.149 678.832 314.744 677.936 314.744C677.083 314.744 676.432 315.149 675.984 315.96C675.622 316.685 675.44 317.603 675.44 318.712C675.44 319.907 675.643 320.867 676.048 321.592C676.496 322.339 677.126 322.712 677.936 322.712C678.811 322.712 679.462 322.328 679.888 321.56ZM687.927 327C687.778 327 687.682 326.957 687.639 326.872C687.597 326.765 687.618 326.648 687.703 326.52L692.823 318.808C692.866 318.744 692.866 318.68 692.823 318.616L687.703 310.936C687.661 310.872 687.639 310.797 687.639 310.712C687.639 310.541 687.735 310.456 687.927 310.456H692.823C693.015 310.456 693.165 310.541 693.271 310.712L695.703 314.52C695.746 314.584 695.789 314.616 695.831 314.616C695.874 314.616 695.906 314.584 695.927 314.52L698.359 310.712C698.466 310.541 698.615 310.456 698.807 310.456H704.023C704.173 310.456 704.269 310.509 704.311 310.616C704.354 310.701 704.333 310.808 704.247 310.936L699.127 318.616C699.106 318.68 699.106 318.744 699.127 318.808L704.247 326.52C704.29 326.584 704.311 326.659 704.311 326.744C704.311 326.915 704.215 327 704.023 327H699.127C698.935 327 698.786 326.915 698.679 326.744L696.247 322.936C696.226 322.872 696.194 322.84 696.151 322.84C696.109 322.84 696.066 322.872 696.023 322.936L693.591 326.744C693.485 326.915 693.335 327 693.143 327H687.927ZM728.017 314.616C728.465 315.811 728.689 317.155 728.689 318.648C728.689 319.971 728.518 321.208 728.177 322.36C727.707 323.875 726.907 325.069 725.777 325.944C724.667 326.819 723.387 327.256 721.937 327.256C720.315 327.256 719.078 326.659 718.225 325.464C718.182 325.4 718.139 325.379 718.097 325.4C718.054 325.421 718.033 325.464 718.033 325.528V326.616C718.033 326.723 717.99 326.819 717.905 326.904C717.841 326.968 717.755 327 717.649 327H713.105C712.998 327 712.902 326.968 712.817 326.904C712.753 326.819 712.721 326.723 712.721 326.616V304.984C712.721 304.877 712.753 304.792 712.817 304.728C712.902 304.643 712.998 304.6 713.105 304.6H717.649C717.755 304.6 717.841 304.643 717.905 304.728C717.99 304.792 718.033 304.877 718.033 304.984V311.672C718.033 311.736 718.054 311.779 718.097 311.8C718.139 311.8 718.182 311.779 718.225 311.736C719.014 310.712 720.187 310.2 721.745 310.2C723.281 310.2 724.582 310.605 725.649 311.416C726.737 312.227 727.526 313.293 728.017 314.616ZM722.577 321.496C722.961 320.792 723.153 319.875 723.153 318.744C723.153 317.571 722.939 316.621 722.513 315.896C722.086 315.128 721.435 314.744 720.561 314.744C719.75 314.744 719.121 315.117 718.673 315.864C718.267 316.547 718.065 317.507 718.065 318.744C718.065 319.875 718.246 320.781 718.609 321.464C719.057 322.296 719.707 322.712 720.561 322.712C721.457 322.712 722.129 322.307 722.577 321.496ZM730.285 333.368C730.221 333.368 730.168 333.325 730.125 333.24C730.083 333.176 730.061 333.091 730.061 332.984V329.4C730.061 329.144 730.179 329.016 730.413 329.016C731.779 329.016 732.76 328.888 733.357 328.632C733.955 328.376 734.317 327.864 734.445 327.096C734.467 327.053 734.467 326.989 734.445 326.904L729.293 310.872C729.272 310.829 729.261 310.776 729.261 310.712C729.261 310.52 729.379 310.424 729.613 310.424H734.445C734.659 310.424 734.797 310.531 734.861 310.744L737.069 320.216C737.091 320.301 737.123 320.344 737.165 320.344C737.208 320.344 737.24 320.301 737.261 320.216L739.469 310.744C739.533 310.531 739.672 310.424 739.885 310.424H744.621C744.749 310.424 744.845 310.467 744.909 310.552C744.973 310.616 744.984 310.723 744.941 310.872L739.533 327.32C739 328.92 738.435 330.125 737.837 330.936C737.261 331.768 736.408 332.376 735.277 332.76C734.168 333.165 732.579 333.368 730.509 333.368H730.285ZM767.941 316.664C768.303 317.688 768.485 318.712 768.485 319.736C768.485 320.803 768.293 321.827 767.909 322.808C767.354 324.131 766.426 325.197 765.125 326.008C763.845 326.797 762.362 327.192 760.677 327.192C758.991 327.192 757.509 326.808 756.229 326.04C754.949 325.251 754.021 324.184 753.445 322.84C753.21 322.243 753.039 321.603 752.933 320.92V320.856C752.933 320.621 753.061 320.504 753.317 320.504H757.989C758.181 320.504 758.33 320.611 758.437 320.824C758.458 320.952 758.533 321.123 758.661 321.336C759.066 322.211 759.717 322.648 760.613 322.648C761.061 322.648 761.466 322.541 761.829 322.328C762.191 322.093 762.479 321.763 762.693 321.336C762.927 320.909 763.045 320.376 763.045 319.736C763.045 319.139 762.938 318.627 762.725 318.2C762.575 317.816 762.319 317.517 761.957 317.304C761.615 317.069 761.221 316.952 760.773 316.952C760.282 316.952 759.823 317.069 759.397 317.304C758.97 317.539 758.682 317.837 758.533 318.2C758.469 318.413 758.33 318.52 758.117 318.52H753.349C753.242 318.52 753.146 318.488 753.061 318.424C752.997 318.339 752.965 318.243 752.965 318.136V304.984C752.965 304.877 752.997 304.792 753.061 304.728C753.146 304.643 753.242 304.6 753.349 304.6H767.365C767.471 304.6 767.557 304.643 767.621 304.728C767.706 304.792 767.749 304.877 767.749 304.984V308.76C767.749 308.867 767.706 308.963 767.621 309.048C767.557 309.112 767.471 309.144 767.365 309.144H758.437C758.33 309.144 758.277 309.197 758.277 309.304V313.048C758.277 313.112 758.298 313.155 758.341 313.176C758.383 313.197 758.426 313.187 758.469 313.144C759.343 312.632 760.335 312.376 761.445 312.376C762.959 312.376 764.293 312.76 765.445 313.528C766.597 314.296 767.429 315.341 767.941 316.664ZM784.705 308.728C785.11 309.667 785.312 310.712 785.312 311.864V321.4C785.312 322.552 784.993 323.576 784.353 324.472C783.734 325.347 782.849 326.029 781.697 326.52C780.566 327.011 779.254 327.256 777.76 327.256C776.31 327.256 775.019 327.011 773.889 326.52C772.779 326.029 771.915 325.347 771.297 324.472C770.678 323.597 770.368 322.584 770.368 321.432V320.376C770.368 320.269 770.401 320.184 770.465 320.12C770.55 320.035 770.646 319.992 770.753 319.992H775.297C775.403 319.992 775.489 320.035 775.553 320.12C775.638 320.184 775.681 320.269 775.681 320.376V320.664C775.681 321.24 775.873 321.72 776.257 322.104C776.662 322.488 777.174 322.68 777.793 322.68C778.433 322.68 778.955 322.488 779.361 322.104C779.787 321.72 780.001 321.229 780.001 320.632V318.168C780.001 318.104 779.979 318.061 779.937 318.04C779.894 318.019 779.851 318.029 779.809 318.072C778.977 318.691 777.91 319 776.609 319C775.307 319 774.113 318.68 773.025 318.04C771.937 317.4 771.094 316.483 770.497 315.288C770.049 314.371 769.825 313.229 769.825 311.864C769.825 310.648 770.027 309.571 770.433 308.632C771.009 307.331 771.915 306.307 773.153 305.56C774.411 304.792 775.883 304.408 777.569 304.408C779.233 304.408 780.694 304.792 781.953 305.56C783.211 306.328 784.129 307.384 784.705 308.728ZM779.521 313.56C779.819 313.091 779.969 312.493 779.969 311.768C779.969 311.107 779.83 310.531 779.553 310.04C779.147 309.315 778.497 308.952 777.601 308.952C776.705 308.952 776.043 309.304 775.617 310.008C775.297 310.477 775.137 311.064 775.137 311.768C775.137 312.493 775.297 313.101 775.617 313.592C776.065 314.232 776.705 314.552 777.536 314.552C778.454 314.552 779.115 314.221 779.521 313.56ZM795.526 327.384C793.073 327.384 791.142 326.701 789.734 325.336C788.326 323.949 787.622 322.072 787.622 319.704V311.896C787.622 309.549 788.326 307.704 789.734 306.36C791.142 305.016 793.073 304.344 795.526 304.344C797.98 304.344 799.921 305.027 801.35 306.392C802.78 307.736 803.494 309.571 803.494 311.896V319.704C803.494 322.072 802.78 323.949 801.35 325.336C799.921 326.701 797.98 327.384 795.526 327.384ZM795.526 322.808C796.337 322.808 796.977 322.563 797.446 322.072C797.937 321.56 798.182 320.867 798.182 319.992V311.704C798.182 310.829 797.937 310.147 797.446 309.656C796.977 309.144 796.337 308.888 795.526 308.888C794.737 308.888 794.108 309.144 793.638 309.656C793.169 310.147 792.934 310.829 792.934 311.704V319.992C792.934 320.867 793.158 321.56 793.606 322.072C794.076 322.563 794.716 322.808 795.526 322.808ZM821.583 315.064C821.925 316.216 822.096 317.453 822.096 318.776C822.096 320.291 821.872 321.635 821.424 322.808C820.933 324.131 820.144 325.208 819.056 326.04C817.989 326.851 816.688 327.256 815.152 327.256C813.616 327.256 812.453 326.755 811.664 325.752C811.621 325.688 811.578 325.667 811.536 325.688C811.493 325.709 811.472 325.752 811.472 325.816V332.472C811.472 332.579 811.429 332.664 811.344 332.728C811.28 332.813 811.194 332.856 811.088 332.856H806.544C806.437 332.856 806.341 332.813 806.256 332.728C806.192 332.664 806.16 332.579 806.16 332.472V310.84C806.16 310.733 806.192 310.648 806.256 310.584C806.341 310.499 806.437 310.456 806.544 310.456H811.088C811.194 310.456 811.28 310.499 811.344 310.584C811.429 310.648 811.472 310.733 811.472 310.84V311.896C811.472 311.96 811.493 312.003 811.536 312.024C811.578 312.024 811.621 312.003 811.664 311.96C812.517 310.787 813.744 310.2 815.344 310.2C816.794 310.2 818.074 310.637 819.184 311.512C820.293 312.365 821.093 313.549 821.583 315.064ZM815.92 321.56C816.346 320.835 816.56 319.875 816.56 318.68C816.56 317.528 816.368 316.621 815.984 315.96C815.536 315.149 814.864 314.744 813.968 314.744C813.114 314.744 812.464 315.149 812.016 315.96C811.653 316.685 811.472 317.603 811.472 318.712C811.472 319.907 811.674 320.867 812.08 321.592C812.528 322.339 813.157 322.712 813.968 322.712C814.842 322.712 815.493 322.328 815.92 321.56ZM823.959 327C823.809 327 823.713 326.957 823.671 326.872C823.628 326.765 823.649 326.648 823.735 326.52L828.855 318.808C828.897 318.744 828.897 318.68 828.855 318.616L823.735 310.936C823.692 310.872 823.671 310.797 823.671 310.712C823.671 310.541 823.767 310.456 823.959 310.456H828.855C829.047 310.456 829.196 310.541 829.303 310.712L831.735 314.52C831.777 314.584 831.82 314.616 831.863 314.616C831.905 314.616 831.937 314.584 831.959 314.52L834.391 310.712C834.497 310.541 834.647 310.456 834.839 310.456H840.055C840.204 310.456 840.3 310.509 840.343 310.616C840.385 310.701 840.364 310.808 840.279 310.936L835.159 318.616C835.137 318.68 835.137 318.744 835.159 318.808L840.279 326.52C840.321 326.584 840.343 326.659 840.343 326.744C840.343 326.915 840.247 327 840.055 327H835.159C834.967 327 834.817 326.915 834.711 326.744L832.279 322.936C832.257 322.872 832.225 322.84 832.183 322.84C832.14 322.84 832.097 322.872 832.055 322.936L829.623 326.744C829.516 326.915 829.367 327 829.175 327H823.959Z" fill="#D2D2D2"/>
</svg>
