<svg width="299" height="396" viewBox="0 0 299 396" fill="none" xmlns="http://www.w3.org/2000/svg">
<rect width="299" height="395.253" fill="#C4C4C4"/>
<path d="M95.6614 186.043C96.3867 186.043 97.0267 186.192 97.5814 186.491C98.1467 186.79 98.5787 187.211 98.8774 187.755C99.1867 188.288 99.3414 188.907 99.3414 189.611C99.3414 190.304 99.1814 190.918 98.8614 191.451C98.552 191.984 98.1094 192.395 97.5334 192.683C96.9574 192.971 96.2907 193.115 95.5334 193.115H93.5814C93.528 193.115 93.5014 193.142 93.5014 193.195V197.051C93.5014 197.104 93.48 197.152 93.4374 197.195C93.4054 197.227 93.3627 197.243 93.3094 197.243H91.0374C90.984 197.243 90.936 197.227 90.8934 197.195C90.8614 197.152 90.8454 197.104 90.8454 197.051V186.235C90.8454 186.182 90.8614 186.139 90.8934 186.107C90.936 186.064 90.984 186.043 91.0374 186.043H95.6614ZM95.2294 191.003C95.6667 191.003 96.0187 190.88 96.2854 190.635C96.5627 190.39 96.7014 190.07 96.7014 189.675C96.7014 189.27 96.5627 188.944 96.2854 188.699C96.0187 188.443 95.6667 188.315 95.2294 188.315H93.5814C93.528 188.315 93.5014 188.342 93.5014 188.395V190.923C93.5014 190.976 93.528 191.003 93.5814 191.003H95.2294ZM106.456 197.243C106.349 197.243 106.275 197.195 106.232 197.099L104.344 192.843C104.323 192.8 104.291 192.779 104.248 192.779H103.192C103.139 192.779 103.112 192.806 103.112 192.859V197.051C103.112 197.104 103.091 197.152 103.048 197.195C103.016 197.227 102.973 197.243 102.92 197.243H100.648C100.595 197.243 100.547 197.227 100.504 197.195C100.472 197.152 100.456 197.104 100.456 197.051V186.235C100.456 186.182 100.472 186.139 100.504 186.107C100.547 186.064 100.595 186.043 100.648 186.043H105.4C106.104 186.043 106.723 186.187 107.256 186.475C107.789 186.763 108.2 187.174 108.488 187.707C108.787 188.23 108.936 188.832 108.936 189.515C108.936 190.23 108.76 190.848 108.408 191.371C108.056 191.894 107.565 192.272 106.936 192.507C106.883 192.528 106.867 192.566 106.888 192.619L109 197.019C109.021 197.062 109.032 197.094 109.032 197.115C109.032 197.2 108.973 197.243 108.856 197.243H106.456ZM103.192 188.315C103.139 188.315 103.112 188.342 103.112 188.395V190.667C103.112 190.72 103.139 190.747 103.192 190.747H104.968C105.363 190.747 105.683 190.64 105.928 190.427C106.173 190.203 106.296 189.91 106.296 189.547C106.296 189.174 106.173 188.875 105.928 188.651C105.683 188.427 105.363 188.315 104.968 188.315H103.192ZM114.46 197.419C113.596 197.419 112.833 197.248 112.172 196.907C111.521 196.555 111.015 196.064 110.652 195.435C110.289 194.806 110.108 194.075 110.108 193.243V190.043C110.108 189.232 110.289 188.518 110.652 187.899C111.015 187.27 111.521 186.784 112.172 186.443C112.833 186.091 113.596 185.915 114.46 185.915C115.324 185.915 116.087 186.091 116.748 186.443C117.409 186.784 117.921 187.27 118.284 187.899C118.647 188.518 118.828 189.232 118.828 190.043V193.243C118.828 194.075 118.647 194.806 118.284 195.435C117.921 196.064 117.409 196.555 116.748 196.907C116.087 197.248 115.324 197.419 114.46 197.419ZM114.46 195.147C114.972 195.147 115.383 194.982 115.692 194.651C116.012 194.32 116.172 193.878 116.172 193.323V190.011C116.172 189.467 116.012 189.03 115.692 188.699C115.383 188.358 114.972 188.187 114.46 188.187C113.959 188.187 113.548 188.358 113.228 188.699C112.919 189.03 112.764 189.467 112.764 190.011V193.323C112.764 193.878 112.919 194.32 113.228 194.651C113.548 194.982 113.959 195.147 114.46 195.147ZM120.414 197.243C120.36 197.243 120.312 197.227 120.27 197.195C120.238 197.152 120.222 197.104 120.222 197.051V186.235C120.222 186.182 120.238 186.139 120.27 186.107C120.312 186.064 120.36 186.043 120.414 186.043H124.494C125.326 186.043 126.062 186.187 126.702 186.475C127.342 186.763 127.838 187.174 128.19 187.707C128.542 188.24 128.718 188.854 128.718 189.547V193.739C128.718 194.432 128.542 195.046 128.19 195.579C127.838 196.112 127.342 196.523 126.702 196.811C126.062 197.099 125.326 197.243 124.494 197.243H120.414ZM122.878 194.891C122.878 194.944 122.904 194.971 122.958 194.971H124.606C125.032 194.971 125.379 194.822 125.646 194.523C125.912 194.214 126.051 193.803 126.062 193.291V189.995C126.062 189.483 125.923 189.078 125.646 188.779C125.379 188.47 125.027 188.315 124.59 188.315H122.958C122.904 188.315 122.878 188.342 122.878 188.395V194.891ZM134.32 197.371C133.477 197.371 132.731 197.211 132.08 196.891C131.44 196.56 130.939 196.096 130.576 195.499C130.224 194.902 130.048 194.214 130.048 193.435V186.235C130.048 186.182 130.064 186.139 130.096 186.107C130.139 186.064 130.187 186.043 130.24 186.043H132.512C132.565 186.043 132.608 186.064 132.64 186.107C132.683 186.139 132.704 186.182 132.704 186.235V193.435C132.704 193.936 132.848 194.342 133.136 194.651C133.435 194.95 133.829 195.099 134.32 195.099C134.8 195.099 135.184 194.95 135.472 194.651C135.771 194.342 135.92 193.936 135.92 193.435V186.235C135.92 186.182 135.936 186.139 135.968 186.107C136.011 186.064 136.059 186.043 136.112 186.043H138.384C138.437 186.043 138.48 186.064 138.512 186.107C138.555 186.139 138.576 186.182 138.576 186.235V193.435C138.576 194.214 138.4 194.902 138.048 195.499C137.696 196.096 137.195 196.56 136.544 196.891C135.904 197.211 135.163 197.371 134.32 197.371ZM144.146 197.371C143.293 197.371 142.541 197.206 141.89 196.875C141.25 196.544 140.749 196.075 140.386 195.467C140.034 194.859 139.858 194.155 139.858 193.355V189.899C139.858 189.11 140.034 188.416 140.386 187.819C140.749 187.211 141.25 186.742 141.89 186.411C142.541 186.08 143.293 185.915 144.146 185.915C144.999 185.915 145.746 186.075 146.386 186.395C147.037 186.704 147.538 187.147 147.89 187.723C148.253 188.288 148.434 188.944 148.434 189.691C148.434 189.744 148.413 189.787 148.37 189.819C148.338 189.851 148.295 189.867 148.242 189.867L145.97 190.011C145.842 190.011 145.778 189.952 145.778 189.835C145.778 189.334 145.629 188.934 145.33 188.635C145.031 188.336 144.637 188.187 144.146 188.187C143.655 188.187 143.261 188.342 142.962 188.651C142.663 188.95 142.514 189.344 142.514 189.835V193.467C142.514 193.958 142.663 194.352 142.962 194.651C143.261 194.95 143.655 195.099 144.146 195.099C144.637 195.099 145.031 194.95 145.33 194.651C145.629 194.352 145.778 193.958 145.778 193.467C145.778 193.35 145.842 193.291 145.97 193.291L148.242 193.403C148.295 193.403 148.338 193.419 148.37 193.451C148.413 193.483 148.434 193.52 148.434 193.563C148.434 194.32 148.253 194.987 147.89 195.563C147.538 196.139 147.037 196.587 146.386 196.907C145.746 197.216 144.999 197.371 144.146 197.371ZM157.755 186.043C157.808 186.043 157.851 186.064 157.883 186.107C157.926 186.139 157.947 186.182 157.947 186.235V188.139C157.947 188.192 157.926 188.24 157.883 188.283C157.851 188.315 157.808 188.331 157.755 188.331H154.955C154.902 188.331 154.875 188.358 154.875 188.411V197.051C154.875 197.104 154.854 197.152 154.811 197.195C154.779 197.227 154.736 197.243 154.683 197.243H152.411C152.358 197.243 152.31 197.227 152.267 197.195C152.235 197.152 152.219 197.104 152.219 197.051V188.411C152.219 188.358 152.192 188.331 152.139 188.331H149.435C149.382 188.331 149.334 188.315 149.291 188.283C149.259 188.24 149.243 188.192 149.243 188.139V186.235C149.243 186.182 149.259 186.139 149.291 186.107C149.334 186.064 149.382 186.043 149.435 186.043H157.755ZM162.492 197.243C162.438 197.243 162.39 197.227 162.348 197.195C162.316 197.152 162.3 197.104 162.3 197.051V186.235C162.3 186.182 162.316 186.139 162.348 186.107C162.39 186.064 162.438 186.043 162.492 186.043H164.764C164.817 186.043 164.86 186.064 164.892 186.107C164.934 186.139 164.956 186.182 164.956 186.235V197.051C164.956 197.104 164.934 197.152 164.892 197.195C164.86 197.227 164.817 197.243 164.764 197.243H162.492ZM173.718 186.171C173.761 186.086 173.835 186.043 173.942 186.043H176.198C176.251 186.043 176.294 186.064 176.326 186.107C176.369 186.139 176.39 186.182 176.39 186.235V197.051C176.39 197.104 176.369 197.152 176.326 197.195C176.294 197.227 176.251 197.243 176.198 197.243H173.926C173.873 197.243 173.825 197.227 173.782 197.195C173.75 197.152 173.734 197.104 173.734 197.051V190.619C173.734 190.576 173.723 190.555 173.702 190.555C173.681 190.555 173.659 190.571 173.638 190.603L172.262 192.811C172.219 192.896 172.145 192.939 172.038 192.939H170.902C170.795 192.939 170.721 192.896 170.678 192.811L169.286 190.587C169.265 190.555 169.243 190.539 169.222 190.539C169.201 190.539 169.19 190.56 169.19 190.603V197.051C169.19 197.104 169.169 197.152 169.126 197.195C169.094 197.227 169.051 197.243 168.998 197.243H166.726C166.673 197.243 166.625 197.227 166.582 197.195C166.55 197.152 166.534 197.104 166.534 197.051V186.235C166.534 186.182 166.55 186.139 166.582 186.107C166.625 186.064 166.673 186.043 166.726 186.043H168.982C169.078 186.043 169.153 186.086 169.206 186.171L171.43 189.659C171.462 189.723 171.494 189.723 171.526 189.659L173.718 186.171ZM185.268 197.243C185.151 197.243 185.076 197.19 185.044 197.083L184.628 195.659C184.607 195.616 184.58 195.595 184.548 195.595H180.9C180.868 195.595 180.841 195.616 180.82 195.659L180.404 197.083C180.372 197.19 180.297 197.243 180.18 197.243H177.732C177.668 197.243 177.62 197.227 177.588 197.195C177.556 197.152 177.551 197.094 177.572 197.019L180.996 186.203C181.028 186.096 181.097 186.043 181.204 186.043H184.228C184.335 186.043 184.404 186.096 184.436 186.203L187.876 197.019C187.887 197.04 187.892 197.067 187.892 197.099C187.892 197.195 187.833 197.243 187.716 197.243H185.268ZM181.46 193.451C181.449 193.515 181.471 193.547 181.524 193.547H183.908C183.972 193.547 183.993 193.515 183.972 193.451L182.756 189.339C182.745 189.296 182.729 189.28 182.708 189.291C182.687 189.291 182.671 189.307 182.66 189.339L181.46 193.451ZM192.771 197.371C191.918 197.371 191.166 197.2 190.515 196.859C189.875 196.518 189.374 196.038 189.011 195.419C188.659 194.8 188.483 194.086 188.483 193.275V189.995C188.483 189.184 188.659 188.475 189.011 187.867C189.374 187.248 189.875 186.768 190.515 186.427C191.166 186.086 191.918 185.915 192.771 185.915C193.614 185.915 194.36 186.08 195.011 186.411C195.662 186.731 196.163 187.174 196.515 187.739C196.878 188.304 197.059 188.928 197.059 189.611V189.691C197.059 189.744 197.038 189.792 196.995 189.835C196.963 189.867 196.92 189.883 196.867 189.883H194.595C194.542 189.883 194.494 189.867 194.451 189.835C194.419 189.792 194.403 189.744 194.403 189.691C194.403 189.275 194.254 188.923 193.955 188.635C193.667 188.336 193.272 188.187 192.771 188.187C192.28 188.187 191.886 188.347 191.587 188.667C191.288 188.987 191.139 189.403 191.139 189.915V193.355C191.139 193.867 191.304 194.283 191.635 194.603C191.966 194.923 192.382 195.083 192.883 195.083C193.352 195.083 193.731 194.96 194.019 194.715C194.307 194.459 194.451 194.107 194.451 193.659V193.211C194.451 193.158 194.424 193.131 194.371 193.131H192.771C192.718 193.131 192.67 193.115 192.627 193.083C192.595 193.04 192.579 192.992 192.579 192.939V191.179C192.579 191.126 192.595 191.083 192.627 191.051C192.67 191.008 192.718 190.987 192.771 190.987H196.867C196.92 190.987 196.963 191.008 196.995 191.051C197.038 191.083 197.059 191.126 197.059 191.179V193.355C197.059 194.155 196.878 194.859 196.515 195.467C196.163 196.075 195.662 196.544 195.011 196.875C194.371 197.206 193.624 197.371 192.771 197.371ZM206.408 188.123C206.408 188.176 206.387 188.224 206.344 188.267C206.312 188.299 206.269 188.315 206.216 188.315H201.192C201.139 188.315 201.112 188.342 201.112 188.395V190.363C201.112 190.416 201.139 190.443 201.192 190.443H204.408C204.461 190.443 204.504 190.464 204.536 190.507C204.579 190.539 204.6 190.582 204.6 190.635V192.507C204.6 192.56 204.579 192.608 204.536 192.651C204.504 192.683 204.461 192.699 204.408 192.699H201.192C201.139 192.699 201.112 192.726 201.112 192.779V194.891C201.112 194.944 201.139 194.971 201.192 194.971H206.216C206.269 194.971 206.312 194.992 206.344 195.035C206.387 195.067 206.408 195.11 206.408 195.163V197.051C206.408 197.104 206.387 197.152 206.344 197.195C206.312 197.227 206.269 197.243 206.216 197.243H198.648C198.595 197.243 198.547 197.227 198.504 197.195C198.472 197.152 198.456 197.104 198.456 197.051V186.235C198.456 186.182 198.472 186.139 198.504 186.107C198.547 186.064 198.595 186.043 198.648 186.043H206.216C206.269 186.043 206.312 186.064 206.344 186.107C206.387 186.139 206.408 186.182 206.408 186.235V188.123Z" fill="#696969"/>
</svg>
