<svg width="292" height="108" viewBox="0 0 292 108" fill="none" xmlns="http://www.w3.org/2000/svg">
<path d="M10.026 74.732V77H1.17V74.516C1.17 73.856 1.266 73.292 1.458 72.824C1.662 72.356 1.944 71.96 2.304 71.636C2.676 71.312 3.12 71.048 3.636 70.844C4.152 70.628 4.734 70.448 5.382 70.304C5.862 70.196 6.252 70.076 6.552 69.944C6.864 69.8 7.11 69.644 7.29 69.476C7.47 69.296 7.59 69.104 7.65 68.9C7.722 68.684 7.758 68.444 7.758 68.18C7.758 67.676 7.572 67.256 7.2 66.92C6.84 66.584 6.336 66.416 5.688 66.416C5.004 66.416 4.458 66.626 4.05 67.046C3.642 67.454 3.438 68.024 3.438 68.756V69.548H1.062V68.54C1.062 67.952 1.164 67.394 1.368 66.866C1.584 66.326 1.884 65.858 2.268 65.462C2.664 65.054 3.144 64.736 3.708 64.508C4.272 64.268 4.908 64.148 5.616 64.148C6.372 64.148 7.032 64.262 7.596 64.49C8.16 64.706 8.628 64.994 9 65.354C9.384 65.714 9.666 66.134 9.846 66.614C10.038 67.082 10.134 67.568 10.134 68.072V68.288C10.134 69.344 9.834 70.22 9.234 70.916C8.646 71.612 7.68 72.116 6.336 72.428C5.772 72.56 5.304 72.698 4.932 72.842C4.572 72.974 4.29 73.124 4.086 73.292C3.882 73.46 3.738 73.646 3.654 73.85C3.582 74.042 3.546 74.264 3.546 74.516V74.732H10.026ZM15.0175 70.7C15.0175 70.292 15.1675 69.938 15.4675 69.638C15.7675 69.338 16.1215 69.188 16.5295 69.188C16.9375 69.188 17.2915 69.338 17.5915 69.638C17.8915 69.938 18.0415 70.292 18.0415 70.7C18.0415 71.108 17.8915 71.462 17.5915 71.762C17.2915 72.062 16.9375 72.212 16.5295 72.212C16.1215 72.212 15.7675 72.062 15.4675 71.762C15.1675 71.462 15.0175 71.108 15.0175 70.7ZM11.8855 69.296C11.8855 67.664 12.2935 66.398 13.1095 65.498C13.9375 64.598 15.0775 64.148 16.5295 64.148C17.9815 64.148 19.1155 64.598 19.9315 65.498C20.7595 66.398 21.1735 67.664 21.1735 69.296V72.104C21.1735 73.784 20.7595 75.062 19.9315 75.938C19.1155 76.814 17.9815 77.252 16.5295 77.252C15.0775 77.252 13.9375 76.814 13.1095 75.938C12.2935 75.062 11.8855 73.784 11.8855 72.104V69.296ZM16.5295 75.092C16.9615 75.092 17.3215 75.026 17.6095 74.894C17.8975 74.75 18.1315 74.552 18.3115 74.3C18.4915 74.048 18.6175 73.748 18.6895 73.4C18.7615 73.052 18.7975 72.668 18.7975 72.248V69.152C18.7975 68.756 18.7555 68.384 18.6715 68.036C18.5875 67.688 18.4555 67.388 18.2755 67.136C18.0955 66.884 17.8615 66.686 17.5735 66.542C17.2855 66.386 16.9375 66.308 16.5295 66.308C16.1215 66.308 15.7735 66.386 15.4855 66.542C15.1975 66.686 14.9635 66.884 14.7835 67.136C14.6035 67.388 14.4715 67.688 14.3875 68.036C14.3035 68.384 14.2615 68.756 14.2615 69.152V72.248C14.2615 72.668 14.2975 73.052 14.3695 73.4C14.4415 73.748 14.5675 74.048 14.7475 74.3C14.9275 74.552 15.1615 74.75 15.4495 74.894C15.7375 75.026 16.0975 75.092 16.5295 75.092ZM32.069 74.732V77H23.213V74.516C23.213 73.856 23.309 73.292 23.501 72.824C23.705 72.356 23.987 71.96 24.347 71.636C24.719 71.312 25.163 71.048 25.679 70.844C26.195 70.628 26.777 70.448 27.425 70.304C27.905 70.196 28.295 70.076 28.595 69.944C28.907 69.8 29.153 69.644 29.333 69.476C29.513 69.296 29.633 69.104 29.693 68.9C29.765 68.684 29.801 68.444 29.801 68.18C29.801 67.676 29.615 67.256 29.243 66.92C28.883 66.584 28.379 66.416 27.731 66.416C27.047 66.416 26.501 66.626 26.093 67.046C25.685 67.454 25.481 68.024 25.481 68.756V69.548H23.105V68.54C23.105 67.952 23.207 67.394 23.411 66.866C23.627 66.326 23.927 65.858 24.311 65.462C24.707 65.054 25.187 64.736 25.751 64.508C26.315 64.268 26.951 64.148 27.659 64.148C28.415 64.148 29.075 64.262 29.639 64.49C30.203 64.706 30.671 64.994 31.043 65.354C31.427 65.714 31.709 66.134 31.889 66.614C32.081 67.082 32.177 67.568 32.177 68.072V68.288C32.177 69.344 31.877 70.22 31.277 70.916C30.689 71.612 29.723 72.116 28.379 72.428C27.815 72.56 27.347 72.698 26.975 72.842C26.615 72.974 26.333 73.124 26.129 73.292C25.925 73.46 25.781 73.646 25.697 73.85C25.625 74.042 25.589 74.264 25.589 74.516V74.732H32.069ZM37.0605 70.7C37.0605 70.292 37.2105 69.938 37.5105 69.638C37.8105 69.338 38.1645 69.188 38.5725 69.188C38.9805 69.188 39.3345 69.338 39.6345 69.638C39.9345 69.938 40.0845 70.292 40.0845 70.7C40.0845 71.108 39.9345 71.462 39.6345 71.762C39.3345 72.062 38.9805 72.212 38.5725 72.212C38.1645 72.212 37.8105 72.062 37.5105 71.762C37.2105 71.462 37.0605 71.108 37.0605 70.7ZM33.9285 69.296C33.9285 67.664 34.3365 66.398 35.1525 65.498C35.9805 64.598 37.1205 64.148 38.5725 64.148C40.0245 64.148 41.1585 64.598 41.9745 65.498C42.8025 66.398 43.2165 67.664 43.2165 69.296V72.104C43.2165 73.784 42.8025 75.062 41.9745 75.938C41.1585 76.814 40.0245 77.252 38.5725 77.252C37.1205 77.252 35.9805 76.814 35.1525 75.938C34.3365 75.062 33.9285 73.784 33.9285 72.104V69.296ZM38.5725 75.092C39.0045 75.092 39.3645 75.026 39.6525 74.894C39.9405 74.75 40.1745 74.552 40.3545 74.3C40.5345 74.048 40.6605 73.748 40.7325 73.4C40.8045 73.052 40.8405 72.668 40.8405 72.248V69.152C40.8405 68.756 40.7985 68.384 40.7145 68.036C40.6305 67.688 40.4985 67.388 40.3185 67.136C40.1385 66.884 39.9045 66.686 39.6165 66.542C39.3285 66.386 38.9805 66.308 38.5725 66.308C38.1645 66.308 37.8165 66.386 37.5285 66.542C37.2405 66.686 37.0065 66.884 36.8265 67.136C36.6465 67.388 36.5145 67.688 36.4305 68.036C36.3465 68.384 36.3045 68.756 36.3045 69.152V72.248C36.3045 72.668 36.3405 73.052 36.4125 73.4C36.4845 73.748 36.6105 74.048 36.7905 74.3C36.9705 74.552 37.2045 74.75 37.4925 74.894C37.7805 75.026 38.1405 75.092 38.5725 75.092ZM62.7754 68.252C62.7754 67.748 62.5774 67.31 62.1814 66.938C61.7974 66.566 61.2514 66.38 60.5434 66.38C59.9434 66.38 59.4694 66.506 59.1214 66.758C58.7734 66.998 58.5994 67.328 58.5994 67.748C58.5994 67.964 58.6414 68.162 58.7254 68.342C58.8094 68.51 58.9534 68.666 59.1574 68.81C59.3734 68.942 59.6494 69.062 59.9854 69.17C60.3334 69.278 60.7714 69.38 61.2994 69.476C62.6194 69.716 63.6274 70.118 64.3234 70.682C65.0194 71.246 65.3674 72.08 65.3674 73.184V73.4C65.3674 73.988 65.2594 74.522 65.0434 75.002C64.8394 75.47 64.5394 75.872 64.1434 76.208C63.7474 76.544 63.2674 76.802 62.7034 76.982C62.1394 77.162 61.5034 77.252 60.7954 77.252C59.9674 77.252 59.2354 77.138 58.5994 76.91C57.9754 76.67 57.4534 76.346 57.0334 75.938C56.6134 75.518 56.2954 75.032 56.0794 74.48C55.8634 73.916 55.7554 73.304 55.7554 72.644V72.104H58.1314V72.536C58.1314 73.292 58.3474 73.898 58.7794 74.354C59.2234 74.798 59.9074 75.02 60.8314 75.02C61.5514 75.02 62.0854 74.864 62.4334 74.552C62.7814 74.24 62.9554 73.868 62.9554 73.436C62.9554 73.232 62.9194 73.04 62.8474 72.86C62.7754 72.668 62.6494 72.5 62.4694 72.356C62.2894 72.2 62.0434 72.062 61.7314 71.942C61.4194 71.822 61.0234 71.72 60.5434 71.636C59.9074 71.528 59.3254 71.39 58.7974 71.222C58.2694 71.042 57.8074 70.808 57.4114 70.52C57.0274 70.232 56.7274 69.872 56.5114 69.44C56.2954 69.008 56.1874 68.48 56.1874 67.856V67.748C56.1874 67.232 56.2894 66.758 56.4934 66.326C56.7094 65.882 57.0034 65.498 57.3754 65.174C57.7594 64.85 58.2154 64.598 58.7434 64.418C59.2834 64.238 59.8834 64.148 60.5434 64.148C61.2874 64.148 61.9474 64.256 62.5234 64.472C63.0994 64.676 63.5794 64.958 63.9634 65.318C64.3594 65.678 64.6534 66.092 64.8454 66.56C65.0494 67.028 65.1514 67.52 65.1514 68.036V68.684H62.7754V68.252ZM73.7789 74.3H69.4949L68.8829 77H66.3989L69.4049 64.4H73.8689L76.8749 77H74.3909L73.7789 74.3ZM69.9989 72.032H73.2569L71.7989 65.588H71.4749L69.9989 72.032ZM87.1944 64.4V72.644C87.1944 74.084 86.8104 75.212 86.0424 76.028C85.2864 76.844 84.1584 77.252 82.6584 77.252C81.1584 77.252 80.0244 76.844 79.2564 76.028C78.5004 75.212 78.1224 74.084 78.1224 72.644V64.4H80.4984V72.644C80.4984 73.388 80.6724 73.97 81.0204 74.39C81.3684 74.81 81.9144 75.02 82.6584 75.02C83.4024 75.02 83.9484 74.81 84.2964 74.39C84.6444 73.97 84.8184 73.388 84.8184 72.644V64.4H87.1944ZM93.7159 75.092C94.1719 75.092 94.5439 75.026 94.8319 74.894C95.1319 74.75 95.3599 74.564 95.5159 74.336C95.6839 74.096 95.7979 73.826 95.8579 73.526C95.9179 73.214 95.9479 72.896 95.9479 72.572V72.248H98.3239V72.572C98.3239 74.072 97.9279 75.23 97.1359 76.046C96.3559 76.85 95.2159 77.252 93.7159 77.252C92.2759 77.252 91.1359 76.814 90.2959 75.938C89.4559 75.062 89.0359 73.784 89.0359 72.104V69.296C89.0359 68.492 89.1439 67.772 89.3599 67.136C89.5759 66.488 89.8879 65.948 90.2959 65.516C90.7039 65.072 91.1959 64.736 91.7719 64.508C92.3479 64.268 92.9959 64.148 93.7159 64.148C94.4599 64.148 95.1199 64.256 95.6959 64.472C96.2719 64.688 96.7519 65 97.1359 65.408C97.5319 65.816 97.8259 66.308 98.0179 66.884C98.2219 67.46 98.3239 68.108 98.3239 68.828V69.152H95.9479V68.828C95.9479 68.528 95.9119 68.228 95.8399 67.928C95.7679 67.628 95.6479 67.358 95.4799 67.118C95.3119 66.878 95.0839 66.686 94.7959 66.542C94.5079 66.386 94.1479 66.308 93.7159 66.308C93.3199 66.308 92.9779 66.386 92.6899 66.542C92.4019 66.686 92.1619 66.89 91.9699 67.154C91.7779 67.406 91.6339 67.706 91.5379 68.054C91.4539 68.39 91.4119 68.744 91.4119 69.116V72.284C91.4119 72.692 91.4539 73.07 91.5379 73.418C91.6219 73.754 91.7539 74.048 91.9339 74.3C92.1139 74.552 92.3479 74.75 92.6359 74.894C92.9359 75.026 93.2959 75.092 93.7159 75.092ZM103.513 72.572H102.973L99.3554 64.4H101.947L104.539 70.412H104.863L107.455 64.4H110.047L106.429 72.572H105.889V77H103.513V72.572ZM111.043 74.732H112.231V66.668H111.043V64.4H116.569C117.169 64.4 117.697 64.484 118.153 64.652C118.621 64.82 119.011 65.048 119.323 65.336C119.647 65.624 119.887 65.972 120.043 66.38C120.211 66.776 120.295 67.208 120.295 67.676V67.892C120.295 68.612 120.091 69.188 119.683 69.62C119.287 70.052 118.783 70.352 118.171 70.52V70.844C118.783 71.012 119.287 71.318 119.683 71.762C120.091 72.194 120.295 72.77 120.295 73.49V73.706C120.295 74.174 120.211 74.612 120.043 75.02C119.887 75.416 119.647 75.764 119.323 76.064C119.011 76.352 118.621 76.58 118.153 76.748C117.697 76.916 117.169 77 116.569 77H111.043V74.732ZM114.607 74.732H116.335C116.839 74.732 117.247 74.624 117.559 74.408C117.871 74.192 118.027 73.832 118.027 73.328V73.22C118.027 72.716 117.871 72.356 117.559 72.14C117.247 71.924 116.839 71.816 116.335 71.816H114.607V74.732ZM114.607 69.548H116.335C116.839 69.548 117.247 69.446 117.559 69.242C117.871 69.026 118.027 68.666 118.027 68.162V68.054C118.027 67.55 117.871 67.196 117.559 66.992C117.247 66.776 116.839 66.668 116.335 66.668H114.607V69.548ZM122.1 69.296C122.1 67.664 122.508 66.398 123.324 65.498C124.152 64.598 125.292 64.148 126.744 64.148C128.196 64.148 129.33 64.598 130.146 65.498C130.974 66.398 131.388 67.664 131.388 69.296V72.104C131.388 73.784 130.974 75.062 130.146 75.938C129.33 76.814 128.196 77.252 126.744 77.252C125.292 77.252 124.152 76.814 123.324 75.938C122.508 75.062 122.1 73.784 122.1 72.104V69.296ZM126.744 75.092C127.176 75.092 127.536 75.026 127.824 74.894C128.112 74.75 128.346 74.552 128.526 74.3C128.706 74.048 128.832 73.748 128.904 73.4C128.976 73.052 129.012 72.668 129.012 72.248V69.152C129.012 68.756 128.97 68.384 128.886 68.036C128.802 67.688 128.67 67.388 128.49 67.136C128.31 66.884 128.076 66.686 127.788 66.542C127.5 66.386 127.152 66.308 126.744 66.308C126.336 66.308 125.988 66.386 125.7 66.542C125.412 66.686 125.178 66.884 124.998 67.136C124.818 67.388 124.686 67.688 124.602 68.036C124.518 68.384 124.476 68.756 124.476 69.152V72.248C124.476 72.668 124.512 73.052 124.584 73.4C124.656 73.748 124.782 74.048 124.962 74.3C125.142 74.552 125.376 74.75 125.664 74.894C125.952 75.026 126.312 75.092 126.744 75.092ZM136.578 72.572H136.038L132.42 64.4H135.012L137.604 70.412H137.928L140.52 64.4H143.112L139.494 72.572H138.954V77H136.578V72.572ZM150.947 68.252C150.947 67.748 150.749 67.31 150.353 66.938C149.969 66.566 149.423 66.38 148.715 66.38C148.115 66.38 147.641 66.506 147.293 66.758C146.945 66.998 146.771 67.328 146.771 67.748C146.771 67.964 146.813 68.162 146.897 68.342C146.981 68.51 147.125 68.666 147.329 68.81C147.545 68.942 147.821 69.062 148.157 69.17C148.505 69.278 148.943 69.38 149.471 69.476C150.791 69.716 151.799 70.118 152.495 70.682C153.191 71.246 153.539 72.08 153.539 73.184V73.4C153.539 73.988 153.431 74.522 153.215 75.002C153.011 75.47 152.711 75.872 152.315 76.208C151.919 76.544 151.439 76.802 150.875 76.982C150.311 77.162 149.675 77.252 148.967 77.252C148.139 77.252 147.407 77.138 146.771 76.91C146.147 76.67 145.625 76.346 145.205 75.938C144.785 75.518 144.467 75.032 144.251 74.48C144.035 73.916 143.927 73.304 143.927 72.644V72.104H146.303V72.536C146.303 73.292 146.519 73.898 146.951 74.354C147.395 74.798 148.079 75.02 149.003 75.02C149.723 75.02 150.257 74.864 150.605 74.552C150.953 74.24 151.127 73.868 151.127 73.436C151.127 73.232 151.091 73.04 151.019 72.86C150.947 72.668 150.821 72.5 150.641 72.356C150.461 72.2 150.215 72.062 149.903 71.942C149.591 71.822 149.195 71.72 148.715 71.636C148.079 71.528 147.497 71.39 146.969 71.222C146.441 71.042 145.979 70.808 145.583 70.52C145.199 70.232 144.899 69.872 144.683 69.44C144.467 69.008 144.359 68.48 144.359 67.856V67.748C144.359 67.232 144.461 66.758 144.665 66.326C144.881 65.882 145.175 65.498 145.547 65.174C145.931 64.85 146.387 64.598 146.915 64.418C147.455 64.238 148.055 64.148 148.715 64.148C149.459 64.148 150.119 64.256 150.695 64.472C151.271 64.676 151.751 64.958 152.135 65.318C152.531 65.678 152.825 66.092 153.017 66.56C153.221 67.028 153.323 67.52 153.323 68.036V68.684H150.947V68.252ZM175.762 77H171.622L171.046 67.424V65.696H170.614V67.424L170.038 77H165.898L165.466 64.4H167.626L167.914 73.976V75.596H168.346V73.976L168.922 64.4H172.738L173.314 73.976V75.596H173.746V73.976L174.034 64.4H176.194L175.762 77ZM177.208 69.296C177.208 67.664 177.616 66.398 178.432 65.498C179.26 64.598 180.4 64.148 181.852 64.148C183.304 64.148 184.438 64.598 185.254 65.498C186.082 66.398 186.496 67.664 186.496 69.296V72.104C186.496 73.784 186.082 75.062 185.254 75.938C184.438 76.814 183.304 77.252 181.852 77.252C180.4 77.252 179.26 76.814 178.432 75.938C177.616 75.062 177.208 73.784 177.208 72.104V69.296ZM181.852 75.092C182.284 75.092 182.644 75.026 182.932 74.894C183.22 74.75 183.454 74.552 183.634 74.3C183.814 74.048 183.94 73.748 184.012 73.4C184.084 73.052 184.12 72.668 184.12 72.248V69.152C184.12 68.756 184.078 68.384 183.994 68.036C183.91 67.688 183.778 67.388 183.598 67.136C183.418 66.884 183.184 66.686 182.896 66.542C182.608 66.386 182.26 66.308 181.852 66.308C181.444 66.308 181.096 66.386 180.808 66.542C180.52 66.686 180.286 66.884 180.106 67.136C179.926 67.388 179.794 67.688 179.71 68.036C179.626 68.384 179.584 68.756 179.584 69.152V72.248C179.584 72.668 179.62 73.052 179.692 73.4C179.764 73.748 179.89 74.048 180.07 74.3C180.25 74.552 180.484 74.75 180.772 74.894C181.06 75.026 181.42 75.092 181.852 75.092ZM197.139 77H194.763V73.22C194.763 72.932 194.685 72.698 194.529 72.518C194.385 72.338 194.139 72.248 193.791 72.248H191.055V77H188.679V64.4H193.503C194.151 64.4 194.721 64.49 195.213 64.67C195.705 64.85 196.113 65.102 196.437 65.426C196.773 65.738 197.025 66.104 197.193 66.524C197.373 66.944 197.463 67.394 197.463 67.874V68.306C197.463 68.822 197.325 69.308 197.049 69.764C196.773 70.208 196.347 70.55 195.771 70.79V71.114C196.191 71.162 196.521 71.324 196.761 71.6C197.013 71.876 197.139 72.224 197.139 72.644V77ZM191.055 69.98H193.323C193.899 69.98 194.337 69.848 194.637 69.584C194.937 69.308 195.087 68.924 195.087 68.432V68.216C195.087 67.796 194.937 67.436 194.637 67.136C194.337 66.824 193.899 66.668 193.323 66.668H191.055V69.98ZM199.863 64.4H202.239V74.732H207.963V77H199.863V64.4ZM210.236 64.4H214.808C216.368 64.4 217.526 64.766 218.282 65.498C219.038 66.218 219.416 67.34 219.416 68.864V72.536C219.416 74.06 219.038 75.188 218.282 75.92C217.526 76.64 216.368 77 214.808 77H210.236V74.714H211.424V66.668H210.236V64.4ZM214.808 74.732C215.636 74.732 216.212 74.54 216.536 74.156C216.872 73.76 217.04 73.148 217.04 72.32V68.864C217.04 68.144 216.872 67.598 216.536 67.226C216.212 66.854 215.636 66.668 214.808 66.668H213.8V74.732H214.808ZM232.747 64.4H241.171V66.668H238.147V74.732H241.171V77H232.747V74.732H235.771V66.668H232.747V64.4ZM249.691 75.812H250.015V64.4H252.391V77H247.747L246.271 65.588H245.947V77H243.571V64.4H248.215L249.691 75.812ZM259.038 75.092C259.494 75.092 259.866 75.026 260.154 74.894C260.454 74.75 260.682 74.564 260.838 74.336C261.006 74.096 261.12 73.826 261.18 73.526C261.24 73.214 261.27 72.896 261.27 72.572V72.248H263.646V72.572C263.646 74.072 263.25 75.23 262.458 76.046C261.678 76.85 260.538 77.252 259.038 77.252C257.598 77.252 256.458 76.814 255.618 75.938C254.778 75.062 254.358 73.784 254.358 72.104V69.296C254.358 68.492 254.466 67.772 254.682 67.136C254.898 66.488 255.21 65.948 255.618 65.516C256.026 65.072 256.518 64.736 257.094 64.508C257.67 64.268 258.318 64.148 259.038 64.148C259.782 64.148 260.442 64.256 261.018 64.472C261.594 64.688 262.074 65 262.458 65.408C262.854 65.816 263.148 66.308 263.34 66.884C263.544 67.46 263.646 68.108 263.646 68.828V69.152H261.27V68.828C261.27 68.528 261.234 68.228 261.162 67.928C261.09 67.628 260.97 67.358 260.802 67.118C260.634 66.878 260.406 66.686 260.118 66.542C259.83 66.386 259.47 66.308 259.038 66.308C258.642 66.308 258.3 66.386 258.012 66.542C257.724 66.686 257.484 66.89 257.292 67.154C257.1 67.406 256.956 67.706 256.86 68.054C256.776 68.39 256.734 68.744 256.734 69.116V72.284C256.734 72.692 256.776 73.07 256.86 73.418C256.944 73.754 257.076 74.048 257.256 74.3C257.436 74.552 257.67 74.75 257.958 74.894C258.258 75.026 258.618 75.092 259.038 75.092ZM271.734 75.542C271.734 75.782 271.686 76.01 271.59 76.226C271.506 76.43 271.386 76.61 271.23 76.766C271.074 76.91 270.888 77.024 270.672 77.108C270.468 77.204 270.252 77.252 270.024 77.252C269.784 77.252 269.562 77.204 269.358 77.108C269.154 77.024 268.974 76.91 268.818 76.766C268.662 76.61 268.536 76.43 268.44 76.226C268.356 76.01 268.314 75.782 268.314 75.542C268.314 75.302 268.356 75.08 268.44 74.876C268.536 74.66 268.662 74.48 268.818 74.336C268.974 74.18 269.154 74.06 269.358 73.976C269.562 73.88 269.784 73.832 270.024 73.832C270.252 73.832 270.468 73.88 270.672 73.976C270.888 74.06 271.074 74.18 271.23 74.336C271.386 74.48 271.506 74.66 271.59 74.876C271.686 75.08 271.734 75.302 271.734 75.542ZM7.65 101.3H3.366L2.754 104H0.27L3.276 91.4H7.74L10.746 104H8.262L7.65 101.3ZM3.87 99.032H7.128L5.67 92.588H5.346L3.87 99.032ZM12.3715 101.84H15.5035V93.56H12.4795V91.4H17.7715V101.84H20.6875V104H12.3715V101.84ZM23.393 101.84H26.525V93.56H23.501V91.4H28.793V101.84H31.709V104H23.393V101.84ZM53.8599 104H51.4839V100.22C51.4839 99.932 51.4059 99.698 51.2499 99.518C51.1059 99.338 50.8599 99.248 50.5119 99.248H47.7759V104H45.3999V91.4H50.2239C50.8719 91.4 51.4419 91.49 51.9339 91.67C52.4259 91.85 52.8339 92.102 53.1579 92.426C53.4939 92.738 53.7459 93.104 53.9139 93.524C54.0939 93.944 54.1839 94.394 54.1839 94.874V95.306C54.1839 95.822 54.0459 96.308 53.7699 96.764C53.4939 97.208 53.0679 97.55 52.4919 97.79V98.114C52.9119 98.162 53.2419 98.324 53.4819 98.6C53.7339 98.876 53.8599 99.224 53.8599 99.644V104ZM47.7759 96.98H50.0439C50.6199 96.98 51.0579 96.848 51.3579 96.584C51.6579 96.308 51.8079 95.924 51.8079 95.432V95.216C51.8079 94.796 51.6579 94.436 51.3579 94.136C51.0579 93.824 50.6199 93.668 50.0439 93.668H47.7759V96.98ZM56.6734 101.84H59.6974V97.232H56.8894V95.072H61.9654V101.84H64.5574V104H56.6734V101.84ZM62.5234 92.426C62.5234 92.666 62.4754 92.894 62.3794 93.11C62.2954 93.314 62.1754 93.494 62.0194 93.65C61.8634 93.794 61.6774 93.914 61.4614 94.01C61.2574 94.094 61.0414 94.136 60.8134 94.136C60.5734 94.136 60.3514 94.094 60.1474 94.01C59.9434 93.914 59.7634 93.794 59.6074 93.65C59.4514 93.494 59.3254 93.314 59.2294 93.11C59.1454 92.894 59.1034 92.666 59.1034 92.426C59.1034 92.186 59.1454 91.964 59.2294 91.76C59.3254 91.544 59.4514 91.364 59.6074 91.22C59.7634 91.064 59.9434 90.944 60.1474 90.86C60.3514 90.764 60.5734 90.716 60.8134 90.716C61.0414 90.716 61.2574 90.764 61.4614 90.86C61.6774 90.944 61.8634 91.064 62.0194 91.22C62.1754 91.364 62.2954 91.544 62.3794 91.76C62.4754 91.964 62.5234 92.186 62.5234 92.426ZM73.9049 102.704H73.5809C73.4849 102.908 73.3649 103.106 73.2209 103.298C73.0889 103.478 72.9089 103.64 72.6809 103.784C72.4649 103.928 72.2009 104.042 71.8889 104.126C71.5889 104.21 71.2229 104.252 70.7909 104.252C70.2389 104.252 69.7229 104.156 69.2429 103.964C68.7749 103.76 68.3609 103.466 68.0009 103.082C67.6529 102.686 67.3769 102.206 67.1729 101.642C66.9809 101.078 66.8849 100.43 66.8849 99.698V99.374C66.8849 98.654 66.9869 98.012 67.1909 97.448C67.4069 96.884 67.6949 96.41 68.0549 96.026C68.4269 95.63 68.8529 95.33 69.3329 95.126C69.8249 94.922 70.3409 94.82 70.8809 94.82C71.6009 94.82 72.1709 94.958 72.5909 95.234C73.0109 95.498 73.3409 95.876 73.5809 96.368H73.9049V95.072H76.1729V106.196C76.1729 106.604 76.0409 106.94 75.7769 107.204C75.5249 107.468 75.1949 107.6 74.7869 107.6H68.7749V105.44H73.4189C73.7429 105.44 73.9049 105.26 73.9049 104.9V102.704ZM71.5289 102.092C72.2369 102.092 72.8069 101.87 73.2389 101.426C73.6829 100.97 73.9049 100.376 73.9049 99.644V99.428C73.9049 98.696 73.6829 98.108 73.2389 97.664C72.8069 97.208 72.2369 96.98 71.5289 96.98C70.8209 96.98 70.2449 97.202 69.8009 97.646C69.3689 98.078 69.1529 98.672 69.1529 99.428V99.644C69.1529 100.4 69.3689 101 69.8009 101.444C70.2449 101.876 70.8209 102.092 71.5289 102.092ZM80.8584 104H78.5904V91.4H80.8584V96.512H81.1824C81.4104 95.972 81.7464 95.558 82.1904 95.27C82.6344 94.97 83.1804 94.82 83.8284 94.82C84.2724 94.82 84.6804 94.892 85.0524 95.036C85.4244 95.18 85.7484 95.396 86.0244 95.684C86.3004 95.972 86.5164 96.344 86.6724 96.8C86.8284 97.244 86.9064 97.772 86.9064 98.384V104H84.6384V98.924C84.6384 98.288 84.4824 97.79 84.1704 97.43C83.8704 97.058 83.4324 96.872 82.8564 96.872C82.1844 96.872 81.6804 97.1 81.3444 97.556C81.0204 98 80.8584 98.6 80.8584 99.356V104ZM89.3239 95.072H91.9699V91.4H94.2379V95.072H97.4599V97.232H94.2379V101.3C94.2379 101.66 94.3999 101.84 94.7239 101.84H97.1359V104H93.3559C92.9479 104 92.6119 103.868 92.3479 103.604C92.0959 103.34 91.9699 103.004 91.9699 102.596V97.232H89.3239V95.072ZM103.441 97.592C103.441 97.88 103.591 98.09 103.891 98.222C104.191 98.342 104.737 98.444 105.529 98.528C106.441 98.624 107.185 98.9 107.761 99.356C108.337 99.8 108.625 100.424 108.625 101.228V101.336C108.625 102.224 108.301 102.932 107.653 103.46C107.005 103.988 106.093 104.252 104.917 104.252C104.221 104.252 103.627 104.162 103.135 103.982C102.643 103.802 102.235 103.58 101.911 103.316C101.587 103.04 101.335 102.74 101.155 102.416C100.987 102.08 100.873 101.756 100.813 101.444L102.901 100.76C102.997 101.144 103.195 101.48 103.495 101.768C103.807 102.056 104.281 102.2 104.917 102.2C105.481 102.2 105.865 102.116 106.069 101.948C106.285 101.768 106.393 101.576 106.393 101.372C106.393 101.252 106.363 101.144 106.303 101.048C106.255 100.94 106.159 100.844 106.015 100.76C105.871 100.664 105.673 100.586 105.421 100.526C105.181 100.466 104.875 100.418 104.503 100.382C103.495 100.298 102.691 100.04 102.091 99.608C101.503 99.164 101.209 98.516 101.209 97.664V97.556C101.209 97.112 101.305 96.722 101.497 96.386C101.689 96.05 101.941 95.768 102.253 95.54C102.565 95.3 102.925 95.12 103.333 95C103.741 94.88 104.161 94.82 104.593 94.82C105.157 94.82 105.643 94.892 106.051 95.036C106.471 95.168 106.825 95.348 107.113 95.576C107.401 95.792 107.635 96.038 107.815 96.314C107.995 96.578 108.133 96.836 108.229 97.088L106.177 97.916C106.069 97.592 105.883 97.34 105.619 97.16C105.355 96.968 105.013 96.872 104.593 96.872C104.209 96.872 103.921 96.944 103.729 97.088C103.537 97.22 103.441 97.388 103.441 97.592ZM131.01 104H128.634V100.22C128.634 99.932 128.556 99.698 128.4 99.518C128.256 99.338 128.01 99.248 127.662 99.248H124.926V104H122.55V91.4H127.374C128.022 91.4 128.592 91.49 129.084 91.67C129.576 91.85 129.984 92.102 130.308 92.426C130.644 92.738 130.896 93.104 131.064 93.524C131.244 93.944 131.334 94.394 131.334 94.874V95.306C131.334 95.822 131.196 96.308 130.92 96.764C130.644 97.208 130.218 97.55 129.642 97.79V98.114C130.062 98.162 130.392 98.324 130.632 98.6C130.884 98.876 131.01 99.224 131.01 99.644V104ZM124.926 96.98H127.194C127.77 96.98 128.208 96.848 128.508 96.584C128.808 96.308 128.958 95.924 128.958 95.432V95.216C128.958 94.796 128.808 94.436 128.508 94.136C128.208 93.824 127.77 93.668 127.194 93.668H124.926V96.98ZM135.66 100.274C135.672 100.538 135.732 100.784 135.84 101.012C135.96 101.228 136.116 101.42 136.308 101.588C136.512 101.744 136.74 101.87 136.992 101.966C137.256 102.05 137.532 102.092 137.82 102.092C138.384 102.092 138.816 101.996 139.116 101.804C139.416 101.6 139.632 101.36 139.764 101.084L141.708 102.164C141.6 102.392 141.45 102.632 141.258 102.884C141.066 103.124 140.814 103.346 140.502 103.55C140.202 103.754 139.83 103.922 139.386 104.054C138.954 104.186 138.444 104.252 137.856 104.252C137.184 104.252 136.572 104.144 136.02 103.928C135.468 103.712 134.988 103.4 134.58 102.992C134.184 102.584 133.872 102.086 133.644 101.498C133.428 100.91 133.32 100.244 133.32 99.5V99.392C133.32 98.708 133.434 98.084 133.662 97.52C133.902 96.956 134.226 96.476 134.634 96.08C135.042 95.684 135.516 95.378 136.056 95.162C136.608 94.934 137.196 94.82 137.82 94.82C138.588 94.82 139.248 94.958 139.8 95.234C140.352 95.498 140.808 95.84 141.168 96.26C141.528 96.668 141.792 97.124 141.96 97.628C142.128 98.12 142.212 98.6 142.212 99.068V100.274H135.66ZM137.802 96.872C137.226 96.872 136.758 97.022 136.398 97.322C136.038 97.61 135.804 97.946 135.696 98.33H139.908C139.836 97.91 139.608 97.562 139.224 97.286C138.852 97.01 138.378 96.872 137.802 96.872ZM147.527 97.592C147.527 97.88 147.677 98.09 147.977 98.222C148.277 98.342 148.823 98.444 149.615 98.528C150.527 98.624 151.271 98.9 151.847 99.356C152.423 99.8 152.711 100.424 152.711 101.228V101.336C152.711 102.224 152.387 102.932 151.739 103.46C151.091 103.988 150.179 104.252 149.003 104.252C148.307 104.252 147.713 104.162 147.221 103.982C146.729 103.802 146.321 103.58 145.997 103.316C145.673 103.04 145.421 102.74 145.241 102.416C145.073 102.08 144.959 101.756 144.899 101.444L146.987 100.76C147.083 101.144 147.281 101.48 147.581 101.768C147.893 102.056 148.367 102.2 149.003 102.2C149.567 102.2 149.951 102.116 150.155 101.948C150.371 101.768 150.479 101.576 150.479 101.372C150.479 101.252 150.449 101.144 150.389 101.048C150.341 100.94 150.245 100.844 150.101 100.76C149.957 100.664 149.759 100.586 149.507 100.526C149.267 100.466 148.961 100.418 148.589 100.382C147.581 100.298 146.777 100.04 146.177 99.608C145.589 99.164 145.295 98.516 145.295 97.664V97.556C145.295 97.112 145.391 96.722 145.583 96.386C145.775 96.05 146.027 95.768 146.339 95.54C146.651 95.3 147.011 95.12 147.419 95C147.827 94.88 148.247 94.82 148.679 94.82C149.243 94.82 149.729 94.892 150.137 95.036C150.557 95.168 150.911 95.348 151.199 95.576C151.487 95.792 151.721 96.038 151.901 96.314C152.081 96.578 152.219 96.836 152.315 97.088L150.263 97.916C150.155 97.592 149.969 97.34 149.705 97.16C149.441 96.968 149.099 96.872 148.679 96.872C148.295 96.872 148.007 96.944 147.815 97.088C147.623 97.22 147.527 97.388 147.527 97.592ZM157.703 100.274C157.715 100.538 157.775 100.784 157.883 101.012C158.003 101.228 158.159 101.42 158.351 101.588C158.555 101.744 158.783 101.87 159.035 101.966C159.299 102.05 159.575 102.092 159.863 102.092C160.427 102.092 160.859 101.996 161.159 101.804C161.459 101.6 161.675 101.36 161.807 101.084L163.751 102.164C163.643 102.392 163.493 102.632 163.301 102.884C163.109 103.124 162.857 103.346 162.545 103.55C162.245 103.754 161.873 103.922 161.429 104.054C160.997 104.186 160.487 104.252 159.899 104.252C159.227 104.252 158.615 104.144 158.063 103.928C157.511 103.712 157.031 103.4 156.623 102.992C156.227 102.584 155.915 102.086 155.687 101.498C155.471 100.91 155.363 100.244 155.363 99.5V99.392C155.363 98.708 155.477 98.084 155.705 97.52C155.945 96.956 156.269 96.476 156.677 96.08C157.085 95.684 157.559 95.378 158.099 95.162C158.651 94.934 159.239 94.82 159.863 94.82C160.631 94.82 161.291 94.958 161.843 95.234C162.395 95.498 162.851 95.84 163.211 96.26C163.571 96.668 163.835 97.124 164.003 97.628C164.171 98.12 164.255 98.6 164.255 99.068V100.274H157.703ZM159.845 96.872C159.269 96.872 158.801 97.022 158.441 97.322C158.081 97.61 157.847 97.946 157.739 98.33H161.951C161.879 97.91 161.651 97.562 161.267 97.286C160.895 97.01 160.421 96.872 159.845 96.872ZM166.294 95.072H170.074V96.368H170.398C170.566 95.876 170.848 95.498 171.244 95.234C171.652 94.958 172.138 94.82 172.702 94.82C173.59 94.82 174.304 95.102 174.844 95.666C175.384 96.218 175.654 97.064 175.654 98.204V98.6L173.314 98.816V98.564C173.314 98.072 173.188 97.682 172.936 97.394C172.684 97.094 172.306 96.944 171.802 96.944C171.298 96.944 170.902 97.118 170.614 97.466C170.326 97.814 170.182 98.312 170.182 98.96V101.84H172.234V104H166.078V101.84H167.914V97.232H166.294V95.072ZM177.118 95.072H179.566L181.672 102.92H181.996L184.102 95.072H186.55L183.994 104H179.674L177.118 95.072ZM190.767 100.274C190.779 100.538 190.839 100.784 190.947 101.012C191.067 101.228 191.223 101.42 191.415 101.588C191.619 101.744 191.847 101.87 192.099 101.966C192.363 102.05 192.639 102.092 192.927 102.092C193.491 102.092 193.923 101.996 194.223 101.804C194.523 101.6 194.739 101.36 194.871 101.084L196.815 102.164C196.707 102.392 196.557 102.632 196.365 102.884C196.173 103.124 195.921 103.346 195.609 103.55C195.309 103.754 194.937 103.922 194.493 104.054C194.061 104.186 193.551 104.252 192.963 104.252C192.291 104.252 191.679 104.144 191.127 103.928C190.575 103.712 190.095 103.4 189.687 102.992C189.291 102.584 188.979 102.086 188.751 101.498C188.535 100.91 188.427 100.244 188.427 99.5V99.392C188.427 98.708 188.541 98.084 188.769 97.52C189.009 96.956 189.333 96.476 189.741 96.08C190.149 95.684 190.623 95.378 191.163 95.162C191.715 94.934 192.303 94.82 192.927 94.82C193.695 94.82 194.355 94.958 194.907 95.234C195.459 95.498 195.915 95.84 196.275 96.26C196.635 96.668 196.899 97.124 197.067 97.628C197.235 98.12 197.319 98.6 197.319 99.068V100.274H190.767ZM192.909 96.872C192.333 96.872 191.865 97.022 191.505 97.322C191.145 97.61 190.911 97.946 190.803 98.33H195.015C194.943 97.91 194.715 97.562 194.331 97.286C193.959 97.01 193.485 96.872 192.909 96.872ZM206.199 102.704H205.875C205.779 102.908 205.659 103.106 205.515 103.298C205.383 103.478 205.203 103.64 204.975 103.784C204.759 103.928 204.495 104.042 204.183 104.126C203.883 104.21 203.517 104.252 203.085 104.252C202.533 104.252 202.017 104.156 201.537 103.964C201.069 103.76 200.655 103.466 200.295 103.082C199.947 102.686 199.671 102.206 199.467 101.642C199.275 101.078 199.179 100.43 199.179 99.698V99.374C199.179 98.654 199.281 98.012 199.485 97.448C199.701 96.884 199.989 96.41 200.349 96.026C200.721 95.63 201.147 95.33 201.627 95.126C202.119 94.922 202.635 94.82 203.175 94.82C203.895 94.82 204.465 94.958 204.885 95.234C205.305 95.498 205.635 95.876 205.875 96.368H206.199V91.4H208.467V104H206.199V102.704ZM203.823 102.092C204.531 102.092 205.101 101.87 205.533 101.426C205.977 100.97 206.199 100.376 206.199 99.644V99.428C206.199 98.696 205.977 98.108 205.533 97.664C205.101 97.208 204.531 96.98 203.823 96.98C203.115 96.98 202.539 97.202 202.095 97.646C201.663 98.078 201.447 98.672 201.447 99.428V99.644C201.447 100.4 201.663 101 202.095 101.444C202.539 101.876 203.115 102.092 203.823 102.092ZM216.626 102.542C216.626 102.782 216.578 103.01 216.482 103.226C216.398 103.43 216.278 103.61 216.122 103.766C215.966 103.91 215.78 104.024 215.564 104.108C215.36 104.204 215.144 104.252 214.916 104.252C214.676 104.252 214.454 104.204 214.25 104.108C214.046 104.024 213.866 103.91 213.71 103.766C213.554 103.61 213.428 103.43 213.332 103.226C213.248 103.01 213.206 102.782 213.206 102.542C213.206 102.302 213.248 102.08 213.332 101.876C213.428 101.66 213.554 101.48 213.71 101.336C213.866 101.18 214.046 101.06 214.25 100.976C214.454 100.88 214.676 100.832 214.916 100.832C215.144 100.832 215.36 100.88 215.564 100.976C215.78 101.06 215.966 101.18 216.122 101.336C216.278 101.48 216.398 101.66 216.482 101.876C216.578 102.08 216.626 102.302 216.626 102.542Z" fill="black"/>
<path d="M12.8375 39.869C8.85526 39.869 5.71138 38.9316 3.40587 37.0566C1.13529 35.1457 0 32.5676 0 29.3226C0 28.9981 0.0349319 28.4752 0.104796 27.7541L0.209592 26.9969C0.244524 26.7445 0.331854 26.5462 0.471582 26.402C0.646242 26.2578 0.838368 26.1857 1.04796 26.1857H8.96006C9.20458 26.1857 9.37924 26.2578 9.48403 26.402C9.62376 26.5462 9.67616 26.7445 9.64123 26.9969L9.58883 27.3214C9.48403 28.331 9.86829 29.2324 10.7416 30.0257C11.6498 30.7828 12.9423 31.1614 14.619 31.1614C15.9814 31.1614 16.9595 30.8369 17.5533 30.1879C18.1472 29.5389 18.4441 28.8719 18.4441 28.1868C18.4441 27.4657 18.1122 26.9248 17.4485 26.5643C16.8198 26.2037 15.7019 25.771 14.0951 25.2662L12.6803 24.7795C9.71109 23.8059 7.21346 22.5259 5.1874 20.9395C3.19628 19.3169 2.20072 17.0093 2.20072 14.0166C2.20072 11.4927 2.84696 9.25721 4.13944 7.31016C5.46686 5.36312 7.24839 3.84876 9.48403 2.76706C11.7546 1.68538 14.2348 1.14453 16.9245 1.14453C19.3698 1.14453 21.553 1.59524 23.4743 2.49664C25.4305 3.39805 26.95 4.69608 28.0329 6.39073C29.1158 8.04932 29.6573 9.96031 29.6573 12.1237C29.6573 12.4482 29.6223 12.971 29.5525 13.6921L29.5001 14.1789C29.4651 14.4313 29.3603 14.6296 29.1857 14.7738C29.0459 14.9181 28.8538 14.9902 28.6093 14.9902H20.7496C20.5051 14.9902 20.313 14.9181 20.1732 14.7738C20.0684 14.6296 20.0335 14.4313 20.0684 14.1789V14.1248C20.1732 13.4397 20.051 12.7727 19.7016 12.1237C19.3873 11.4747 18.8633 10.9338 18.1297 10.5012C17.4311 10.0685 16.5578 9.85213 15.5098 9.85213C14.357 9.85213 13.4314 10.1226 12.7327 10.6634C12.0341 11.1682 11.6848 11.8713 11.6848 12.7727C11.6848 13.602 12.1389 14.3051 13.0471 14.882C13.9903 15.4228 15.7543 16.144 18.3393 17.0454C18.6188 17.1535 19.6842 17.5321 21.5356 18.1812C23.4219 18.7941 24.9938 19.8578 26.2514 21.3721C27.5089 22.8504 28.1377 24.6533 28.1377 26.7806C28.1377 27.069 28.1028 27.5378 28.0329 28.1868C27.5788 31.8285 25.9719 34.695 23.2123 36.7862C20.4527 38.8414 16.9944 39.869 12.8375 39.869Z" fill="black"/>
<path d="M53.8119 39.4364C53.3229 39.4364 53.0609 39.202 53.0259 38.7333L52.4496 34.5688C52.4146 34.3885 52.3098 34.2983 52.1352 34.2983H41.4984C41.3587 34.2983 41.2364 34.3885 41.1316 34.5688L39.5073 38.7333C39.3675 39.202 39.0531 39.4364 38.5641 39.4364H29.9184C29.3246 39.4364 29.1325 39.1299 29.3421 38.5169L44.3803 2.22622C44.5549 1.79354 44.8693 1.5772 45.3234 1.5772H56.1174C56.5366 1.5772 56.7986 1.79354 56.9034 2.22622L63.2959 38.5169V38.7333C63.2959 39.202 63.034 39.4364 62.51 39.4364H53.8119ZM44.3803 26.1316C44.3453 26.384 44.4152 26.5102 44.5899 26.5102H50.8252C51.0348 26.5102 51.1396 26.384 51.1396 26.1316L49.3581 14.1789C49.3231 14.0347 49.2533 13.9626 49.1485 13.9626C49.0786 13.9626 49.0088 14.0347 48.9389 14.1789L44.3803 26.1316Z" fill="black"/>
<path d="M79.0063 39.869C75.1987 39.869 72.1771 38.8234 69.9415 36.7321C67.7058 34.6409 66.588 31.8104 66.588 28.2409C66.588 27.8082 66.6229 27.1592 66.6928 26.2938L69.5747 2.38847C69.6096 2.13608 69.697 1.93777 69.8367 1.79354C69.9764 1.64932 70.1685 1.5772 70.4131 1.5772H78.43C78.6745 1.5772 78.8491 1.64932 78.9539 1.79354C79.0937 1.93777 79.1461 2.13608 79.1111 2.38847L76.2816 26.2938C76.2467 26.4741 76.2292 26.7626 76.2292 27.1592C76.2292 28.3851 76.5611 29.3586 77.2248 30.0797C77.9234 30.8009 78.8666 31.1614 80.0543 31.1614C81.3468 31.1614 82.4471 30.7288 83.3554 29.8634C84.2636 28.962 84.805 27.7721 84.9797 26.2938L87.8092 2.38847C87.8441 2.13608 87.9315 1.93777 88.0712 1.79354C88.2458 1.64932 88.438 1.5772 88.6476 1.5772H96.7169C96.9264 1.5772 97.0836 1.64932 97.1884 1.79354C97.3282 1.93777 97.3806 2.13608 97.3456 2.38847L94.5161 26.2938C94.2018 28.9981 93.3285 31.3778 91.8962 33.433C90.499 35.4882 88.6825 37.0747 86.4468 38.1924C84.2461 39.3102 81.766 39.869 79.0063 39.869Z" fill="black"/>
<path d="M110.165 39.869C106.323 39.869 103.284 38.8054 101.048 36.6781C98.8122 34.5147 97.6944 31.6302 97.6944 28.0245C97.6944 27.0871 97.7293 26.384 97.7992 25.9152L99.1091 14.9902C99.4235 12.2499 100.279 9.83411 101.677 7.74284C103.109 5.65157 104.943 4.02904 107.178 2.87523C109.449 1.72143 111.982 1.14453 114.776 1.14453C118.654 1.14453 121.71 2.15411 123.946 4.17326C126.216 6.19242 127.352 8.91467 127.352 12.34C127.352 12.7006 127.317 13.3135 127.247 14.1789C127.247 14.3231 127.16 14.4493 126.985 14.5575C126.845 14.6657 126.67 14.7378 126.461 14.7738L118.339 15.3147H118.182C117.763 15.3147 117.588 15.1164 117.658 14.7197C117.693 14.5395 117.71 14.269 117.71 13.9085C117.71 12.6465 117.361 11.655 116.662 10.9338C115.964 10.2127 115.003 9.85213 113.781 9.85213C112.418 9.85213 111.265 10.3028 110.322 11.2043C109.414 12.0696 108.873 13.2414 108.698 14.7197L107.336 26.3479C107.301 26.5282 107.283 26.7986 107.283 27.1592C107.283 28.3851 107.633 29.3586 108.331 30.0797C109.065 30.8009 110.025 31.1614 111.213 31.1614C112.575 31.1614 113.711 30.7288 114.619 29.8634C115.527 28.962 116.069 27.7902 116.243 26.3479C116.278 26.1676 116.366 26.0234 116.505 25.9152C116.645 25.771 116.837 25.7169 117.082 25.753L125.099 26.1857C125.588 26.2578 125.815 26.4381 125.78 26.7265C125.465 29.3226 124.61 31.6121 123.212 33.5952C121.815 35.5783 119.981 37.1288 117.71 38.2465C115.475 39.3282 112.96 39.869 110.165 39.869Z" fill="black"/>
<path d="M136.141 39.3282C135.931 39.3282 135.756 39.2561 135.617 39.1119C135.512 38.9676 135.477 38.7693 135.512 38.5169L136.927 26.6183C136.927 26.402 136.909 26.2578 136.874 26.1857L129.381 2.55073C129.346 2.47861 129.329 2.37045 129.329 2.22622C129.329 1.79354 129.556 1.5772 130.01 1.5772H138.761C139.215 1.5772 139.494 1.79354 139.599 2.22622L142.848 15.0442C142.917 15.1885 142.987 15.2606 143.057 15.2606C143.162 15.2606 143.232 15.1885 143.267 15.0442L149.554 2.22622C149.764 1.79354 150.096 1.5772 150.55 1.5772H159.353C159.772 1.5772 159.982 1.73946 159.982 2.06397C159.982 2.20819 159.929 2.37044 159.824 2.55073L146.568 26.1857C146.463 26.402 146.411 26.5462 146.411 26.6183L144.996 38.5169C144.961 38.7693 144.856 38.9676 144.681 39.1119C144.542 39.2561 144.367 39.3282 144.157 39.3282H136.141Z" fill="black"/>
<path d="M184.287 19.6955C184.147 19.7316 184.077 19.8037 184.077 19.9119C184.077 19.984 184.13 20.0561 184.235 20.1282C186.54 21.6065 187.693 23.86 187.693 26.8888C187.693 27.2493 187.658 27.8262 187.588 28.6195C187.134 32.3333 185.579 35.0735 182.925 36.8403C180.305 38.571 177.039 39.4364 173.126 39.4364H159.45C159.206 39.4364 159.014 39.3643 158.874 39.22C158.769 39.0758 158.734 38.8775 158.769 38.6251L163.118 2.38847C163.153 2.13608 163.24 1.93777 163.38 1.79354C163.52 1.64932 163.712 1.5772 163.957 1.5772H177.161C181.108 1.5772 184.077 2.26228 186.069 3.63242C188.06 4.9665 189.055 7.18397 189.055 10.2848C189.055 11.1502 189.02 11.8172 188.95 12.2859C188.531 15.7473 186.977 18.2172 184.287 19.6955ZM172.026 10.2848C171.851 10.2848 171.729 10.393 171.659 10.6093L171.03 15.9096C171.03 16.1259 171.118 16.2341 171.292 16.2341H175.432C176.759 16.2341 177.772 15.9457 178.471 15.3688C179.169 14.7558 179.519 13.8724 179.519 12.7186C179.519 11.9254 179.222 11.3304 178.628 10.9338C178.069 10.5011 177.231 10.2848 176.113 10.2848H172.026ZM174.174 30.7288C176.55 30.7288 177.877 29.6651 178.156 27.5378C178.366 25.5186 177.301 24.509 174.96 24.509H170.297C170.087 24.509 169.982 24.6172 169.982 24.8335L169.301 30.4043C169.301 30.6206 169.388 30.7288 169.563 30.7288H174.174Z" fill="black"/>
<path d="M241.192 39.3282C240.983 39.3282 240.808 39.2561 240.668 39.1119C240.564 38.9676 240.529 38.7693 240.564 38.5169L241.978 26.6183C241.978 26.402 241.961 26.2578 241.926 26.1857L234.433 2.55073C234.398 2.47861 234.381 2.37045 234.381 2.22622C234.381 1.79354 234.608 1.5772 235.062 1.5772H243.812C244.266 1.5772 244.546 1.79354 244.651 2.22622L247.899 15.0442C247.969 15.1885 248.039 15.2606 248.109 15.2606C248.214 15.2606 248.284 15.1885 248.319 15.0442L254.606 2.22622C254.816 1.79354 255.148 1.5772 255.602 1.5772H264.405C264.824 1.5772 265.034 1.73946 265.034 2.06397C265.034 2.20819 264.981 2.37044 264.876 2.55073L251.62 26.1857C251.515 26.402 251.462 26.5462 251.462 26.6183L250.048 38.5169C250.013 38.7693 249.908 38.9676 249.733 39.1119C249.594 39.2561 249.419 39.3282 249.209 39.3282H241.192Z" fill="black"/>
<path d="M275.032 39.869C271.05 39.869 267.906 38.9316 265.6 37.0566C263.33 35.1457 262.195 32.5676 262.195 29.3226C262.195 28.9981 262.23 28.4752 262.299 27.7541L262.404 26.9969C262.439 26.7445 262.526 26.5462 262.666 26.402C262.841 26.2578 263.033 26.1857 263.243 26.1857H271.155C271.399 26.1857 271.574 26.2578 271.679 26.402C271.818 26.5462 271.871 26.7445 271.836 26.9969L271.783 27.3214C271.679 28.331 272.063 29.2324 272.936 30.0257C273.844 30.7828 275.137 31.1614 276.814 31.1614C278.176 31.1614 279.154 30.8369 279.748 30.1879C280.342 29.5389 280.639 28.8719 280.639 28.1868C280.639 27.4657 280.307 26.9248 279.643 26.5643C279.014 26.2037 277.897 25.771 276.29 25.2662L274.875 24.7795C271.906 23.8059 269.408 22.5259 267.382 20.9395C265.391 19.3169 264.395 17.0093 264.395 14.0166C264.395 11.4927 265.042 9.25721 266.334 7.31016C267.661 5.36312 269.443 3.84876 271.679 2.76706C273.949 1.68538 276.429 1.14453 279.119 1.14453C281.564 1.14453 283.748 1.59524 285.669 2.49664C287.625 3.39805 289.145 4.69608 290.228 6.39073C291.31 8.04932 291.852 9.96031 291.852 12.1237C291.852 12.4482 291.817 12.971 291.747 13.6921L291.695 14.1789C291.66 14.4313 291.555 14.6296 291.38 14.7738C291.241 14.9181 291.048 14.9902 290.804 14.9902H282.944C282.7 14.9902 282.508 14.9181 282.368 14.7738C282.263 14.6296 282.228 14.4313 282.263 14.1789V14.1248C282.368 13.4397 282.246 12.7727 281.896 12.1237C281.582 11.4747 281.058 10.9338 280.324 10.5012C279.626 10.0685 278.752 9.85213 277.704 9.85213C276.552 9.85213 275.626 10.1226 274.927 10.6634C274.229 11.1682 273.879 11.8713 273.879 12.7727C273.879 13.602 274.333 14.3051 275.242 14.882C276.185 15.4228 277.949 16.144 280.534 17.0454C280.813 17.1535 281.879 17.5321 283.73 18.1812C285.616 18.7941 287.188 19.8578 288.446 21.3721C289.704 22.8504 290.332 24.6533 290.332 26.7806C290.332 27.069 290.297 27.5378 290.228 28.1868C289.773 31.8285 288.167 34.695 285.407 36.7862C282.647 38.8414 279.189 39.869 275.032 39.869Z" fill="black"/>
<path d="M208.389 38.3097C203.298 38.3097 199.23 37.3733 196.186 35.5006C193.194 33.6279 191.698 31.1083 191.698 27.9417C191.698 27.1246 191.75 26.4947 191.855 26.052L194.139 13.8965C194.611 11.479 195.792 9.35097 197.682 7.51232C199.624 5.67368 202.117 4.24362 205.161 3.22215C208.206 2.20068 211.591 1.68994 215.318 1.68994C220.462 1.68994 224.53 2.62629 227.522 4.49898C230.566 6.37168 232.088 8.87428 232.088 12.0068C232.088 12.824 232.036 13.4539 231.931 13.8965L229.647 26.052C229.227 28.4695 228.046 30.6146 226.104 32.4873C224.162 34.3259 221.669 35.756 218.625 36.7775C215.58 37.7989 212.169 38.3097 208.389 38.3097ZM209.177 34.0706C212.694 34.0706 215.633 33.3555 217.995 31.9255C220.409 30.4954 221.853 28.6057 222.325 26.2563L224.608 13.8454C224.713 13.2326 224.766 12.7899 224.766 12.5175C224.766 10.5086 223.847 8.90833 222.01 7.71662C220.173 6.5249 217.68 5.92904 214.531 5.92904C211.119 5.92904 208.206 6.6611 205.791 8.1252C203.377 9.55526 201.96 11.462 201.54 13.8454L199.178 26.2563C199.073 26.8692 199.02 27.3118 199.02 27.5842C199.02 29.5591 199.939 31.1423 201.776 32.3341C203.613 33.4917 206.08 34.0706 209.177 34.0706Z" fill="black"/>
<path fill-rule="evenodd" clip-rule="evenodd" d="M195.342 36.9494L195.337 36.946C191.937 34.8181 190.061 31.7918 190.061 27.9419C190.061 27.0979 190.111 26.3254 190.255 25.6945L192.532 13.5688L192.534 13.5625C193.079 10.7722 194.445 8.33931 196.559 6.28269L196.567 6.27477L196.575 6.26697C198.723 4.23349 201.435 2.69554 204.655 1.615C207.887 0.530518 211.447 0 215.318 0C220.626 0 225.025 0.961712 228.365 3.05062C231.803 5.16745 233.726 8.17155 233.726 12.007C233.726 12.8511 233.675 13.6235 233.531 14.2545L231.257 26.3627C230.766 29.1759 229.388 31.6344 227.222 33.7225L227.217 33.7278L227.211 33.733C225.063 35.7665 222.351 37.3045 219.131 38.385C215.897 39.4702 212.31 40 208.389 40C203.124 40 198.733 39.035 195.348 36.9527L195.342 36.9494ZM229.647 26.0522L231.931 13.8967C232.036 13.4541 232.088 12.8242 232.088 12.007C232.088 8.87448 230.566 6.37188 227.522 4.49918C224.53 2.62649 220.462 1.69014 215.318 1.69014C211.591 1.69014 208.206 2.20088 205.161 3.22235C202.117 4.24382 199.624 5.67388 197.682 7.51252C195.792 9.35117 194.611 11.4792 194.139 13.8967L191.855 26.0522C191.75 26.4949 191.698 27.1248 191.698 27.9419C191.698 31.1085 193.194 33.6281 196.186 35.5008C199.23 37.3735 203.298 38.3099 208.389 38.3099C212.169 38.3099 215.58 37.7991 218.625 36.7777C221.669 35.7562 224.162 34.3261 226.104 32.4875C228.046 30.6148 229.227 28.4697 229.647 26.0522ZM217.173 30.4637L217.18 30.4597C219.271 29.2214 220.358 27.7034 220.719 25.9263L222.998 13.5411C223.1 12.9407 223.128 12.6284 223.128 12.5177C223.128 11.1652 222.564 10.0725 221.139 9.14782C219.655 8.18546 217.503 7.61938 214.531 7.61938C211.347 7.61938 208.734 8.30115 206.621 9.58268L206.613 9.58705L206.606 9.59135C204.524 10.8245 203.468 12.3471 203.151 14.148L203.149 14.1597L200.787 26.5663C200.686 27.1632 200.658 27.474 200.658 27.5844C200.658 28.8887 201.209 29.9673 202.638 30.8974C204.129 31.8336 206.262 32.3806 209.177 32.3806C212.483 32.3806 215.117 31.7083 217.166 30.4678L217.173 30.4637ZM201.776 32.3343C199.939 31.1425 199.02 29.5593 199.02 27.5844C199.02 27.312 199.073 26.8694 199.178 26.2565L201.54 13.8456C201.96 11.4622 203.377 9.55546 205.791 8.1254C208.206 6.6613 211.119 5.92924 214.531 5.92924C217.68 5.92924 220.173 6.5251 222.01 7.71682C223.847 8.90853 224.766 10.5088 224.766 12.5177C224.766 12.7901 224.713 13.2328 224.608 13.8456L222.325 26.2565C221.853 28.6059 220.409 30.4956 217.995 31.9257C215.633 33.3557 212.693 34.0708 209.177 34.0708C206.08 34.0708 203.613 33.4919 201.776 32.3343Z" fill="black"/>
</svg>
