<svg width="197" height="27" viewBox="0 0 197 27" fill="none" xmlns="http://www.w3.org/2000/svg">
<path d="M8.66532 26.9117C5.9773 26.9117 3.85518 26.279 2.29896 25.0134C0.76632 23.7235 0 21.9833 0 19.7929C0 19.5738 0.0235791 19.2209 0.0707372 18.7342L0.141474 18.2231C0.165054 18.0527 0.224001 17.9188 0.318318 17.8215C0.436213 17.7241 0.565898 17.6755 0.707373 17.6755H6.04804C6.21309 17.6755 6.33099 17.7241 6.40172 17.8215C6.49604 17.9188 6.53141 18.0527 6.50783 18.2231L6.47246 18.4421C6.40172 19.1236 6.66109 19.732 7.25057 20.2675C7.86363 20.7786 8.73605 21.0341 9.86785 21.0341C10.7874 21.0341 11.4476 20.8151 11.8485 20.377C12.2493 19.9389 12.4498 19.4886 12.4498 19.0262C12.4498 18.5395 12.2258 18.1744 11.7778 17.931C11.3533 17.6876 10.5988 17.3956 9.51416 17.0548L8.55921 16.7263C6.55499 16.0692 4.86908 15.2052 3.5015 14.1343C2.15749 13.0391 1.48548 11.4814 1.48548 9.46138C1.48548 7.75772 1.9217 6.24876 2.79412 4.93451C3.69013 3.62025 4.89266 2.59806 6.40172 1.86792C7.93436 1.13778 9.60848 0.772705 11.4241 0.772705C13.0746 0.772705 14.5483 1.07693 15.8452 1.68538C17.1656 2.29383 18.1913 3.17 18.9222 4.31389C19.6532 5.43344 20.0187 6.72335 20.0187 8.18364C20.0187 8.40268 19.9951 8.75558 19.9479 9.24234L19.9125 9.5709C19.889 9.74127 19.8182 9.87513 19.7003 9.97248C19.606 10.0698 19.4763 10.1185 19.3113 10.1185H14.006C13.8409 10.1185 13.7112 10.0698 13.6169 9.97248C13.5462 9.87513 13.5226 9.74127 13.5462 9.5709V9.5344C13.6169 9.07197 13.5344 8.62172 13.2986 8.18364C13.0864 7.74555 12.7327 7.38048 12.2375 7.08842C11.766 6.79637 11.1765 6.65034 10.4691 6.65034C9.69101 6.65034 9.06616 6.83287 8.59458 7.19795C8.123 7.53868 7.88721 8.01327 7.88721 8.62172C7.88721 9.18149 8.19374 9.65609 8.80679 10.0455C9.44343 10.4106 10.6342 10.8973 12.379 11.5058C12.5677 11.5788 13.2868 11.8343 14.5365 12.2724C15.8098 12.6862 16.8708 13.4041 17.7197 14.4263C18.5685 15.4242 18.993 16.6411 18.993 18.077C18.993 18.2717 18.9694 18.5881 18.9222 19.0262C18.6157 21.4844 17.5311 23.4192 15.6683 24.8308C13.8056 26.2181 11.4712 26.9117 8.66532 26.9117Z" fill="#D93333"/>
<path d="M36.323 26.6197C35.9929 26.6197 35.8161 26.4615 35.7925 26.1451L35.4035 23.3341C35.3799 23.2124 35.3091 23.1515 35.1912 23.1515H28.0114C27.9171 23.1515 27.8346 23.2124 27.7638 23.3341L26.6674 26.1451C26.5731 26.4615 26.3609 26.6197 26.0308 26.6197H20.1949C19.7941 26.6197 19.6644 26.4128 19.8059 25.9991L29.9567 1.50285C30.0746 1.21079 30.2868 1.06476 30.5933 1.06476H37.8793C38.1622 1.06476 38.3391 1.21079 38.4098 1.50285L42.7248 25.9991V26.1451C42.7248 26.4615 42.5479 26.6197 42.1942 26.6197H36.323ZM29.9567 17.639C29.9331 17.8093 29.9803 17.8945 30.0982 17.8945H34.307C34.4485 17.8945 34.5192 17.8093 34.5192 17.639L33.3167 9.5709C33.2931 9.47355 33.246 9.42487 33.1752 9.42487C33.1281 9.42487 33.0809 9.47355 33.0338 9.5709L29.9567 17.639Z" fill="#D93333"/>
<path d="M53.3293 26.9117C50.7592 26.9117 48.7196 26.2059 47.2105 24.7943C45.7014 23.3827 44.9469 21.4722 44.9469 19.0627C44.9469 18.7707 44.9705 18.3326 45.0176 17.7485L46.9629 1.61237C46.9865 1.442 47.0454 1.30814 47.1398 1.21079C47.2341 1.11344 47.3638 1.06476 47.5288 1.06476H52.9402C53.1053 1.06476 53.2232 1.11344 53.2939 1.21079C53.3882 1.30814 53.4236 1.442 53.4 1.61237L51.4901 17.7485C51.4665 17.8702 51.4547 18.0649 51.4547 18.3326C51.4547 19.1601 51.6787 19.8172 52.1267 20.304C52.5983 20.7907 53.235 21.0341 54.0367 21.0341C54.9091 21.0341 55.6518 20.7421 56.2649 20.1579C56.8779 19.5495 57.2434 18.7463 57.3613 17.7485L59.2712 1.61237C59.2948 1.442 59.3537 1.30814 59.4481 1.21079C59.5659 1.11344 59.6956 1.06476 59.8371 1.06476H65.2839C65.4254 1.06476 65.5315 1.11344 65.6022 1.21079C65.6965 1.30814 65.7319 1.442 65.7083 1.61237L63.7984 17.7485C63.5862 19.5738 62.9967 21.1801 62.03 22.5674C61.0868 23.9547 59.8607 25.0256 58.3516 25.78C56.8661 26.5345 55.192 26.9117 53.3293 26.9117Z" fill="#D93333"/>
<path d="M74.3615 26.9117C71.7678 26.9117 69.7164 26.1938 68.2073 24.7578C66.6983 23.2976 65.9437 21.3505 65.9437 18.9167C65.9437 18.2839 65.9673 17.8093 66.0145 17.4929L66.8987 10.1185C67.1109 8.26882 67.6886 6.63817 68.6317 5.22656C69.5985 3.81496 70.8364 2.71975 72.3454 1.94093C73.8781 1.16211 75.5876 0.772705 77.4739 0.772705C80.0912 0.772705 82.1544 1.45417 83.6634 2.8171C85.1961 4.18003 85.9624 6.01755 85.9624 8.32966C85.9624 8.57304 85.9388 8.98679 85.8916 9.5709C85.8916 9.66825 85.8327 9.75344 85.7148 9.82645C85.6205 9.89947 85.5026 9.94814 85.3611 9.97248L79.879 10.3376H79.7729C79.4899 10.3376 79.372 10.2037 79.4192 9.93597C79.4427 9.81428 79.4545 9.63175 79.4545 9.38837C79.4545 8.53654 79.2188 7.86724 78.7472 7.38048C78.2756 6.89372 77.6272 6.65034 76.8019 6.65034C75.8823 6.65034 75.1042 6.95456 74.4676 7.56302C73.8545 8.14713 73.489 8.93811 73.3711 9.93597L72.4516 17.785C72.428 17.9067 72.4162 18.0892 72.4162 18.3326C72.4162 19.1601 72.652 19.8172 73.1236 20.304C73.6187 20.7907 74.2671 21.0341 75.0688 21.0341C75.9884 21.0341 76.7547 20.7421 77.3678 20.1579C77.9809 19.5495 78.3463 18.7585 78.4642 17.785C78.4878 17.6633 78.5467 17.5659 78.6411 17.4929C78.7354 17.3956 78.8651 17.3591 79.0301 17.3834L84.4415 17.6755C84.7716 17.7241 84.9249 17.8458 84.9013 18.0405C84.6891 19.7929 84.1114 21.3383 83.1683 22.6769C82.2251 24.0155 80.9872 25.0621 79.4545 25.8165C77.9455 26.5467 76.2478 26.9117 74.3615 26.9117Z" fill="#D93333"/>
<path d="M91.8949 26.5467C91.7534 26.5467 91.6355 26.498 91.5412 26.4007C91.4705 26.3033 91.4469 26.1694 91.4705 25.9991L92.4254 17.9675C92.4254 17.8215 92.4136 17.7241 92.3901 17.6755L87.3324 1.72189C87.3088 1.67321 87.297 1.6002 87.297 1.50285C87.297 1.21079 87.4502 1.06476 87.7568 1.06476H93.6633C93.9699 1.06476 94.1585 1.21079 94.2292 1.50285L96.4221 10.155C96.4693 10.2524 96.5164 10.301 96.5636 10.301C96.6343 10.301 96.6815 10.2524 96.705 10.155L100.949 1.50285C101.091 1.21079 101.315 1.06476 101.621 1.06476H107.563C107.846 1.06476 107.988 1.17428 107.988 1.39332C107.988 1.49068 107.952 1.6002 107.882 1.72189L98.9333 17.6755C98.8625 17.8215 98.8272 17.9188 98.8272 17.9675L97.8722 25.9991C97.8486 26.1694 97.7779 26.3033 97.66 26.4007C97.5657 26.498 97.4478 26.5467 97.3063 26.5467H91.8949Z" fill="#D93333"/>
<path d="M124.394 13.2946C124.299 13.319 124.252 13.3676 124.252 13.4406C124.252 13.4893 124.288 13.538 124.358 13.5867C125.915 14.5845 126.693 16.1057 126.693 18.1501C126.693 18.3934 126.669 18.7828 126.622 19.3183C126.315 21.8251 125.266 23.6748 123.474 24.8674C121.706 26.0356 119.501 26.6197 116.86 26.6197H107.629C107.464 26.6197 107.334 26.571 107.24 26.4737C107.169 26.3763 107.146 26.2425 107.169 26.0721L110.105 1.61237C110.128 1.442 110.187 1.30814 110.282 1.21079C110.376 1.11344 110.506 1.06476 110.671 1.06476H119.584C122.248 1.06476 124.252 1.52718 125.596 2.45203C126.94 3.35254 127.612 4.84932 127.612 6.94239C127.612 7.52651 127.589 7.97676 127.542 8.29316C127.259 10.6296 126.209 12.2968 124.394 13.2946ZM116.117 6.94239C116 6.94239 115.917 7.01541 115.87 7.16144L115.445 10.7391C115.445 10.8852 115.504 10.9582 115.622 10.9582H118.416C119.312 10.9582 119.996 10.7635 120.468 10.3741C120.939 9.96031 121.175 9.36403 121.175 8.58521C121.175 8.04977 120.975 7.6482 120.574 7.38048C120.197 7.08842 119.631 6.94239 118.876 6.94239H116.117ZM117.568 20.7421C119.171 20.7421 120.067 20.0241 120.256 18.5881C120.397 17.2252 119.678 16.5437 118.098 16.5437H114.95C114.809 16.5437 114.738 16.6168 114.738 16.7628L114.278 20.523C114.278 20.669 114.337 20.7421 114.455 20.7421H117.568Z" fill="#D93333"/>
<path d="M162.805 26.5467C162.663 26.5467 162.546 26.498 162.451 26.4007C162.38 26.3033 162.357 26.1694 162.38 25.9991L163.335 17.9675C163.335 17.8215 163.324 17.7241 163.3 17.6755L158.242 1.72189C158.219 1.67321 158.207 1.6002 158.207 1.50285C158.207 1.21079 158.36 1.06476 158.667 1.06476H164.573C164.88 1.06476 165.068 1.21079 165.139 1.50285L167.332 10.155C167.379 10.2524 167.426 10.301 167.474 10.301C167.544 10.301 167.591 10.2524 167.615 10.155L171.859 1.50285C172.001 1.21079 172.225 1.06476 172.531 1.06476H178.473C178.756 1.06476 178.898 1.17428 178.898 1.39332C178.898 1.49068 178.862 1.6002 178.792 1.72189L169.843 17.6755C169.773 17.8215 169.737 17.9188 169.737 17.9675L168.782 25.9991C168.759 26.1694 168.688 26.3033 168.57 26.4007C168.476 26.498 168.358 26.5467 168.216 26.5467H162.805Z" fill="#D93333"/>
<path d="M185.647 26.9117C182.959 26.9117 180.837 26.279 179.28 25.0134C177.748 23.7235 176.981 21.9833 176.981 19.7929C176.981 19.5738 177.005 19.2209 177.052 18.7342L177.123 18.2231C177.146 18.0527 177.205 17.9188 177.3 17.8215C177.418 17.7241 177.547 17.6755 177.689 17.6755H183.029C183.194 17.6755 183.312 17.7241 183.383 17.8215C183.477 17.9188 183.513 18.0527 183.489 18.2231L183.454 18.4421C183.383 19.1236 183.642 19.732 184.232 20.2675C184.845 20.7786 185.717 21.0341 186.849 21.0341C187.769 21.0341 188.429 20.8151 188.83 20.377C189.231 19.9389 189.431 19.4886 189.431 19.0262C189.431 18.5395 189.207 18.1744 188.759 17.931C188.335 17.6876 187.58 17.3956 186.496 17.0548L185.541 16.7263C183.536 16.0692 181.85 15.2052 180.483 14.1343C179.139 13.0391 178.467 11.4814 178.467 9.46138C178.467 7.75772 178.903 6.24876 179.775 4.93451C180.671 3.62025 181.874 2.59806 183.383 1.86792C184.916 1.13778 186.59 0.772705 188.405 0.772705C190.056 0.772705 191.53 1.07693 192.826 1.68538C194.147 2.29383 195.173 3.17 195.904 4.31389C196.635 5.43344 197 6.72335 197 8.18364C197 8.40268 196.976 8.75558 196.929 9.24234L196.894 9.5709C196.87 9.74127 196.8 9.87513 196.682 9.97248C196.587 10.0698 196.458 10.1185 196.293 10.1185H190.987C190.822 10.1185 190.693 10.0698 190.598 9.97248C190.528 9.87513 190.504 9.74127 190.528 9.5709V9.5344C190.598 9.07197 190.516 8.62172 190.28 8.18364C190.068 7.74555 189.714 7.38048 189.219 7.08842C188.747 6.79637 188.158 6.65034 187.45 6.65034C186.672 6.65034 186.048 6.83287 185.576 7.19795C185.104 7.53868 184.869 8.01327 184.869 8.62172C184.869 9.18149 185.175 9.65609 185.788 10.0455C186.425 10.4106 187.616 10.8973 189.36 11.5058C189.549 11.5788 190.268 11.8343 191.518 12.2724C192.791 12.6862 193.852 13.4041 194.701 14.4263C195.55 15.4242 195.974 16.6411 195.974 18.077C195.974 18.2717 195.951 18.5881 195.904 19.0262C195.597 21.4844 194.512 23.4192 192.65 24.8308C190.787 26.2181 188.453 26.9117 185.647 26.9117Z" fill="#D93333"/>
<path d="M140.663 25.8592C137.226 25.8592 134.48 25.2271 132.425 23.9631C130.406 22.699 129.396 20.9983 129.396 18.8608C129.396 18.3092 129.432 17.884 129.503 17.5853L131.044 9.38031C131.363 7.74851 132.16 6.31206 133.435 5.07098C134.746 3.82989 136.429 2.8646 138.484 2.17511C140.539 1.48562 142.824 1.14087 145.34 1.14087C148.812 1.14087 151.558 1.7729 153.577 3.03697C155.632 4.30104 156.66 5.9903 156.66 8.10474C156.66 8.65634 156.624 9.08152 156.553 9.38031L155.012 17.5853C154.729 19.2171 153.931 20.665 152.621 21.9291C151.31 23.1702 149.627 24.1354 147.572 24.8249C145.517 25.5144 143.214 25.8592 140.663 25.8592ZM141.194 22.9978C143.568 22.9978 145.552 22.5151 147.147 21.5499C148.776 20.5846 149.751 19.309 150.07 17.7232L151.611 9.34583C151.682 8.93213 151.717 8.63336 151.717 8.44949C151.717 7.09349 151.097 6.01328 149.857 5.20887C148.617 4.40447 146.934 4.00226 144.808 4.00226C142.505 4.00226 140.539 4.4964 138.909 5.48467C137.279 6.44996 136.323 7.73701 136.039 9.34583L134.445 17.7232C134.374 18.1369 134.339 18.4356 134.339 18.6195C134.339 19.9525 134.959 21.0212 136.199 21.8256C137.439 22.6071 139.104 22.9978 141.194 22.9978Z" fill="#D93333"/>
<path fill-rule="evenodd" clip-rule="evenodd" d="M131.856 24.9408L131.852 24.9385C129.558 23.5022 128.291 21.4594 128.291 18.8608C128.291 18.2911 128.325 17.7697 128.422 17.3438L129.96 9.15892L129.96 9.15472C130.328 7.27122 131.25 5.62904 132.677 4.24082L132.683 4.23547L132.688 4.2302C134.138 2.8576 135.969 1.81949 138.142 1.09012C140.324 0.358099 142.727 0 145.34 0C148.923 0 151.892 0.649156 154.147 2.05917C156.467 3.48803 157.765 5.5158 157.765 8.10472C157.765 8.67448 157.731 9.19588 157.634 9.62179L156.099 17.7948C155.767 19.6938 154.837 21.3532 153.375 22.7627L153.371 22.7663L153.368 22.7698C151.918 24.1424 150.087 25.1805 147.914 25.9099C145.73 26.6424 143.31 27 140.663 27C137.109 27 134.145 26.3486 131.86 24.9431L131.856 24.9408ZM155.012 17.5852L156.553 9.38028C156.624 9.0815 156.66 8.65631 156.66 8.10472C156.66 5.99027 155.632 4.30102 153.577 3.03695C151.558 1.77288 148.812 1.14085 145.34 1.14085C142.824 1.14085 140.539 1.48559 138.484 2.17508C136.429 2.86458 134.746 3.82987 133.435 5.07095C132.16 6.31204 131.363 7.74848 131.044 9.38028L129.503 17.5852C129.432 17.884 129.396 18.3092 129.396 18.8608C129.396 20.9982 130.406 22.699 132.426 23.963C134.48 25.2271 137.226 25.8592 140.663 25.8592C143.214 25.8592 145.517 25.5144 147.572 24.8249C149.627 24.1354 151.31 23.1701 152.621 21.929C153.932 20.665 154.729 19.217 155.012 17.5852ZM146.592 20.563L146.597 20.5603C148.008 19.7245 148.742 18.6998 148.986 17.5002L150.524 9.14022C150.593 8.735 150.612 8.52419 150.612 8.44947C150.612 7.53653 150.231 6.79891 149.269 6.17478C148.268 5.52518 146.815 5.14308 144.808 5.14308C142.659 5.14308 140.896 5.60327 139.469 6.46831L139.464 6.47126L139.459 6.47416C138.054 7.30655 137.341 8.33428 137.127 9.54992L137.125 9.55783L135.532 17.9322C135.463 18.3352 135.444 18.545 135.444 18.6195C135.444 19.4999 135.816 20.2279 136.781 20.8557C137.787 21.4877 139.227 21.8569 141.194 21.8569C143.426 21.8569 145.204 21.4031 146.587 20.5658L146.592 20.563ZM136.199 21.8256C134.959 21.0212 134.339 19.9525 134.339 18.6195C134.339 18.4356 134.374 18.1368 134.445 17.7231L136.039 9.34581C136.323 7.73699 137.279 6.44994 138.909 5.48465C140.539 4.49638 142.505 4.00224 144.808 4.00224C146.934 4.00224 148.617 4.40444 149.857 5.20885C151.097 6.01326 151.717 7.09346 151.717 8.44947C151.717 8.63333 151.682 8.93211 151.611 9.34581L150.07 17.7231C149.751 19.309 148.776 20.5845 147.147 21.5498C145.552 22.5151 143.568 22.9978 141.194 22.9978C139.104 22.9978 137.439 22.607 136.199 21.8256Z" fill="#D93333"/>
</svg>
