<?xml version="1.0" encoding="utf-8"?>
<!-- Generator: Adobe Illustrator 23.0.6, SVG Export Plug-In . SVG Version: 6.00 Build 0)  -->
<svg version="1.0" id="Layer_1" xmlns="http://www.w3.org/2000/svg" xmlns:xlink="http://www.w3.org/1999/xlink" x="0px" y="0px"
	 viewBox="0 0 197 27" style="enable-background:new 0 0 197 27;" xml:space="preserve">
<style type="text/css">
	.st0{fill:#D93333;}
	.st1{fill-rule:evenodd;clip-rule:evenodd;fill:#D93333;}
</style>
<path class="st0" d="M8.7,26.1c-2.7,0-4.8-0.6-6.4-1.9C0.8,23,0,21.2,0,19c0-0.2,0-0.6,0.1-1.1l0.1-0.5c0-0.2,0.1-0.3,0.2-0.4
	c0.1-0.1,0.2-0.1,0.4-0.1H6c0.2,0,0.3,0,0.4,0.1c0.1,0.1,0.1,0.2,0.1,0.4l0,0.2c-0.1,0.7,0.2,1.3,0.8,1.8c0.6,0.5,1.5,0.8,2.6,0.8
	c0.9,0,1.6-0.2,2-0.7c0.4-0.4,0.6-0.9,0.6-1.4c0-0.5-0.2-0.9-0.7-1.1c-0.4-0.2-1.2-0.5-2.3-0.9l-1-0.3c-2-0.7-3.7-1.5-5.1-2.6
	c-1.3-1.1-2-2.7-2-4.7c0-1.7,0.4-3.2,1.3-4.5c0.9-1.3,2.1-2.3,3.6-3.1C7.9,0.4,9.6,0,11.4,0c1.7,0,3.1,0.3,4.4,0.9
	c1.3,0.6,2.3,1.5,3.1,2.6C19.7,4.7,20,6,20,7.4c0,0.2,0,0.6-0.1,1.1l0,0.3c0,0.2-0.1,0.3-0.2,0.4c-0.1,0.1-0.2,0.1-0.4,0.1H14
	c-0.2,0-0.3,0-0.4-0.1c-0.1-0.1-0.1-0.2-0.1-0.4v0c0.1-0.5,0-0.9-0.2-1.4c-0.2-0.4-0.6-0.8-1.1-1.1c-0.5-0.3-1.1-0.4-1.8-0.4
	c-0.8,0-1.4,0.2-1.9,0.5C8.1,6.8,7.9,7.2,7.9,7.8c0,0.6,0.3,1,0.9,1.4c0.6,0.4,1.8,0.9,3.6,1.5c0.2,0.1,0.9,0.3,2.2,0.8
	c1.3,0.4,2.3,1.1,3.2,2.2c0.8,1,1.3,2.2,1.3,3.7c0,0.2,0,0.5-0.1,0.9c-0.3,2.5-1.4,4.4-3.3,5.8C13.8,25.4,11.5,26.1,8.7,26.1z"/>
<path class="st0" d="M36.3,25.8c-0.3,0-0.5-0.2-0.5-0.5l-0.4-2.8c0-0.1-0.1-0.2-0.2-0.2H28c-0.1,0-0.2,0.1-0.2,0.2l-1.1,2.8
	c-0.1,0.3-0.3,0.5-0.6,0.5h-5.8c-0.4,0-0.5-0.2-0.4-0.6L30,0.7c0.1-0.3,0.3-0.4,0.6-0.4h7.3c0.3,0,0.5,0.1,0.5,0.4l4.3,24.5v0.1
	c0,0.3-0.2,0.5-0.5,0.5H36.3z M30,16.9c0,0.2,0,0.3,0.1,0.3h4.2c0.1,0,0.2-0.1,0.2-0.3l-1.2-8.1c0-0.1-0.1-0.1-0.1-0.1
	c0,0-0.1,0-0.1,0.1L30,16.9z"/>
<path class="st0" d="M53.3,26.1c-2.6,0-4.6-0.7-6.1-2.1c-1.5-1.4-2.3-3.3-2.3-5.7c0-0.3,0-0.7,0.1-1.3L47,0.8c0-0.2,0.1-0.3,0.2-0.4
	c0.1-0.1,0.2-0.1,0.4-0.1h5.4c0.2,0,0.3,0,0.4,0.1c0.1,0.1,0.1,0.2,0.1,0.4L51.5,17c0,0.1,0,0.3,0,0.6c0,0.8,0.2,1.5,0.7,2
	c0.5,0.5,1.1,0.7,1.9,0.7c0.9,0,1.6-0.3,2.2-0.9c0.6-0.6,1-1.4,1.1-2.4l1.9-16.1c0-0.2,0.1-0.3,0.2-0.4c0.1-0.1,0.2-0.1,0.4-0.1h5.4
	c0.1,0,0.2,0,0.3,0.1c0.1,0.1,0.1,0.2,0.1,0.4L63.8,17c-0.2,1.8-0.8,3.4-1.8,4.8c-0.9,1.4-2.2,2.5-3.7,3.2
	C56.9,25.8,55.2,26.1,53.3,26.1z"/>
<path class="st0" d="M74.4,26.1c-2.6,0-4.6-0.7-6.2-2.2c-1.5-1.5-2.3-3.4-2.3-5.8c0-0.6,0-1.1,0.1-1.4l0.9-7.4
	c0.2-1.8,0.8-3.5,1.7-4.9c1-1.4,2.2-2.5,3.7-3.3C73.9,0.4,75.6,0,77.5,0c2.6,0,4.7,0.7,6.2,2C85.2,3.4,86,5.2,86,7.6
	c0,0.2,0,0.7-0.1,1.2c0,0.1-0.1,0.2-0.2,0.3c-0.1,0.1-0.2,0.1-0.4,0.1l-5.5,0.4h-0.1c-0.3,0-0.4-0.1-0.4-0.4c0-0.1,0-0.3,0-0.5
	c0-0.9-0.2-1.5-0.7-2c-0.5-0.5-1.1-0.7-1.9-0.7c-0.9,0-1.7,0.3-2.3,0.9c-0.6,0.6-1,1.4-1.1,2.4L72.5,17c0,0.1,0,0.3,0,0.5
	c0,0.8,0.2,1.5,0.7,2c0.5,0.5,1.1,0.7,1.9,0.7c0.9,0,1.7-0.3,2.3-0.9c0.6-0.6,1-1.4,1.1-2.4c0-0.1,0.1-0.2,0.2-0.3
	c0.1-0.1,0.2-0.1,0.4-0.1l5.4,0.3c0.3,0,0.5,0.2,0.5,0.4c-0.2,1.8-0.8,3.3-1.7,4.6c-0.9,1.3-2.2,2.4-3.7,3.1
	C77.9,25.8,76.2,26.1,74.4,26.1z"/>
<path class="st0" d="M91.9,25.8c-0.1,0-0.3,0-0.4-0.1c-0.1-0.1-0.1-0.2-0.1-0.4l1-8c0-0.1,0-0.2,0-0.3l-5.1-16c0,0,0-0.1,0-0.2
	c0-0.3,0.2-0.4,0.5-0.4h5.9c0.3,0,0.5,0.1,0.6,0.4l2.2,8.7c0,0.1,0.1,0.1,0.1,0.1c0.1,0,0.1,0,0.1-0.1l4.2-8.7
	c0.1-0.3,0.4-0.4,0.7-0.4h5.9c0.3,0,0.4,0.1,0.4,0.3c0,0.1,0,0.2-0.1,0.3l-8.9,16c-0.1,0.1-0.1,0.2-0.1,0.3l-1,8
	c0,0.2-0.1,0.3-0.2,0.4c-0.1,0.1-0.2,0.1-0.4,0.1H91.9z"/>
<path class="st0" d="M124.4,12.5c-0.1,0-0.1,0.1-0.1,0.1c0,0,0,0.1,0.1,0.1c1.6,1,2.3,2.5,2.3,4.6c0,0.2,0,0.6-0.1,1.2
	c-0.3,2.5-1.4,4.4-3.1,5.5c-1.8,1.2-4,1.8-6.6,1.8h-9.2c-0.2,0-0.3,0-0.4-0.1c-0.1-0.1-0.1-0.2-0.1-0.4l2.9-24.5
	c0-0.2,0.1-0.3,0.2-0.4c0.1-0.1,0.2-0.1,0.4-0.1h8.9c2.7,0,4.7,0.5,6,1.4c1.3,0.9,2,2.4,2,4.5c0,0.6,0,1-0.1,1.4
	C127.3,9.9,126.2,11.5,124.4,12.5z M116.1,6.2c-0.1,0-0.2,0.1-0.2,0.2l-0.4,3.6c0,0.1,0.1,0.2,0.2,0.2h2.8c0.9,0,1.6-0.2,2.1-0.6
	c0.5-0.4,0.7-1,0.7-1.8c0-0.5-0.2-0.9-0.6-1.2c-0.4-0.3-0.9-0.4-1.7-0.4H116.1z M117.6,20c1.6,0,2.5-0.7,2.7-2.2
	c0.1-1.4-0.6-2-2.2-2h-3.1c-0.1,0-0.2,0.1-0.2,0.2l-0.5,3.8c0,0.1,0.1,0.2,0.2,0.2H117.6z"/>
<path class="st0" d="M162.8,25.8c-0.1,0-0.3,0-0.4-0.1c-0.1-0.1-0.1-0.2-0.1-0.4l1-8c0-0.1,0-0.2,0-0.3l-5.1-16c0,0,0-0.1,0-0.2
	c0-0.3,0.2-0.4,0.5-0.4h5.9c0.3,0,0.5,0.1,0.6,0.4l2.2,8.7c0,0.1,0.1,0.1,0.1,0.1c0.1,0,0.1,0,0.1-0.1l4.2-8.7
	c0.1-0.3,0.4-0.4,0.7-0.4h5.9c0.3,0,0.4,0.1,0.4,0.3c0,0.1,0,0.2-0.1,0.3l-8.9,16c-0.1,0.1-0.1,0.2-0.1,0.3l-1,8
	c0,0.2-0.1,0.3-0.2,0.4c-0.1,0.1-0.2,0.1-0.4,0.1H162.8z"/>
<path class="st0" d="M185.6,26.1c-2.7,0-4.8-0.6-6.4-1.9c-1.5-1.3-2.3-3-2.3-5.2c0-0.2,0-0.6,0.1-1.1l0.1-0.5c0-0.2,0.1-0.3,0.2-0.4
	c0.1-0.1,0.2-0.1,0.4-0.1h5.3c0.2,0,0.3,0,0.4,0.1c0.1,0.1,0.1,0.2,0.1,0.4l0,0.2c-0.1,0.7,0.2,1.3,0.8,1.8c0.6,0.5,1.5,0.8,2.6,0.8
	c0.9,0,1.6-0.2,2-0.7c0.4-0.4,0.6-0.9,0.6-1.4c0-0.5-0.2-0.9-0.7-1.1c-0.4-0.2-1.2-0.5-2.3-0.9l-1-0.3c-2-0.7-3.7-1.5-5.1-2.6
	c-1.3-1.1-2-2.7-2-4.7c0-1.7,0.4-3.2,1.3-4.5c0.9-1.3,2.1-2.3,3.6-3.1c1.5-0.7,3.2-1.1,5-1.1c1.7,0,3.1,0.3,4.4,0.9
	c1.3,0.6,2.3,1.5,3.1,2.6c0.7,1.1,1.1,2.4,1.1,3.9c0,0.2,0,0.6-0.1,1.1l0,0.3c0,0.2-0.1,0.3-0.2,0.4c-0.1,0.1-0.2,0.1-0.4,0.1H191
	c-0.2,0-0.3,0-0.4-0.1c-0.1-0.1-0.1-0.2-0.1-0.4v0c0.1-0.5,0-0.9-0.2-1.4c-0.2-0.4-0.6-0.8-1.1-1.1c-0.5-0.3-1.1-0.4-1.8-0.4
	c-0.8,0-1.4,0.2-1.9,0.5c-0.5,0.3-0.7,0.8-0.7,1.4c0,0.6,0.3,1,0.9,1.4c0.6,0.4,1.8,0.9,3.6,1.5c0.2,0.1,0.9,0.3,2.2,0.8
	c1.3,0.4,2.3,1.1,3.2,2.2c0.8,1,1.3,2.2,1.3,3.7c0,0.2,0,0.5-0.1,0.9c-0.3,2.5-1.4,4.4-3.3,5.8C190.8,25.4,188.5,26.1,185.6,26.1z"
	/>
<path class="st0" d="M140.7,25.9c-3.4,0-6.2-0.6-8.2-1.9c-2-1.3-3-3-3-5.1c0-0.6,0-1,0.1-1.3l1.5-8.2c0.3-1.6,1.1-3.1,2.4-4.3
	c1.3-1.2,3-2.2,5-2.9c2.1-0.7,4.3-1,6.9-1c3.5,0,6.2,0.6,8.2,1.9c2.1,1.3,3.1,3,3.1,5.1c0,0.6,0,1-0.1,1.3l-1.5,8.2
	c-0.3,1.6-1.1,3.1-2.4,4.3c-1.3,1.2-3,2.2-5,2.9C145.5,25.5,143.2,25.9,140.7,25.9z M141.2,23c2.4,0,4.4-0.5,6-1.4
	c1.6-1,2.6-2.2,2.9-3.8l1.5-8.4c0.1-0.4,0.1-0.7,0.1-0.9c0-1.4-0.6-2.4-1.9-3.2c-1.2-0.8-2.9-1.2-5-1.2c-2.3,0-4.3,0.5-5.9,1.5
	c-1.6,1-2.6,2.3-2.9,3.9l-1.6,8.4c-0.1,0.4-0.1,0.7-0.1,0.9c0,1.3,0.6,2.4,1.9,3.2C137.4,22.6,139.1,23,141.2,23z"/>
<path class="st1" d="M131.9,24.9L131.9,24.9c-2.3-1.4-3.6-3.5-3.6-6.1c0-0.6,0-1.1,0.1-1.5l1.5-8.2l0,0c0.4-1.9,1.3-3.5,2.7-4.9l0,0
	l0,0c1.4-1.4,3.3-2.4,5.5-3.1c2.2-0.7,4.6-1.1,7.2-1.1c3.6,0,6.6,0.6,8.8,2.1c2.3,1.4,3.6,3.5,3.6,6c0,0.6,0,1.1-0.1,1.5l-1.5,8.2
	c-0.3,1.9-1.3,3.6-2.7,5l0,0l0,0c-1.4,1.4-3.3,2.4-5.5,3.1c-2.2,0.7-4.6,1.1-7.2,1.1C137.1,27,134.1,26.3,131.9,24.9L131.9,24.9z
	 M155,17.6l1.5-8.2c0.1-0.3,0.1-0.7,0.1-1.3c0-2.1-1-3.8-3.1-5.1c-2-1.3-4.8-1.9-8.2-1.9c-2.5,0-4.8,0.3-6.9,1
	c-2.1,0.7-3.7,1.7-5,2.9c-1.3,1.2-2.1,2.7-2.4,4.3l-1.5,8.2c-0.1,0.3-0.1,0.7-0.1,1.3c0,2.1,1,3.8,3,5.1c2.1,1.3,4.8,1.9,8.2,1.9
	c2.6,0,4.9-0.3,6.9-1c2.1-0.7,3.7-1.7,5-2.9C153.9,20.7,154.7,19.2,155,17.6z M146.6,20.6L146.6,20.6c1.4-0.8,2.2-1.9,2.4-3.1
	l1.5-8.4c0.1-0.4,0.1-0.6,0.1-0.7c0-0.9-0.4-1.7-1.3-2.3c-1-0.6-2.5-1-4.5-1c-2.1,0-3.9,0.5-5.3,1.3l0,0l0,0
	c-1.4,0.8-2.1,1.9-2.3,3.1l0,0l-1.6,8.4c-0.1,0.4-0.1,0.6-0.1,0.7c0,0.9,0.4,1.6,1.3,2.2c1,0.6,2.4,1,4.4,1
	C143.4,21.9,145.2,21.4,146.6,20.6L146.6,20.6z M136.2,21.8c-1.2-0.8-1.9-1.9-1.9-3.2c0-0.2,0-0.5,0.1-0.9l1.6-8.4
	c0.3-1.6,1.2-2.9,2.9-3.9c1.6-1,3.6-1.5,5.9-1.5c2.1,0,3.8,0.4,5,1.2c1.2,0.8,1.9,1.9,1.9,3.2c0,0.2,0,0.5-0.1,0.9l-1.5,8.4
	c-0.3,1.6-1.3,2.9-2.9,3.8c-1.6,1-3.6,1.4-6,1.4C139.1,23,137.4,22.6,136.2,21.8z"/>
</svg>
