<svg width="163" height="27" viewBox="0 0 163 27" fill="none" xmlns="http://www.w3.org/2000/svg">
<path d="M8.94985 24.3106C6.79398 24.3106 5.09197 23.8189 3.84384 22.8355C2.61461 21.8332 2 20.4811 2 18.7791C2 18.6089 2.01891 18.3347 2.05673 17.9564L2.11347 17.5593C2.13238 17.4269 2.17966 17.3229 2.2553 17.2473C2.34986 17.1716 2.45387 17.1338 2.56733 17.1338H6.85071C6.98309 17.1338 7.07764 17.1716 7.13438 17.2473C7.21002 17.3229 7.23839 17.4269 7.21948 17.5593L7.19111 17.7295C7.13438 18.259 7.3424 18.7318 7.81518 19.1478C8.30687 19.545 9.00658 19.7435 9.91432 19.7435C10.6519 19.7435 11.1814 19.5733 11.5029 19.2329C11.8243 18.8925 11.9851 18.5427 11.9851 18.1834C11.9851 17.8051 11.8054 17.5215 11.4461 17.3324C11.1057 17.1432 10.5006 16.9163 9.63065 16.6516L8.86475 16.3963C7.2573 15.8857 5.90515 15.2143 4.80831 14.3822C3.73037 13.5312 3.1914 12.3209 3.1914 10.7513C3.1914 9.4275 3.54126 8.25501 4.24097 7.23381C4.9596 6.2126 5.92406 5.41834 7.13438 4.851C8.3636 4.28367 9.70629 4 11.1625 4C12.4862 4 13.6682 4.23639 14.7083 4.70917C15.7673 5.18195 16.59 5.86275 17.1762 6.75157C17.7624 7.62149 18.0556 8.62378 18.0556 9.75845C18.0556 9.92865 18.0367 10.2029 17.9988 10.5811L17.9705 10.8364C17.9516 10.9688 17.8948 11.0728 17.8003 11.1484C17.7246 11.2241 17.6206 11.2619 17.4882 11.2619H13.2332C13.1008 11.2619 12.9968 11.2241 12.9212 11.1484C12.8645 11.0728 12.8455 10.9688 12.8645 10.8364V10.808C12.9212 10.4487 12.855 10.0988 12.6659 9.75845C12.4957 9.41804 12.212 9.13438 11.8149 8.90744C11.4367 8.68051 10.9639 8.56704 10.3966 8.56704C9.77248 8.56704 9.27134 8.70888 8.89311 8.99254C8.51489 9.2573 8.32578 9.62607 8.32578 10.0988C8.32578 10.5338 8.57163 10.9026 9.06332 11.2051C9.57392 11.4888 10.5289 11.867 11.9284 12.3398C12.0796 12.3966 12.6564 12.5951 13.6587 12.9355C14.6799 13.257 15.5309 13.8149 16.2117 14.6092C16.8925 15.3845 17.2329 16.3301 17.2329 17.4458C17.2329 17.5971 17.214 17.843 17.1762 18.1834C16.9304 20.0934 16.0604 21.5968 14.5665 22.6937C13.0725 23.7716 11.2003 24.3106 8.94985 24.3106Z" fill="#D93333"/>
<path d="M31.1322 24.0836C30.8674 24.0836 30.7256 23.9607 30.7067 23.7149L30.3947 21.5306C30.3757 21.4361 30.319 21.3888 30.2245 21.3888H24.466C24.3904 21.3888 24.3242 21.4361 24.2674 21.5306L23.3881 23.7149C23.3124 23.9607 23.1422 24.0836 22.8775 24.0836H18.197C17.8755 24.0836 17.7715 23.9229 17.8849 23.6014L26.0262 4.56733C26.1207 4.3404 26.2909 4.22693 26.5368 4.22693H32.3803C32.6073 4.22693 32.7491 4.3404 32.8058 4.56733L36.2666 23.6014V23.7149C36.2666 23.9607 36.1247 24.0836 35.8411 24.0836H31.1322ZM26.0262 17.1054C26.0073 17.2378 26.0451 17.304 26.1396 17.304H29.5153C29.6287 17.304 29.6855 17.2378 29.6855 17.1054L28.721 10.8364C28.7021 10.7607 28.6643 10.7229 28.6075 10.7229C28.5697 10.7229 28.5319 10.7607 28.4941 10.8364L26.0262 17.1054Z" fill="#D93333"/>
<path d="M44.7717 24.3106C42.7104 24.3106 41.0746 23.7622 39.8643 22.6653C38.6539 21.5685 38.0488 20.0839 38.0488 18.2117C38.0488 17.9848 38.0677 17.6444 38.1055 17.1905L39.6657 4.65243C39.6846 4.52006 39.7319 4.41604 39.8075 4.3404C39.8832 4.26475 39.9872 4.22693 40.1196 4.22693H44.4597C44.592 4.22693 44.6866 4.26475 44.7433 4.3404C44.819 4.41604 44.8473 4.52006 44.8284 4.65243L43.2966 17.1905C43.2777 17.2851 43.2683 17.4364 43.2683 17.6444C43.2683 18.2874 43.4479 18.798 43.8072 19.1762C44.1855 19.5544 44.6961 19.7435 45.339 19.7435C46.0388 19.7435 46.6345 19.5166 47.1261 19.0627C47.6178 18.59 47.911 17.9659 48.0055 17.1905L49.5373 4.65243C49.5562 4.52006 49.6035 4.41604 49.6791 4.3404C49.7737 4.26475 49.8777 4.22693 49.9912 4.22693H54.3597C54.4731 4.22693 54.5582 4.26475 54.615 4.3404C54.6906 4.41604 54.719 4.52006 54.7001 4.65243L53.1683 17.1905C52.9981 18.6089 52.5253 19.857 51.7499 20.9349C50.9935 22.0129 50.0101 22.845 48.7998 23.4312C47.6084 24.0175 46.2657 24.3106 44.7717 24.3106Z" fill="#D93333"/>
<path d="M61.6402 24.3106C59.5599 24.3106 57.9147 23.7527 56.7043 22.6369C55.494 21.5023 54.8889 19.9894 54.8889 18.0983C54.8889 17.6066 54.9078 17.2378 54.9456 16.992L55.6548 11.2619C55.825 9.82463 56.2883 8.55759 57.0447 7.46074C57.8201 6.36389 58.8129 5.51289 60.0233 4.90773C61.2525 4.30258 62.6235 4 64.1364 4C66.2356 4 67.8903 4.52951 69.1006 5.58854C70.3298 6.64756 70.9444 8.07535 70.9444 9.87191C70.9444 10.061 70.9255 10.3825 70.8877 10.8364C70.8877 10.912 70.8404 10.9782 70.7459 11.0349C70.6702 11.0917 70.5757 11.1295 70.4622 11.1484L66.0654 11.4321H65.9803C65.7533 11.4321 65.6588 11.3281 65.6966 11.12C65.7155 11.0255 65.725 10.8837 65.725 10.6945C65.725 10.0327 65.5358 9.5126 65.1576 9.13438C64.7794 8.75615 64.2593 8.56704 63.5975 8.56704C62.8599 8.56704 62.2359 8.80343 61.7253 9.27621C61.2336 9.73008 60.9404 10.3447 60.8459 11.12L60.1083 17.2189C60.0894 17.3134 60.08 17.4553 60.08 17.6444C60.08 18.2874 60.2691 18.798 60.6473 19.1762C61.0445 19.5544 61.5645 19.7435 62.2075 19.7435C62.945 19.7435 63.5596 19.5166 64.0513 19.0627C64.543 18.59 64.8361 17.9753 64.9307 17.2189C64.9496 17.1243 64.9969 17.0487 65.0725 16.992C65.1482 16.9163 65.2522 16.8879 65.3846 16.9069L69.7247 17.1338C69.9894 17.1716 70.1124 17.2662 70.0934 17.4175C69.9232 18.7791 69.4599 19.9799 68.7035 21.02C67.947 22.0601 66.9542 22.8733 65.725 23.4596C64.5147 24.0269 63.153 24.3106 61.6402 24.3106Z" fill="#D93333"/>
<path d="M75.7025 24.0269C75.589 24.0269 75.4945 23.9891 75.4188 23.9134C75.3621 23.8378 75.3432 23.7338 75.3621 23.6014L76.128 17.3607C76.128 17.2473 76.1186 17.1716 76.0996 17.1338L72.0432 4.73753C72.0243 4.69971 72.0148 4.64298 72.0148 4.56733C72.0148 4.3404 72.1378 4.22693 72.3836 4.22693H77.1209C77.3667 4.22693 77.518 4.3404 77.5747 4.56733L79.3335 11.2902C79.3713 11.3659 79.4091 11.4037 79.4469 11.4037C79.5037 11.4037 79.5415 11.3659 79.5604 11.2902L82.9644 4.56733C83.0779 4.3404 83.2575 4.22693 83.5034 4.22693H88.269C88.4959 4.22693 88.6094 4.31203 88.6094 4.48223C88.6094 4.55788 88.581 4.64298 88.5243 4.73753L81.3475 17.1338C81.2908 17.2473 81.2624 17.3229 81.2624 17.3607L80.4965 23.6014C80.4776 23.7338 80.4208 23.8378 80.3263 23.9134C80.2506 23.9891 80.1561 24.0269 80.0426 24.0269H75.7025Z" fill="#D93333"/>
<path d="M101.768 13.7298C101.692 13.7487 101.654 13.7865 101.654 13.8433C101.654 13.8811 101.682 13.9189 101.739 13.9567C102.987 14.7321 103.611 15.914 103.611 17.5026C103.611 17.6917 103.592 17.9943 103.555 18.4103C103.309 20.3581 102.467 21.7954 101.03 22.722C99.6117 23.6298 97.8435 24.0836 95.7254 24.0836H88.3217C88.1893 24.0836 88.0853 24.0458 88.0097 23.9702C87.953 23.8945 87.934 23.7905 87.953 23.6581L90.3074 4.65243C90.3263 4.52006 90.3736 4.41604 90.4492 4.3404C90.5249 4.26475 90.6289 4.22693 90.7613 4.22693H97.9097C100.047 4.22693 101.654 4.58624 102.732 5.30487C103.81 6.00458 104.349 7.16762 104.349 8.79398C104.349 9.24784 104.33 9.5977 104.292 9.84355C104.065 11.659 103.224 12.9544 101.768 13.7298ZM95.1297 8.79398C95.0352 8.79398 94.969 8.85071 94.9312 8.96417L94.5908 11.7441C94.5908 11.8576 94.638 11.9143 94.7326 11.9143H96.9736C97.6922 11.9143 98.2406 11.763 98.6188 11.4604C98.9971 11.139 99.1862 10.6756 99.1862 10.0705C99.1862 9.65443 99.0254 9.3424 98.7039 9.13438C98.4014 8.90744 97.9475 8.79398 97.3423 8.79398H95.1297ZM96.2928 19.5166C97.5787 19.5166 98.2974 18.9587 98.4486 17.843C98.5621 16.7839 97.9853 16.2544 96.7183 16.2544H94.1936C94.0802 16.2544 94.0234 16.3112 94.0234 16.4246L93.6547 19.3464C93.6547 19.4599 93.7019 19.5166 93.7965 19.5166H96.2928Z" fill="#D93333"/>
<path d="M132.574 24.0269C132.461 24.0269 132.366 23.9891 132.291 23.9134C132.234 23.8378 132.215 23.7338 132.234 23.6014L133 17.3607C133 17.2473 132.991 17.1716 132.972 17.1338L128.915 4.73753C128.896 4.69971 128.887 4.64298 128.887 4.56733C128.887 4.3404 129.01 4.22693 129.256 4.22693H133.993C134.239 4.22693 134.39 4.3404 134.447 4.56733L136.205 11.2902C136.243 11.3659 136.281 11.4037 136.319 11.4037C136.376 11.4037 136.413 11.3659 136.432 11.2902L139.836 4.56733C139.95 4.3404 140.129 4.22693 140.375 4.22693H145.141C145.368 4.22693 145.481 4.31203 145.481 4.48223C145.481 4.55788 145.453 4.64298 145.396 4.73753L138.219 17.1338C138.163 17.2473 138.134 17.3229 138.134 17.3607L137.368 23.6014C137.35 23.7338 137.293 23.8378 137.198 23.9134C137.123 23.9891 137.028 24.0269 136.915 24.0269H132.574Z" fill="#D93333"/>
<path d="M150.894 24.3106C148.738 24.3106 147.036 23.8189 145.788 22.8355C144.559 21.8332 143.944 20.4811 143.944 18.7791C143.944 18.6089 143.963 18.3347 144.001 17.9564L144.058 17.5593C144.077 17.4269 144.124 17.3229 144.2 17.2473C144.294 17.1716 144.398 17.1338 144.512 17.1338H148.795C148.928 17.1338 149.022 17.1716 149.079 17.2473C149.154 17.3229 149.183 17.4269 149.164 17.5593L149.136 17.7295C149.079 18.259 149.287 18.7318 149.76 19.1478C150.251 19.545 150.951 19.7435 151.859 19.7435C152.596 19.7435 153.126 19.5733 153.447 19.2329C153.769 18.8925 153.93 18.5427 153.93 18.1834C153.93 17.8051 153.75 17.5215 153.391 17.3324C153.05 17.1432 152.445 16.9163 151.575 16.6516L150.809 16.3963C149.202 15.8857 147.85 15.2143 146.753 14.3822C145.675 13.5312 145.136 12.3209 145.136 10.7513C145.136 9.4275 145.486 8.25501 146.185 7.23381C146.904 6.2126 147.868 5.41834 149.079 4.851C150.308 4.28367 151.651 4 153.107 4C154.431 4 155.613 4.23639 156.653 4.70917C157.712 5.18195 158.534 5.86275 159.121 6.75157C159.707 7.62149 160 8.62378 160 9.75845C160 9.92865 159.981 10.2029 159.943 10.5811L159.915 10.8364C159.896 10.9688 159.839 11.0728 159.745 11.1484C159.669 11.2241 159.565 11.2619 159.433 11.2619H155.178C155.045 11.2619 154.941 11.2241 154.866 11.1484C154.809 11.0728 154.79 10.9688 154.809 10.8364V10.808C154.866 10.4487 154.799 10.0988 154.61 9.75845C154.44 9.41804 154.156 9.13438 153.759 8.90744C153.381 8.68051 152.908 8.56704 152.341 8.56704C151.717 8.56704 151.216 8.70888 150.838 8.99254C150.459 9.2573 150.27 9.62607 150.27 10.0988C150.27 10.5338 150.516 10.9026 151.008 11.2051C151.518 11.4888 152.473 11.867 153.873 12.3398C154.024 12.3966 154.601 12.5951 155.603 12.9355C156.624 13.257 157.475 13.8149 158.156 14.6092C158.837 15.3845 159.177 16.3301 159.177 17.4458C159.177 17.5971 159.158 17.843 159.121 18.1834C158.875 20.0934 158.005 21.5968 156.511 22.6937C155.017 23.7716 153.145 24.3106 150.894 24.3106Z" fill="#D93333"/>
<path d="M114.816 24.0931C112.06 24.0931 109.857 23.602 108.209 22.6198C106.59 21.6376 105.78 20.3161 105.78 18.6552C105.78 18.2266 105.808 17.8963 105.865 17.6641L107.101 11.2887C107.357 10.0207 107.996 8.9046 109.019 7.94025C110.07 6.9759 111.42 6.22585 113.068 5.6901C114.716 5.15435 116.549 4.88647 118.567 4.88647C121.352 4.88647 123.554 5.37758 125.173 6.35979C126.822 7.34199 127.646 8.65458 127.646 10.2975C127.646 10.7261 127.617 11.0565 127.56 11.2887L126.324 17.6641C126.097 18.9321 125.458 20.0571 124.406 21.0393C123.355 22.0037 122.005 22.7537 120.357 23.2895C118.709 23.8252 116.862 24.0931 114.816 24.0931ZM115.242 21.8697C117.146 21.8697 118.737 21.4947 120.016 20.7447C121.323 19.9946 122.105 19.0035 122.36 17.7713L123.596 11.2619C123.653 10.9404 123.682 10.7083 123.682 10.5654C123.682 9.51178 123.184 8.67244 122.19 8.0474C121.195 7.42236 119.846 7.10984 118.141 7.10984C116.294 7.10984 114.716 7.49379 113.409 8.2617C112.102 9.01175 111.335 10.0118 111.108 11.2619L109.829 17.7713C109.772 18.0927 109.744 18.3249 109.744 18.4677C109.744 19.5035 110.241 20.3339 111.235 20.959C112.23 21.5662 113.566 21.8697 115.242 21.8697Z" fill="#D93333"/>
<path fill-rule="evenodd" clip-rule="evenodd" d="M107.752 23.3795L107.75 23.3778C105.909 22.2617 104.893 20.6744 104.893 18.6552C104.893 18.2125 104.921 17.8074 104.998 17.4765L106.231 11.1167L106.232 11.1134C106.527 9.64989 107.267 8.37388 108.411 7.2952L108.415 7.29105L108.42 7.28696C109.583 6.22042 111.051 5.41378 112.794 4.84705C114.544 4.27825 116.471 4 118.567 4C121.441 4 123.822 4.50441 125.63 5.60002C127.492 6.71027 128.532 8.28589 128.532 10.2975C128.532 10.7402 128.505 11.1454 128.427 11.4763L127.196 17.827C126.93 19.3025 126.184 20.5919 125.011 21.6871L125.008 21.6899L125.005 21.6926C123.843 22.7591 122.374 23.5658 120.631 24.1325C118.88 24.7017 116.939 24.9796 114.816 24.9796C111.966 24.9796 109.588 24.4734 107.755 23.3813L107.752 23.3795ZM126.324 17.6641L127.56 11.2887C127.617 11.0565 127.646 10.7261 127.646 10.2975C127.646 8.65457 126.822 7.34198 125.173 6.35977C123.554 5.37756 121.352 4.88646 118.567 4.88646C116.549 4.88646 114.716 5.15433 113.068 5.69008C111.42 6.22583 110.07 6.97589 109.019 7.94023C107.996 8.90458 107.357 10.0207 107.101 11.2887L105.865 17.6641C105.808 17.8963 105.78 18.2266 105.78 18.6552C105.78 20.3161 106.59 21.6376 108.209 22.6198C109.857 23.602 112.06 24.0931 114.816 24.0931C116.862 24.0931 118.709 23.8252 120.357 23.2895C122.005 22.7537 123.355 22.0037 124.406 21.0393C125.458 20.0571 126.097 18.932 126.324 17.6641ZM119.571 19.9779L119.575 19.9758C120.707 19.3263 121.295 18.5301 121.491 17.5981L122.724 11.1021C122.78 10.7873 122.795 10.6235 122.795 10.5654C122.795 9.85604 122.49 9.2829 121.718 8.79793C120.915 8.29318 119.75 7.99628 118.141 7.99628C116.417 7.99628 115.002 8.35386 113.858 9.02601L113.854 9.0283L113.851 9.03056C112.723 9.67734 112.152 10.4759 111.98 11.4205L111.979 11.4266L110.7 17.9337C110.645 18.2468 110.63 18.4098 110.63 18.4677C110.63 19.1518 110.929 19.7175 111.702 20.2053C112.509 20.6964 113.664 20.9833 115.242 20.9833C117.032 20.9833 118.458 20.6307 119.567 19.98L119.571 19.9779ZM111.235 20.959C110.241 20.3339 109.744 19.5035 109.744 18.4677C109.744 18.3249 109.772 18.0927 109.829 17.7712L111.108 11.2619C111.335 10.0118 112.102 9.01173 113.409 8.26168C114.716 7.49378 116.294 7.10982 118.141 7.10982C119.846 7.10982 121.195 7.42234 122.19 8.04738C123.184 8.67243 123.682 9.51177 123.682 10.5654C123.682 10.7083 123.653 10.9404 123.596 11.2619L122.36 17.7712C122.105 19.0035 121.323 19.9946 120.016 20.7447C118.737 21.4947 117.146 21.8697 115.242 21.8697C113.566 21.8697 112.23 21.5661 111.235 20.959Z" fill="#D93333"/>
</svg>
