<svg width="1440" height="641" viewBox="0 0 1440 641" fill="none" xmlns="http://www.w3.org/2000/svg">
<rect width="1440" height="641" fill="#FFF9ED"/>
<path d="M647.116 311.192C645.788 311.192 644.628 310.984 643.636 310.568C642.66 310.136 641.9 309.528 641.356 308.744C640.828 307.944 640.564 307.024 640.564 305.984V305.528C640.564 305.448 640.588 305.384 640.636 305.336C640.7 305.272 640.772 305.24 640.852 305.24H644.188C644.268 305.24 644.332 305.272 644.38 305.336C644.444 305.384 644.476 305.448 644.476 305.528V305.816C644.476 306.344 644.74 306.808 645.268 307.208C645.796 307.592 646.508 307.784 647.404 307.784C648.108 307.784 648.628 307.632 648.964 307.328C649.3 307.024 649.468 306.672 649.468 306.272C649.468 305.952 649.364 305.696 649.156 305.504C648.964 305.296 648.7 305.128 648.364 305C648.028 304.856 647.508 304.664 646.804 304.424C646.708 304.376 646.612 304.344 646.516 304.328C646.42 304.296 646.332 304.264 646.252 304.232C645.212 303.896 644.308 303.536 643.54 303.152C642.772 302.752 642.116 302.208 641.572 301.52C641.028 300.816 640.756 299.952 640.756 298.928C640.756 297.936 641.012 297.072 641.524 296.336C642.052 295.584 642.78 295.008 643.708 294.608C644.636 294.208 645.684 294.008 646.852 294.008C648.084 294.008 649.188 294.232 650.164 294.68C651.156 295.128 651.932 295.76 652.492 296.576C653.052 297.392 653.332 298.328 653.332 299.384V299.72C653.332 299.8 653.3 299.872 653.236 299.936C653.188 299.984 653.124 300.008 653.044 300.008H649.708C649.628 300.008 649.556 299.984 649.492 299.936C649.444 299.872 649.42 299.8 649.42 299.72V299.552C649.42 298.992 649.172 298.496 648.676 298.064C648.18 297.632 647.516 297.416 646.684 297.416C646.06 297.416 645.572 297.544 645.22 297.8C644.868 298.056 644.692 298.416 644.692 298.88C644.692 299.232 644.804 299.528 645.028 299.768C645.252 299.992 645.596 300.208 646.06 300.416C646.54 300.608 647.268 300.864 648.244 301.184C649.364 301.568 650.236 301.904 650.86 302.192C651.484 302.48 652.068 302.952 652.612 303.608C653.172 304.248 653.452 305.096 653.452 306.152C653.452 307.192 653.188 308.088 652.66 308.84C652.132 309.592 651.388 310.176 650.428 310.592C649.484 310.992 648.38 311.192 647.116 311.192ZM662.539 294.2C663.627 294.2 664.587 294.424 665.419 294.872C666.267 295.32 666.915 295.952 667.363 296.768C667.827 297.568 668.059 298.496 668.059 299.552C668.059 300.592 667.819 301.512 667.339 302.312C666.875 303.112 666.211 303.728 665.347 304.16C664.483 304.592 663.483 304.808 662.347 304.808H659.419C659.339 304.808 659.299 304.848 659.299 304.928V310.712C659.299 310.792 659.267 310.864 659.203 310.928C659.155 310.976 659.091 311 659.011 311H655.603C655.523 311 655.451 310.976 655.387 310.928C655.339 310.864 655.315 310.792 655.315 310.712V294.488C655.315 294.408 655.339 294.344 655.387 294.296C655.451 294.232 655.523 294.2 655.603 294.2H662.539ZM661.891 301.64C662.547 301.64 663.075 301.456 663.475 301.088C663.891 300.72 664.099 300.24 664.099 299.648C664.099 299.04 663.891 298.552 663.475 298.184C663.075 297.8 662.547 297.608 661.891 297.608H659.419C659.339 297.608 659.299 297.648 659.299 297.728V301.52C659.299 301.6 659.339 301.64 659.419 301.64H661.891ZM670.019 311C669.939 311 669.867 310.976 669.803 310.928C669.755 310.864 669.731 310.792 669.731 310.712V294.488C669.731 294.408 669.755 294.344 669.803 294.296C669.867 294.232 669.939 294.2 670.019 294.2H673.427C673.507 294.2 673.571 294.232 673.619 294.296C673.683 294.344 673.715 294.408 673.715 294.488V307.472C673.715 307.552 673.755 307.592 673.835 307.592H681.491C681.571 307.592 681.635 307.624 681.683 307.688C681.747 307.736 681.779 307.8 681.779 307.88V310.712C681.779 310.792 681.747 310.864 681.683 310.928C681.635 310.976 681.571 311 681.491 311H670.019ZM694.644 311C694.468 311 694.356 310.92 694.308 310.76L693.684 308.624C693.652 308.56 693.612 308.528 693.564 308.528H688.092C688.044 308.528 688.004 308.56 687.972 308.624L687.348 310.76C687.3 310.92 687.188 311 687.012 311H683.34C683.244 311 683.172 310.976 683.124 310.928C683.076 310.864 683.068 310.776 683.1 310.664L688.236 294.44C688.284 294.28 688.388 294.2 688.548 294.2H693.084C693.244 294.2 693.348 294.28 693.396 294.44L698.556 310.664C698.572 310.696 698.58 310.736 698.58 310.784C698.58 310.928 698.492 311 698.316 311H694.644ZM688.932 305.312C688.916 305.408 688.948 305.456 689.028 305.456H692.604C692.7 305.456 692.732 305.408 692.7 305.312L690.876 299.144C690.86 299.08 690.836 299.056 690.804 299.072C690.772 299.072 690.748 299.096 690.732 299.144L688.932 305.312ZM705.311 311.192C703.983 311.192 702.823 310.984 701.831 310.568C700.855 310.136 700.095 309.528 699.551 308.744C699.023 307.944 698.759 307.024 698.759 305.984V305.528C698.759 305.448 698.783 305.384 698.831 305.336C698.895 305.272 698.967 305.24 699.047 305.24H702.383C702.463 305.24 702.527 305.272 702.575 305.336C702.639 305.384 702.671 305.448 702.671 305.528V305.816C702.671 306.344 702.935 306.808 703.463 307.208C703.991 307.592 704.703 307.784 705.599 307.784C706.303 307.784 706.823 307.632 707.159 307.328C707.495 307.024 707.663 306.672 707.663 306.272C707.663 305.952 707.559 305.696 707.351 305.504C707.159 305.296 706.895 305.128 706.559 305C706.223 304.856 705.703 304.664 704.999 304.424C704.903 304.376 704.807 304.344 704.711 304.328C704.615 304.296 704.527 304.264 704.447 304.232C703.407 303.896 702.503 303.536 701.735 303.152C700.967 302.752 700.311 302.208 699.767 301.52C699.223 300.816 698.951 299.952 698.951 298.928C698.951 297.936 699.207 297.072 699.719 296.336C700.247 295.584 700.975 295.008 701.903 294.608C702.831 294.208 703.879 294.008 705.047 294.008C706.279 294.008 707.383 294.232 708.359 294.68C709.351 295.128 710.127 295.76 710.687 296.576C711.247 297.392 711.527 298.328 711.527 299.384V299.72C711.527 299.8 711.495 299.872 711.431 299.936C711.383 299.984 711.319 300.008 711.239 300.008H707.903C707.823 300.008 707.751 299.984 707.687 299.936C707.639 299.872 707.615 299.8 707.615 299.72V299.552C707.615 298.992 707.367 298.496 706.871 298.064C706.375 297.632 705.711 297.416 704.879 297.416C704.255 297.416 703.767 297.544 703.415 297.8C703.063 298.056 702.887 298.416 702.887 298.88C702.887 299.232 702.999 299.528 703.223 299.768C703.447 299.992 703.791 300.208 704.255 300.416C704.735 300.608 705.463 300.864 706.439 301.184C707.559 301.568 708.431 301.904 709.055 302.192C709.679 302.48 710.263 302.952 710.807 303.608C711.367 304.248 711.647 305.096 711.647 306.152C711.647 307.192 711.383 308.088 710.855 308.84C710.327 309.592 709.583 310.176 708.623 310.592C707.679 310.992 706.575 311.192 705.311 311.192ZM722.294 294.488C722.294 294.408 722.318 294.344 722.366 294.296C722.43 294.232 722.502 294.2 722.582 294.2H725.99C726.07 294.2 726.134 294.232 726.182 294.296C726.246 294.344 726.278 294.408 726.278 294.488V310.712C726.278 310.792 726.246 310.864 726.182 310.928C726.134 310.976 726.07 311 725.99 311H722.582C722.502 311 722.43 310.976 722.366 310.928C722.318 310.864 722.294 310.792 722.294 310.712V304.328C722.294 304.248 722.254 304.208 722.174 304.208H717.686C717.606 304.208 717.566 304.248 717.566 304.328V310.712C717.566 310.792 717.534 310.864 717.47 310.928C717.422 310.976 717.358 311 717.278 311H713.87C713.79 311 713.718 310.976 713.654 310.928C713.606 310.864 713.582 310.792 713.582 310.712V294.488C713.582 294.408 713.606 294.344 713.654 294.296C713.718 294.232 713.79 294.2 713.87 294.2H717.278C717.358 294.2 717.422 294.232 717.47 294.296C717.534 294.344 717.566 294.408 717.566 294.488V300.68C717.566 300.76 717.606 300.8 717.686 300.8H722.174C722.254 300.8 722.294 300.76 722.294 300.68V294.488ZM733.534 311C733.454 311 733.382 310.976 733.318 310.928C733.27 310.864 733.246 310.792 733.246 310.712V294.488C733.246 294.408 733.27 294.344 733.318 294.296C733.382 294.232 733.454 294.2 733.534 294.2H736.942C737.022 294.2 737.086 294.232 737.134 294.296C737.198 294.344 737.23 294.408 737.23 294.488V310.712C737.23 310.792 737.198 310.864 737.134 310.928C737.086 310.976 737.022 311 736.942 311H733.534ZM750.374 294.392C750.438 294.264 750.55 294.2 750.71 294.2H754.094C754.174 294.2 754.238 294.232 754.286 294.296C754.35 294.344 754.382 294.408 754.382 294.488V310.712C754.382 310.792 754.35 310.864 754.286 310.928C754.238 310.976 754.174 311 754.094 311H750.686C750.606 311 750.534 310.976 750.47 310.928C750.422 310.864 750.398 310.792 750.398 310.712V301.064C750.398 301 750.382 300.968 750.35 300.968C750.318 300.968 750.286 300.992 750.254 301.04L748.19 304.352C748.126 304.48 748.014 304.544 747.854 304.544H746.15C745.99 304.544 745.878 304.48 745.814 304.352L743.726 301.016C743.694 300.968 743.662 300.944 743.63 300.944C743.598 300.944 743.582 300.976 743.582 301.04V310.712C743.582 310.792 743.55 310.864 743.486 310.928C743.438 310.976 743.374 311 743.294 311H739.886C739.806 311 739.734 310.976 739.67 310.928C739.622 310.864 739.598 310.792 739.598 310.712V294.488C739.598 294.408 739.622 294.344 739.67 294.296C739.734 294.232 739.806 294.2 739.886 294.2H743.27C743.414 294.2 743.526 294.264 743.606 294.392L746.942 299.624C746.99 299.72 747.038 299.72 747.086 299.624L750.374 294.392ZM767.699 311C767.523 311 767.411 310.92 767.363 310.76L766.739 308.624C766.707 308.56 766.667 308.528 766.619 308.528H761.147C761.099 308.528 761.059 308.56 761.027 308.624L760.403 310.76C760.355 310.92 760.243 311 760.067 311H756.395C756.299 311 756.227 310.976 756.179 310.928C756.131 310.864 756.123 310.776 756.155 310.664L761.291 294.44C761.339 294.28 761.443 294.2 761.603 294.2H766.139C766.299 294.2 766.403 294.28 766.451 294.44L771.611 310.664C771.627 310.696 771.635 310.736 771.635 310.784C771.635 310.928 771.547 311 771.371 311H767.699ZM761.987 305.312C761.971 305.408 762.003 305.456 762.083 305.456H765.659C765.755 305.456 765.787 305.408 765.755 305.312L763.931 299.144C763.915 299.08 763.891 299.056 763.859 299.072C763.827 299.072 763.803 299.096 763.787 299.144L761.987 305.312ZM778.953 311.192C777.673 311.192 776.545 310.936 775.569 310.424C774.609 309.912 773.857 309.192 773.313 308.264C772.785 307.336 772.521 306.264 772.521 305.048V300.128C772.521 298.912 772.785 297.848 773.313 296.936C773.857 296.008 774.609 295.288 775.569 294.776C776.545 294.264 777.673 294.008 778.953 294.008C780.217 294.008 781.337 294.256 782.313 294.752C783.289 295.232 784.041 295.896 784.569 296.744C785.113 297.592 785.385 298.528 785.385 299.552V299.672C785.385 299.752 785.353 299.824 785.289 299.888C785.241 299.936 785.177 299.96 785.097 299.96H781.689C781.609 299.96 781.537 299.936 781.473 299.888C781.425 299.824 781.401 299.752 781.401 299.672C781.401 299.048 781.177 298.52 780.729 298.088C780.297 297.64 779.705 297.416 778.953 297.416C778.217 297.416 777.625 297.656 777.177 298.136C776.729 298.616 776.505 299.24 776.505 300.008V305.168C776.505 305.936 776.753 306.56 777.249 307.04C777.745 307.52 778.369 307.76 779.121 307.76C779.825 307.76 780.393 307.576 780.825 307.208C781.257 306.824 781.473 306.296 781.473 305.624V304.952C781.473 304.872 781.433 304.832 781.353 304.832H778.953C778.873 304.832 778.801 304.808 778.737 304.76C778.689 304.696 778.665 304.624 778.665 304.544V301.904C778.665 301.824 778.689 301.76 778.737 301.712C778.801 301.648 778.873 301.616 778.953 301.616H785.097C785.177 301.616 785.241 301.648 785.289 301.712C785.353 301.76 785.385 301.824 785.385 301.904V305.168C785.385 306.368 785.113 307.424 784.569 308.336C784.041 309.248 783.289 309.952 782.313 310.448C781.353 310.944 780.233 311.192 778.953 311.192ZM799.409 297.32C799.409 297.4 799.377 297.472 799.313 297.536C799.265 297.584 799.201 297.608 799.121 297.608H791.585C791.505 297.608 791.465 297.648 791.465 297.728V300.68C791.465 300.76 791.505 300.8 791.585 300.8H796.409C796.489 300.8 796.553 300.832 796.601 300.896C796.665 300.944 796.697 301.008 796.697 301.088V303.896C796.697 303.976 796.665 304.048 796.601 304.112C796.553 304.16 796.489 304.184 796.409 304.184H791.585C791.505 304.184 791.465 304.224 791.465 304.304V307.472C791.465 307.552 791.505 307.592 791.585 307.592H799.121C799.201 307.592 799.265 307.624 799.313 307.688C799.377 307.736 799.409 307.8 799.409 307.88V310.712C799.409 310.792 799.377 310.864 799.313 310.928C799.265 310.976 799.201 311 799.121 311H787.769C787.689 311 787.617 310.976 787.553 310.928C787.505 310.864 787.481 310.792 787.481 310.712V294.488C787.481 294.408 787.505 294.344 787.553 294.296C787.617 294.232 787.689 294.2 787.769 294.2H799.121C799.201 294.2 799.265 294.232 799.313 294.296C799.377 294.344 799.409 294.408 799.409 294.488V297.32Z" fill="#FFE6B5"/>
</svg>
